<svg preserveAspectRatio="none" width="100%" height="100%" overflow="visible" style="display: block;" viewBox="0 0 21 22" fill="none" xmlns="http://www.w3.org/2000/svg">
<path id="Vector" d="M4.22484 19.2252C2.01187 17.6158 0.402359 15.2016 0 12.1839L1.60953 11.7815C1.60953 14.3969 3.21887 16.6099 5.02949 18.0182C7.44364 19.8288 10.059 19.8288 11.4673 18.0182C13.2779 15.604 11.6685 13.5922 9.85785 10.7756C8.04723 7.95913 6.03546 5.14264 8.24844 2.12495C10.0591 -0.490389 13.6803 -0.691544 16.698 1.52143C18.5086 2.92969 19.9169 4.94141 20.7216 7.35557L18.9109 7.75795C18.3074 5.54497 17.1004 3.73436 15.6921 2.72846C13.8815 1.3202 11.2661 1.11905 9.85785 3.13084C8.24841 5.14264 9.85782 7.15441 11.4673 9.76975C13.4791 12.9886 15.4908 15.604 13.0767 18.8228C11.0649 21.6393 7.24246 21.6393 4.02359 19.4263L4.22484 19.2252Z" fill="var(--fill-0, #005798)"/>
</svg>
