<svg preserveAspectRatio="none" width="100%" height="100%" overflow="visible" style="display: block;" viewBox="0 0 9 9" fill="none" xmlns="http://www.w3.org/2000/svg">
<path id="Vector" d="M4.22485 8.51754C3.01777 8.51754 2.01187 8.11511 1.20715 7.31039C1.00597 7.31039 0.804694 6.90805 0.603514 6.70687C0.603514 6.50569 0.402433 6.30447 0.201253 5.90211C0.201253 5.70093 0 5.29864 0 5.09746C0 4.89628 0 4.49387 0 4.29269C0 3.08562 0.402433 2.07972 1.20715 1.275C1.20715 1.275 1.60949 0.872665 1.81067 0.671486C2.01185 0.671486 2.21295 0.470282 2.61531 0.269102C2.81649 0.269102 3.2189 0.269151 3.42008 0.0679714C4.82833 -0.133208 6.23664 0.0679223 7.24254 1.275C8.04726 2.07972 8.44957 3.2868 8.44957 4.29269C8.44957 5.29859 8.44957 4.89628 8.44957 5.09746C8.44957 5.29864 8.44962 5.70093 8.24844 5.90211C8.24844 6.10329 8.04723 6.30451 7.84605 6.70687C7.84605 6.90805 7.44372 7.10921 7.24254 7.31039C6.43782 8.11511 5.23074 8.51754 4.22485 8.51754Z" fill="var(--fill-0, #005798)"/>
</svg>
