<svg preserveAspectRatio="none" width="100%" height="100%" overflow="visible" style="display: block;" viewBox="0 0 167 20" fill="none" xmlns="http://www.w3.org/2000/svg">
<path id="Vector" d="M57.3362 4.62711C57.3362 2.21295 58.9456 0.20118 61.3598 0C63.7739 0 65.7857 1.60944 65.9869 4.02359C65.9869 6.43775 64.3775 8.44952 61.9633 8.6507H61.7622C59.5492 8.6507 57.5373 6.84008 57.5373 4.62711M104.815 9.05308C102.4 9.05308 100.59 6.84013 100.791 4.42598C100.791 2.01182 103.004 0.201204 105.418 0.402384C107.832 0.402384 109.643 2.61534 109.442 5.02949C109.442 7.24247 107.43 9.05308 105.217 9.05308C103.004 9.05308 105.016 9.05308 104.815 9.05308ZM42.8512 6.23658C42.6501 3.82243 44.2595 1.81064 46.6737 1.40828C49.0879 1.2071 51.0996 2.81653 51.5019 5.23068C51.7031 7.64484 50.0938 9.65662 47.6796 10.059H47.2772C45.0642 10.059 43.2537 8.44956 43.0525 6.23658M119.098 10.4614C116.684 10.2602 115.075 8.04716 115.276 5.633C115.678 3.21885 117.69 1.60942 120.104 1.8106C122.518 2.01178 124.128 4.22475 123.927 6.6389C123.725 8.85188 121.714 10.4614 119.702 10.4614C117.69 10.4614 119.3 10.4614 119.098 10.4614ZM28.5675 8.44957C28.1652 6.03541 29.7746 3.82244 32.1887 3.42008C34.6029 3.01772 36.8159 4.62713 37.2182 7.04129C37.6206 9.45544 36.0112 11.6684 33.597 12.0708C33.3958 12.0708 33.1946 12.0708 32.7923 12.0708C30.7805 12.0708 28.9699 10.6625 28.5675 8.44957ZM133.382 12.6743C130.968 12.2719 129.56 10.059 129.962 7.6448C130.364 5.23065 132.577 3.82243 134.991 4.22478C137.406 4.62714 138.814 6.84012 138.412 9.25427C138.009 11.2661 136.199 12.8755 134.187 12.8755C132.175 12.8755 133.784 12.8755 133.382 12.8755M14.2837 11.4673C13.8813 9.05311 15.2897 6.84013 17.5027 6.43777C19.9168 6.03541 22.1297 7.44362 22.7333 9.6566C23.3368 12.0708 21.7274 14.2837 19.5144 14.8873C19.1121 14.8873 18.9109 14.8873 18.5085 14.8873C16.4968 14.8873 14.6861 13.4791 14.2837 11.4673ZM147.264 15.4909C144.849 14.8873 143.441 12.6743 144.045 10.2602C144.648 7.84602 146.861 6.43775 149.275 7.04129C151.689 7.64483 153.098 9.85781 152.494 12.272C152.092 14.2838 150.281 15.692 148.269 15.692C146.258 15.692 147.666 15.692 147.264 15.692M0.201131 15.0885C-0.402408 12.8755 1.00585 10.4613 3.21882 9.85779C5.4318 9.25425 7.84603 10.6625 8.44957 12.8755C9.05311 15.0885 7.64485 17.5026 5.43187 18.1062C5.02952 18.1062 4.62708 18.1062 4.22472 18.1062C2.41411 18.1062 0.603539 16.8991 0 14.8873M161.145 19.1121C158.932 18.5085 157.524 16.0944 158.127 13.8814C158.731 11.6684 161.145 10.2601 163.358 10.8637C165.571 11.4672 166.979 13.8814 166.376 16.0944C165.772 18.1062 164.163 19.3133 162.151 19.3133C160.139 19.3133 161.346 19.3133 160.944 19.3133" fill="var(--fill-0, #005798)"/>
</svg>
