<svg preserveAspectRatio="none" width="100%" height="100%" overflow="visible" style="display: block;" viewBox="0 0 475 30" fill="none" xmlns="http://www.w3.org/2000/svg">
<g id="Background">
<path id="Vector" d="M2.5 12.75C2.5 12.0596 1.94036 11.5 1.25 11.5C0.559644 11.5 0 12.0596 0 12.75V17.25C0 17.9404 0.559644 18.5 1.25 18.5C1.94036 18.5 2.5 17.9404 2.5 17.25V12.75Z" fill="var(--fill-0, white)" fill-opacity="0.6"/>
<path id="Vector_2" d="M10 7.75C10 7.05964 9.44036 6.5 8.75 6.5C8.05964 6.5 7.5 7.05964 7.5 7.75V22.25C7.5 22.9404 8.05964 23.5 8.75 23.5C9.44036 23.5 10 22.9404 10 22.25V7.75Z" fill="var(--fill-0, white)" fill-opacity="0.6"/>
<path id="Vector_3" d="M17.5 1.25C17.5 0.559644 16.9404 0 16.25 0C15.5596 0 15 0.559644 15 1.25V28.75C15 29.4404 15.5596 30 16.25 30C16.9404 30 17.5 29.4404 17.5 28.75V1.25Z" fill="var(--fill-0, white)" fill-opacity="0.6"/>
<path id="Vector_4" d="M25 7.75C25 7.05964 24.4404 6.5 23.75 6.5C23.0596 6.5 22.5 7.05964 22.5 7.75V22.25C22.5 22.9404 23.0596 23.5 23.75 23.5C24.4404 23.5 25 22.9404 25 22.25V7.75Z" fill="var(--fill-0, white)" fill-opacity="0.6"/>
<path id="Vector_5" d="M32.5 12.75C32.5 12.0596 31.9404 11.5 31.25 11.5C30.5596 11.5 30 12.0596 30 12.75V17.25C30 17.9404 30.5596 18.5 31.25 18.5C31.9404 18.5 32.5 17.9404 32.5 17.25V12.75Z" fill="var(--fill-0, white)" fill-opacity="0.6"/>
<path id="Vector_6" d="M40 12.75C40 12.0596 39.4404 11.5 38.75 11.5C38.0596 11.5 37.5 12.0596 37.5 12.75V17.25C37.5 17.9404 38.0596 18.5 38.75 18.5C39.4404 18.5 40 17.9404 40 17.25V12.75Z" fill="var(--fill-0, white)" fill-opacity="0.6"/>
<path id="Vector_7" d="M47.5 1.25C47.5 0.559644 46.9404 0 46.25 0C45.5596 0 45 0.559644 45 1.25V28.75C45 29.4404 45.5596 30 46.25 30C46.9404 30 47.5 29.4404 47.5 28.75V1.25Z" fill="var(--fill-0, white)" fill-opacity="0.6"/>
<path id="Vector_8" d="M55 9.25C55 8.55964 54.4404 8 53.75 8C53.0596 8 52.5 8.55964 52.5 9.25V20.75C52.5 21.4404 53.0596 22 53.75 22C54.4404 22 55 21.4404 55 20.75V9.25Z" fill="var(--fill-0, white)" fill-opacity="0.6"/>
<path id="Vector_9" d="M62.5 12.75C62.5 12.0596 61.9404 11.5 61.25 11.5C60.5596 11.5 60 12.0596 60 12.75V17.25C60 17.9404 60.5596 18.5 61.25 18.5C61.9404 18.5 62.5 17.9404 62.5 17.25V12.75Z" fill="var(--fill-0, white)" fill-opacity="0.6"/>
<path id="Vector_10" d="M70 9.25C70 8.55964 69.4404 8 68.75 8C68.0596 8 67.5 8.55964 67.5 9.25V20.75C67.5 21.4404 68.0596 22 68.75 22C69.4404 22 70 21.4404 70 20.75V9.25Z" fill="var(--fill-0, white)" fill-opacity="0.6"/>
<path id="Vector_11" d="M77.5 6.25C77.5 5.55964 76.9404 5 76.25 5C75.5596 5 75 5.55964 75 6.25V23.75C75 24.4404 75.5596 25 76.25 25C76.9404 25 77.5 24.4404 77.5 23.75V6.25Z" fill="var(--fill-0, white)" fill-opacity="0.6"/>
<path id="Vector_12" d="M85 4.25C85 3.55964 84.4404 3 83.75 3C83.0596 3 82.5 3.55964 82.5 4.25V25.75C82.5 26.4404 83.0596 27 83.75 27C84.4404 27 85 26.4404 85 25.75V4.25Z" fill="var(--fill-0, white)" fill-opacity="0.6"/>
<path id="Vector_13" d="M92.5 6.25C92.5 5.55964 91.9404 5 91.25 5C90.5596 5 90 5.55964 90 6.25V23.75C90 24.4404 90.5596 25 91.25 25C91.9404 25 92.5 24.4404 92.5 23.75V6.25Z" fill="var(--fill-0, white)" fill-opacity="0.6"/>
<path id="Vector_14" d="M100 9.25C100 8.55964 99.4404 8 98.75 8C98.0596 8 97.5 8.55964 97.5 9.25V20.75C97.5 21.4404 98.0596 22 98.75 22C99.4404 22 100 21.4404 100 20.75V9.25Z" fill="var(--fill-0, white)" fill-opacity="0.6"/>
<path id="Vector_15" d="M107.5 7.75C107.5 7.05964 106.94 6.5 106.25 6.5C105.56 6.5 105 7.05964 105 7.75V22.25C105 22.9404 105.56 23.5 106.25 23.5C106.94 23.5 107.5 22.9404 107.5 22.25V7.75Z" fill="var(--fill-0, white)" fill-opacity="0.6"/>
<path id="Vector_16" d="M115 1.25C115 0.559644 114.44 0 113.75 0C113.06 0 112.5 0.559644 112.5 1.25V28.75C112.5 29.4404 113.06 30 113.75 30C114.44 30 115 29.4404 115 28.75V1.25Z" fill="var(--fill-0, white)" fill-opacity="0.6"/>
<path id="Vector_17" d="M122.5 7.75C122.5 7.05964 121.94 6.5 121.25 6.5C120.56 6.5 120 7.05964 120 7.75V22.25C120 22.9404 120.56 23.5 121.25 23.5C121.94 23.5 122.5 22.9404 122.5 22.25V7.75Z" fill="var(--fill-0, white)" fill-opacity="0.6"/>
<path id="Vector_18" d="M130 12.75C130 12.0596 129.44 11.5 128.75 11.5C128.06 11.5 127.5 12.0596 127.5 12.75V17.25C127.5 17.9404 128.06 18.5 128.75 18.5C129.44 18.5 130 17.9404 130 17.25V12.75Z" fill="var(--fill-0, white)" fill-opacity="0.6"/>
<path id="Vector_19" d="M137.5 12.75C137.5 12.0596 136.94 11.5 136.25 11.5C135.56 11.5 135 12.0596 135 12.75V17.25C135 17.9404 135.56 18.5 136.25 18.5C136.94 18.5 137.5 17.9404 137.5 17.25V12.75Z" fill="var(--fill-0, white)" fill-opacity="0.6"/>
<path id="Vector_20" d="M145 1.25C145 0.559644 144.44 0 143.75 0C143.06 0 142.5 0.559644 142.5 1.25V28.75C142.5 29.4404 143.06 30 143.75 30C144.44 30 145 29.4404 145 28.75V1.25Z" fill="var(--fill-0, white)" fill-opacity="0.6"/>
<path id="Vector_21" d="M152.5 9.25C152.5 8.55964 151.94 8 151.25 8C150.56 8 150 8.55964 150 9.25V20.75C150 21.4404 150.56 22 151.25 22C151.94 22 152.5 21.4404 152.5 20.75V9.25Z" fill="var(--fill-0, white)" fill-opacity="0.6"/>
<path id="Vector_22" d="M160 12.75C160 12.0596 159.44 11.5 158.75 11.5C158.06 11.5 157.5 12.0596 157.5 12.75V17.25C157.5 17.9404 158.06 18.5 158.75 18.5C159.44 18.5 160 17.9404 160 17.25V12.75Z" fill="var(--fill-0, white)" fill-opacity="0.6"/>
<path id="Vector_23" d="M167.5 9.25C167.5 8.55964 166.94 8 166.25 8C165.56 8 165 8.55964 165 9.25V20.75C165 21.4404 165.56 22 166.25 22C166.94 22 167.5 21.4404 167.5 20.75V9.25Z" fill="var(--fill-0, white)" fill-opacity="0.6"/>
<path id="Vector_24" d="M175 6.25C175 5.55964 174.44 5 173.75 5C173.06 5 172.5 5.55964 172.5 6.25V23.75C172.5 24.4404 173.06 25 173.75 25C174.44 25 175 24.4404 175 23.75V6.25Z" fill="var(--fill-0, white)" fill-opacity="0.6"/>
<path id="Vector_25" d="M182.5 4.25C182.5 3.55964 181.94 3 181.25 3C180.56 3 180 3.55964 180 4.25V25.75C180 26.4404 180.56 27 181.25 27C181.94 27 182.5 26.4404 182.5 25.75V4.25Z" fill="var(--fill-0, white)" fill-opacity="0.6"/>
<path id="Vector_26" d="M190 6.25C190 5.55964 189.44 5 188.75 5C188.06 5 187.5 5.55964 187.5 6.25V23.75C187.5 24.4404 188.06 25 188.75 25C189.44 25 190 24.4404 190 23.75V6.25Z" fill="var(--fill-0, white)" fill-opacity="0.6"/>
<path id="Vector_27" d="M197.5 9.25C197.5 8.55964 196.94 8 196.25 8C195.56 8 195 8.55964 195 9.25V20.75C195 21.4404 195.56 22 196.25 22C196.94 22 197.5 21.4404 197.5 20.75V9.25Z" fill="var(--fill-0, white)" fill-opacity="0.6"/>
<path id="Vector_28" d="M205 7.75C205 7.05964 204.44 6.5 203.75 6.5C203.06 6.5 202.5 7.05964 202.5 7.75V22.25C202.5 22.9404 203.06 23.5 203.75 23.5C204.44 23.5 205 22.9404 205 22.25V7.75Z" fill="var(--fill-0, white)" fill-opacity="0.6"/>
<path id="Vector_29" d="M212.5 1.25C212.5 0.559644 211.94 0 211.25 0C210.56 0 210 0.559644 210 1.25V28.75C210 29.4404 210.56 30 211.25 30C211.94 30 212.5 29.4404 212.5 28.75V1.25Z" fill="var(--fill-0, white)" fill-opacity="0.6"/>
<path id="Vector_30" d="M220 7.75C220 7.05964 219.44 6.5 218.75 6.5C218.06 6.5 217.5 7.05964 217.5 7.75V22.25C217.5 22.9404 218.06 23.5 218.75 23.5C219.44 23.5 220 22.9404 220 22.25V7.75Z" fill="var(--fill-0, white)" fill-opacity="0.6"/>
<path id="Vector_31" d="M227.5 12.75C227.5 12.0596 226.94 11.5 226.25 11.5C225.56 11.5 225 12.0596 225 12.75V17.25C225 17.9404 225.56 18.5 226.25 18.5C226.94 18.5 227.5 17.9404 227.5 17.25V12.75Z" fill="var(--fill-0, white)" fill-opacity="0.6"/>
<path id="Vector_32" d="M235 12.75C235 12.0596 234.44 11.5 233.75 11.5C233.06 11.5 232.5 12.0596 232.5 12.75V17.25C232.5 17.9404 233.06 18.5 233.75 18.5C234.44 18.5 235 17.9404 235 17.25V12.75Z" fill="var(--fill-0, white)" fill-opacity="0.6"/>
<path id="Vector_33" d="M242.5 1.25C242.5 0.559644 241.94 0 241.25 0C240.56 0 240 0.559644 240 1.25V28.75C240 29.4404 240.56 30 241.25 30C241.94 30 242.5 29.4404 242.5 28.75V1.25Z" fill="var(--fill-0, white)" fill-opacity="0.6"/>
<path id="Vector_34" d="M250 9.25C250 8.55964 249.44 8 248.75 8C248.06 8 247.5 8.55964 247.5 9.25V20.75C247.5 21.4404 248.06 22 248.75 22C249.44 22 250 21.4404 250 20.75V9.25Z" fill="var(--fill-0, white)" fill-opacity="0.6"/>
<path id="Vector_35" d="M257.5 12.75C257.5 12.0596 256.94 11.5 256.25 11.5C255.56 11.5 255 12.0596 255 12.75V17.25C255 17.9404 255.56 18.5 256.25 18.5C256.94 18.5 257.5 17.9404 257.5 17.25V12.75Z" fill="var(--fill-0, white)" fill-opacity="0.6"/>
<path id="Vector_36" d="M265 9.25C265 8.55964 264.44 8 263.75 8C263.06 8 262.5 8.55964 262.5 9.25V20.75C262.5 21.4404 263.06 22 263.75 22C264.44 22 265 21.4404 265 20.75V9.25Z" fill="var(--fill-0, white)" fill-opacity="0.6"/>
<path id="Vector_37" d="M272.5 6.25C272.5 5.55964 271.94 5 271.25 5C270.56 5 270 5.55964 270 6.25V23.75C270 24.4404 270.56 25 271.25 25C271.94 25 272.5 24.4404 272.5 23.75V6.25Z" fill="var(--fill-0, white)" fill-opacity="0.6"/>
<path id="Vector_38" d="M280 4.25C280 3.55964 279.44 3 278.75 3C278.06 3 277.5 3.55964 277.5 4.25V25.75C277.5 26.4404 278.06 27 278.75 27C279.44 27 280 26.4404 280 25.75V4.25Z" fill="var(--fill-0, white)" fill-opacity="0.6"/>
<path id="Vector_39" d="M287.5 6.25C287.5 5.55964 286.94 5 286.25 5C285.56 5 285 5.55964 285 6.25V23.75C285 24.4404 285.56 25 286.25 25C286.94 25 287.5 24.4404 287.5 23.75V6.25Z" fill="var(--fill-0, white)" fill-opacity="0.6"/>
<path id="Vector_40" d="M295 9.25C295 8.55964 294.44 8 293.75 8C293.06 8 292.5 8.55964 292.5 9.25V20.75C292.5 21.4404 293.06 22 293.75 22C294.44 22 295 21.4404 295 20.75V9.25Z" fill="var(--fill-0, white)" fill-opacity="0.6"/>
<path id="Vector_41" d="M302.5 12.75C302.5 12.0596 301.94 11.5 301.25 11.5C300.56 11.5 300 12.0596 300 12.75V17.25C300 17.9404 300.56 18.5 301.25 18.5C301.94 18.5 302.5 17.9404 302.5 17.25V12.75Z" fill="var(--fill-0, white)" fill-opacity="0.6"/>
<path id="Vector_42" d="M310 7.75C310 7.05964 309.44 6.5 308.75 6.5C308.06 6.5 307.5 7.05964 307.5 7.75V22.25C307.5 22.9404 308.06 23.5 308.75 23.5C309.44 23.5 310 22.9404 310 22.25V7.75Z" fill="var(--fill-0, white)" fill-opacity="0.6"/>
<path id="Vector_43" d="M317.5 7.75C317.5 7.05964 316.94 6.5 316.25 6.5C315.56 6.5 315 7.05964 315 7.75V22.25C315 22.9404 315.56 23.5 316.25 23.5C316.94 23.5 317.5 22.9404 317.5 22.25V7.75Z" fill="var(--fill-0, white)" fill-opacity="0.6"/>
<path id="Vector_44" d="M325 12.75C325 12.0596 324.44 11.5 323.75 11.5C323.06 11.5 322.5 12.0596 322.5 12.75V17.25C322.5 17.9404 323.06 18.5 323.75 18.5C324.44 18.5 325 17.9404 325 17.25V12.75Z" fill="var(--fill-0, white)" fill-opacity="0.6"/>
<path id="Vector_45" d="M332.5 12.75C332.5 12.0596 331.94 11.5 331.25 11.5C330.56 11.5 330 12.0596 330 12.75V17.25C330 17.9404 330.56 18.5 331.25 18.5C331.94 18.5 332.5 17.9404 332.5 17.25V12.75Z" fill="var(--fill-0, white)" fill-opacity="0.6"/>
<path id="Vector_46" d="M337.5 12.75C337.5 12.0596 338.06 11.5 338.75 11.5C339.44 11.5 340 12.0596 340 12.75V17.25C340 17.9404 339.44 18.5 338.75 18.5C338.06 18.5 337.5 17.9404 337.5 17.25V12.75Z" fill="var(--fill-0, white)" fill-opacity="0.6"/>
<path id="Vector_47" d="M345 12.75C345 12.0596 345.56 11.5 346.25 11.5C346.94 11.5 347.5 12.0596 347.5 12.75V17.25C347.5 17.9404 346.94 18.5 346.25 18.5C345.56 18.5 345 17.9404 345 17.25V12.75Z" fill="var(--fill-0, white)" fill-opacity="0.6"/>
<path id="Vector_48" d="M352.5 7.75C352.5 7.05964 353.06 6.5 353.75 6.5C354.44 6.5 355 7.05964 355 7.75V22.25C355 22.9404 354.44 23.5 353.75 23.5C353.06 23.5 352.5 22.9404 352.5 22.25V7.75Z" fill="var(--fill-0, white)" fill-opacity="0.6"/>
<path id="Vector_49" d="M360 7.75C360 7.05964 360.56 6.5 361.25 6.5C361.94 6.5 362.5 7.05964 362.5 7.75V22.25C362.5 22.9404 361.94 23.5 361.25 23.5C360.56 23.5 360 22.9404 360 22.25V7.75Z" fill="var(--fill-0, white)" fill-opacity="0.6"/>
<path id="Vector_50" d="M367.5 12.75C367.5 12.0596 368.06 11.5 368.75 11.5C369.44 11.5 370 12.0596 370 12.75V17.25C370 17.9404 369.44 18.5 368.75 18.5C368.06 18.5 367.5 17.9404 367.5 17.25V12.75Z" fill="var(--fill-0, white)" fill-opacity="0.6"/>
<path id="Vector_51" d="M375 9.25C375 8.55964 375.56 8 376.25 8C376.94 8 377.5 8.55964 377.5 9.25V20.75C377.5 21.4404 376.94 22 376.25 22C375.56 22 375 21.4404 375 20.75V9.25Z" fill="var(--fill-0, white)" fill-opacity="0.6"/>
<path id="Vector_52" d="M382.5 6.25C382.5 5.55964 383.06 5 383.75 5C384.44 5 385 5.55964 385 6.25V23.75C385 24.4404 384.44 25 383.75 25C383.06 25 382.5 24.4404 382.5 23.75V6.25Z" fill="var(--fill-0, white)" fill-opacity="0.6"/>
<path id="Vector_53" d="M390 4.25C390 3.55964 390.56 3 391.25 3C391.94 3 392.5 3.55964 392.5 4.25V25.75C392.5 26.4404 391.94 27 391.25 27C390.56 27 390 26.4404 390 25.75V4.25Z" fill="var(--fill-0, white)" fill-opacity="0.6"/>
<path id="Vector_54" d="M397.5 6.25C397.5 5.55964 398.06 5 398.75 5C399.44 5 400 5.55964 400 6.25V23.75C400 24.4404 399.44 25 398.75 25C398.06 25 397.5 24.4404 397.5 23.75V6.25Z" fill="var(--fill-0, white)" fill-opacity="0.6"/>
<path id="Vector_55" d="M405 9.25C405 8.55964 405.56 8 406.25 8C406.94 8 407.5 8.55964 407.5 9.25V20.75C407.5 21.4404 406.94 22 406.25 22C405.56 22 405 21.4404 405 20.75V9.25Z" fill="var(--fill-0, white)" fill-opacity="0.6"/>
<path id="Vector_56" d="M412.5 12.75C412.5 12.0596 413.06 11.5 413.75 11.5C414.44 11.5 415 12.0596 415 12.75V17.25C415 17.9404 414.44 18.5 413.75 18.5C413.06 18.5 412.5 17.9404 412.5 17.25V12.75Z" fill="var(--fill-0, white)" fill-opacity="0.6"/>
<path id="Vector_57" d="M420 9.25C420 8.55964 420.56 8 421.25 8C421.94 8 422.5 8.55964 422.5 9.25V20.75C422.5 21.4404 421.94 22 421.25 22C420.56 22 420 21.4404 420 20.75V9.25Z" fill="var(--fill-0, white)" fill-opacity="0.6"/>
<path id="Vector_58" d="M427.5 1.25C427.5 0.559644 428.06 0 428.75 0C429.44 0 430 0.559644 430 1.25V28.75C430 29.4404 429.44 30 428.75 30C428.06 30 427.5 29.4404 427.5 28.75V1.25Z" fill="var(--fill-0, white)" fill-opacity="0.6"/>
<path id="Vector_59" d="M435 12.75C435 12.0596 435.56 11.5 436.25 11.5C436.94 11.5 437.5 12.0596 437.5 12.75V17.25C437.5 17.9404 436.94 18.5 436.25 18.5C435.56 18.5 435 17.9404 435 17.25V12.75Z" fill="var(--fill-0, white)" fill-opacity="0.6"/>
<path id="Vector_60" d="M442.5 12.75C442.5 12.0596 443.06 11.5 443.75 11.5C444.44 11.5 445 12.0596 445 12.75V17.25C445 17.9404 444.44 18.5 443.75 18.5C443.06 18.5 442.5 17.9404 442.5 17.25V12.75Z" fill="var(--fill-0, white)" fill-opacity="0.6"/>
<path id="Vector_61" d="M450 7.75C450 7.05964 450.56 6.5 451.25 6.5C451.94 6.5 452.5 7.05964 452.5 7.75V22.25C452.5 22.9404 451.94 23.5 451.25 23.5C450.56 23.5 450 22.9404 450 22.25V7.75Z" fill="var(--fill-0, white)" fill-opacity="0.6"/>
<path id="Vector_62" d="M457.5 1.25C457.5 0.559644 458.06 0 458.75 0C459.44 0 460 0.559644 460 1.25V28.75C460 29.4404 459.44 30 458.75 30C458.06 30 457.5 29.4404 457.5 28.75V1.25Z" fill="var(--fill-0, white)" fill-opacity="0.6"/>
<path id="Vector_63" d="M465 7.75C465 7.05964 465.56 6.5 466.25 6.5C466.94 6.5 467.5 7.05964 467.5 7.75V22.25C467.5 22.9404 466.94 23.5 466.25 23.5C465.56 23.5 465 22.9404 465 22.25V7.75Z" fill="var(--fill-0, white)" fill-opacity="0.6"/>
<path id="Vector_64" d="M472.5 12.75C472.5 12.0596 473.06 11.5 473.75 11.5C474.44 11.5 475 12.0596 475 12.75V17.25C475 17.9404 474.44 18.5 473.75 18.5C473.06 18.5 472.5 17.9404 472.5 17.25V12.75Z" fill="var(--fill-0, white)" fill-opacity="0.6"/>
</g>
</svg>
