<svg preserveAspectRatio="none" width="100%" height="100%" overflow="visible" style="display: block;" viewBox="0 0 9 9" fill="none" xmlns="http://www.w3.org/2000/svg">
<path id="Vector" d="M4.22472 8.49986C3.01765 8.49986 2.01175 8.09755 1.20703 7.29283C0.40231 6.48811 0 5.28103 0 4.27513C0 3.26924 0.40231 2.06216 1.20703 1.25744C2.21293 0.251543 3.62123 -0.15089 5.02949 0.0502894C5.23067 0.0502894 5.63296 0.0503631 5.83414 0.251543C6.03532 0.251543 6.43772 0.452747 6.6389 0.653926C6.84008 0.653926 7.04124 1.05626 7.24242 1.25744C7.24242 1.25744 7.64475 1.65978 7.84593 1.86095C7.84593 2.06213 8.04714 2.26336 8.24832 2.66572C8.24832 2.8669 8.24827 3.26919 8.44945 3.47037C8.44945 3.67155 8.44945 4.07396 8.44945 4.27513C8.44945 4.47631 8.44945 4.8786 8.44945 5.07978C8.44945 5.28096 8.4495 5.68337 8.24832 5.88455C8.24832 6.08573 8.04711 6.48813 7.84593 6.68931C7.84593 6.89049 7.4436 7.09165 7.24242 7.29283C6.4377 8.09755 5.23062 8.49986 4.22472 8.49986Z" fill="var(--fill-0, #005798)"/>
</svg>
