<svg preserveAspectRatio="none" width="100%" height="100%" overflow="visible" style="display: block;" viewBox="0 0 9 9" fill="none" xmlns="http://www.w3.org/2000/svg">
<path id="Vector" d="M4.22472 8.51747C4.02354 8.51747 3.62113 8.51747 3.41996 8.51747C3.21878 8.51747 2.81649 8.51752 2.61531 8.31634C2.41413 8.31634 2.01172 8.11514 1.81054 7.91396C1.60936 7.91396 1.40821 7.51162 1.20703 7.31044C1.00585 7.31044 0.804694 6.90805 0.603514 6.70687C0.603514 6.50569 0.40231 6.30452 0.201131 5.90216C0.201131 5.70098 0.20118 5.29863 0 5.09745C0 4.89627 0 4.49393 0 4.29275C0 3.08567 0.40231 2.07977 1.20703 1.27505C1.40821 1.27505 1.60936 0.872658 1.81054 0.671478C2.01172 0.671478 2.21295 0.470336 2.61531 0.269156C2.81649 0.269156 3.21878 0.269144 3.41996 0.0679641C4.82821 -0.133215 6.23652 0.0679764 7.24242 1.27505C8.04714 2.07977 8.44945 3.28685 8.44945 4.29275C8.44945 5.29865 8.44945 4.89627 8.44945 5.09745C8.44945 5.29863 8.4495 5.70098 8.24832 5.90216C8.24832 6.10334 8.04711 6.50569 7.84593 6.70687C7.84593 6.90805 7.4436 7.10926 7.24242 7.31044C6.4377 8.11516 5.23062 8.51747 4.22472 8.51747Z" fill="var(--fill-0, #005798)"/>
</svg>
