<svg preserveAspectRatio="none" width="100%" height="100%" overflow="visible" style="display: block;" viewBox="0 0 9 9" fill="none" xmlns="http://www.w3.org/2000/svg">
<path id="Vector" d="M4.22485 8.51752C4.02367 8.51752 3.62126 8.51752 3.42008 8.51752C3.2189 8.51752 2.81649 8.51757 2.61531 8.31639C2.41413 8.31639 2.01185 8.11519 1.81067 7.91401C1.60949 7.91401 1.40833 7.51168 1.20715 7.3105C0.402433 6.50578 0 5.2987 0 4.2928C0 3.2869 0 3.68921 0 3.48803C0 3.28685 7.36712e-05 2.88445 0.201253 2.68327C0.201253 2.48209 0.402335 2.0798 0.603514 1.87862C0.603514 1.67744 1.00597 1.47629 1.20715 1.27511C1.20715 1.07393 1.60949 0.872651 1.81067 0.671471C2.01185 0.671471 2.21295 0.47039 2.61531 0.26921C2.81649 0.26921 3.2189 0.269136 3.42008 0.0679568C4.82833 -0.133223 6.23664 0.0680305 7.24254 1.27511C7.44372 1.47629 7.64487 1.67744 7.84605 1.87862C7.84605 2.0798 8.04726 2.28091 8.24844 2.68327C8.24844 2.88445 8.24839 3.28685 8.44957 3.48803C8.44957 3.68921 8.44957 4.09162 8.44957 4.2928C8.44957 5.49988 8.04726 6.50578 7.24254 7.3105C6.43782 8.11521 5.23074 8.51752 4.22485 8.51752Z" fill="var(--fill-0, #005798)"/>
</svg>
