<svg preserveAspectRatio="none" width="100%" height="100%" overflow="visible" style="display: block;" viewBox="0 0 158 93" fill="none" xmlns="http://www.w3.org/2000/svg">
<path id="Vector" d="M150.61 7.39335C148.8 5.78391 148.8 2.9674 150.61 1.35796C152.22 -0.452654 155.036 -0.452654 156.646 1.35796C158.456 2.9674 158.456 5.78391 156.646 7.39335C155.841 8.19807 154.634 8.80163 153.628 8.80163C152.622 8.80163 151.415 8.39932 150.61 7.5946M140.149 17.4523C138.54 15.6417 138.539 13.0264 140.35 11.4169C142.161 9.80751 144.776 9.80751 146.385 11.4169C147.995 13.2276 147.995 15.8429 146.385 17.4523C145.581 18.2571 144.575 18.6595 143.368 18.6595C142.161 18.6595 141.155 18.2571 140.149 17.2512M129.285 26.9078C127.676 25.0972 127.877 22.2807 129.687 20.8724C131.498 19.263 134.315 19.4642 135.723 21.2748C137.332 23.0854 137.131 25.9019 135.321 27.3102C134.516 27.9137 133.51 28.3161 132.504 28.3161C131.498 28.3161 130.09 27.7126 129.285 26.7067M117.818 35.9609C116.41 34.1503 116.611 31.3338 118.623 29.9255C120.433 28.5172 123.25 28.7185 124.658 30.7303C126.066 32.5409 125.865 35.3574 123.853 36.7656C123.049 37.3692 122.043 37.5703 121.238 37.5703C120.433 37.5703 118.623 36.9668 117.818 35.9609ZM106.15 44.2093C104.741 42.1975 105.345 39.5822 107.155 38.1739C109.167 36.7657 111.783 37.3692 113.191 39.1798C114.599 41.1916 113.996 43.807 112.185 45.2152C111.38 45.8188 110.576 46.0199 109.771 46.0199C108.363 46.0199 107.155 45.4164 106.15 44.2093ZM68.529 65.9367C67.5232 63.7237 68.529 61.3095 70.5408 60.1024C72.7538 59.0965 75.1678 60.1024 76.3749 62.1142C77.3808 64.3272 76.3749 66.9426 74.3631 67.9485C73.7595 68.1497 73.156 68.3509 72.3513 68.3509C70.7418 68.3509 69.3338 67.5461 68.529 65.9367ZM55.2511 71.7708C54.2452 69.5579 55.2511 66.9425 57.4641 66.1378C59.677 65.1319 62.2923 66.1379 63.0971 68.3509C64.103 70.5638 63.0971 72.978 60.8841 73.9839C60.2806 74.1851 59.677 74.3863 59.0735 74.3863C57.464 74.3863 55.8546 73.3803 55.0499 71.7708M41.9732 77.2027C41.1685 74.9897 42.1744 72.3744 44.3874 71.5697C46.6004 70.765 49.0145 71.7709 50.0204 73.9839C50.8251 76.1969 49.8193 78.611 47.6063 79.6169C47.0028 79.6169 46.6003 79.818 45.9968 79.818C44.1862 79.818 42.5767 78.8122 41.9732 77.0016M28.0919 81.8298C27.2872 79.6168 28.6953 77.2028 30.9083 76.3981C33.1213 75.5933 35.5355 76.8003 36.3402 79.2145C37.1449 81.4275 35.9379 83.8417 33.5238 84.6464C33.1214 84.6464 32.5178 84.8475 32.1155 84.8475C30.3049 84.8475 28.6954 83.6404 28.0919 81.8298ZM14.2104 85.6523C13.6069 83.4393 15.0152 81.0252 17.2281 80.4217C19.4411 79.8181 21.8553 81.2264 22.4589 83.4393C23.0624 85.6523 21.6542 88.0664 19.4412 88.67C19.0388 88.67 18.6364 88.67 18.234 88.67C16.4234 88.67 14.6128 87.4629 14.0093 85.4511M0.127866 88.8711C-0.475673 86.4569 1.13384 84.244 3.34681 83.6405C5.76097 83.0369 7.97389 84.6463 8.57743 86.8593C9.18097 89.2735 7.57158 91.4865 5.35861 92.09C4.95625 92.09 4.75507 92.09 4.35271 92.09C2.34091 92.09 0.530225 90.6818 0.127866 88.67" fill="var(--fill-0, #005798)"/>
</svg>
