<svg preserveAspectRatio="none" width="100%" height="100%" overflow="visible" style="display: block;" viewBox="0 0 9 9" fill="none" xmlns="http://www.w3.org/2000/svg">
<path id="Vector" d="M4.22485 8.51753C4.02367 8.51753 3.62126 8.51753 3.42008 8.51753C3.2189 8.51753 2.81661 8.51752 2.61543 8.31634C2.41425 8.31634 2.01185 8.11514 1.81067 7.91396C1.60949 7.91396 1.40833 7.51162 1.20715 7.31044C0.402433 6.50572 0 5.29865 0 4.29275C0 3.28685 0 3.68922 0 3.48804C0 3.28686 7.36712e-05 2.88452 0.201253 2.68334C0.201253 2.48216 0.402457 2.07975 0.603637 1.87857C0.603637 1.67739 1.00597 1.47623 1.20715 1.27505C1.20715 1.07387 1.60949 0.872719 1.81067 0.67154C2.01185 0.67154 2.21307 0.470336 2.61543 0.269156C2.81661 0.269156 3.2189 0.269144 3.42008 0.0679641C4.82833 -0.133215 6.23664 0.0679764 7.24254 1.27505C8.04726 2.07977 8.44957 3.28685 8.44957 4.29275C8.44957 5.29865 8.04726 6.50572 7.24254 7.31044C7.24254 7.31044 6.8402 7.71278 6.63903 7.91396C6.43785 7.91396 6.23662 8.11516 5.83426 8.31634C5.63308 8.31634 5.23067 8.51753 5.02949 8.51753C4.82831 8.51753 4.42602 8.51753 4.22485 8.51753Z" fill="var(--fill-0, #005798)"/>
</svg>
