<svg preserveAspectRatio="none" width="100%" height="100%" overflow="visible" style="display: block;" viewBox="0 0 68 84" fill="none" xmlns="http://www.w3.org/2000/svg">
<path id="Vector" d="M1.38419 7.41961C-0.426422 5.81018 -0.426373 2.99366 1.18306 1.38423C2.7925 -0.42639 5.60902 -0.426402 7.21845 1.18303C9.02907 2.79247 9.02902 5.60899 7.41958 7.21842C6.61486 8.22432 5.40784 8.6267 4.20076 8.6267C2.99368 8.6267 2.18891 8.22433 1.38419 7.41961ZM11.0409 16.6739C9.43148 15.0645 9.43148 12.2479 11.0409 10.6385C12.6504 9.02906 15.4669 9.02906 17.0763 10.6385C18.6857 12.2479 18.6857 15.0645 17.0763 16.6739C16.2716 17.4786 15.0645 17.8809 14.0586 17.8809C13.0527 17.8809 11.8456 17.4786 11.0409 16.6739ZM20.2951 26.3305C18.6857 24.5199 18.8868 21.9045 20.4963 20.2951C22.3069 18.6857 24.9222 18.8869 26.5316 20.4963C28.1411 22.3069 27.94 24.9222 26.3305 26.5317C25.5258 27.3364 24.5199 27.7388 23.514 27.7388C22.5081 27.7388 21.0998 27.3364 20.2951 26.3305ZM29.1471 36.5907C27.5376 34.78 27.9399 31.9635 29.7505 30.5553C31.5611 28.9458 34.3776 29.3482 35.7859 31.1588C37.3953 32.9694 36.9931 35.7859 35.1825 37.1942C34.3778 37.7977 33.3718 38.2001 32.3659 38.2001C31.36 38.2001 29.9516 37.5966 28.9457 36.5907M37.5965 47.052C36.1883 45.2413 36.5907 42.4248 38.4013 41.0166C40.2119 39.6083 43.0284 40.0107 44.4367 41.8213C45.8449 43.632 45.4425 46.4485 43.6319 47.8567C42.8272 48.4603 42.0224 48.6614 41.0165 48.6614C39.6082 48.6614 38.4012 48.0579 37.5965 46.8508M45.4426 57.9157C44.0343 55.9039 44.6378 53.2886 46.6496 51.8803C48.6614 50.4721 51.2767 51.0756 52.685 53.0873C54.0933 55.0991 53.4898 57.7145 51.478 59.1227C50.6733 59.7263 49.8684 59.9275 49.0637 59.9275C47.6554 59.9275 46.2473 59.3239 45.4426 58.1168M52.685 69.1817C51.4779 67.1699 52.0814 64.5546 54.0932 63.1463C56.105 61.9392 58.7203 62.5428 60.1285 64.5546C61.3356 66.5664 60.7322 69.1817 58.7204 70.59C57.9157 70.9924 57.3122 71.1935 56.5075 71.1935C55.0992 71.1935 53.6908 70.3888 52.8861 69.1817M59.5252 80.8502C58.3181 78.8384 59.1226 76.223 61.1344 75.016C63.1462 73.8089 65.7616 74.6136 66.9687 76.6254C68.1758 78.6372 67.3712 81.2525 65.3594 82.4596C64.7559 82.8619 63.9512 83.0632 63.3476 83.0632C61.7382 83.0632 60.3299 82.2584 59.5252 80.8502Z" fill="var(--fill-0, #005798)"/>
</svg>
