<svg preserveAspectRatio="none" width="100%" height="100%" overflow="visible" style="display: block;" viewBox="0 0 9 9" fill="none" xmlns="http://www.w3.org/2000/svg">
<path id="Vector" d="M4.22497 8.44949C3.01789 8.44949 2.01199 8.04718 1.20727 7.24247C0.402556 6.43775 0 5.23067 0 4.22477C0 3.21887 0.402556 2.0118 1.20727 1.20708C2.81671 -0.402359 5.63323 -0.402359 7.24266 1.20708C8.04738 2.0118 8.44969 3.21887 8.44969 4.22477C8.44969 5.23067 8.44969 4.82836 8.44969 5.02954C8.44969 5.23072 8.44974 5.633 8.24856 5.83418C8.24856 6.03536 8.04723 6.23659 7.84605 6.63895C7.84605 6.84013 7.44384 7.04129 7.24266 7.24247C6.43794 8.04718 5.23087 8.44949 4.22497 8.44949Z" fill="var(--fill-0, #005798)"/>
</svg>
