<svg preserveAspectRatio="none" width="100%" height="100%" overflow="visible" style="display: block;" viewBox="0 0 90 91" fill="none" xmlns="http://www.w3.org/2000/svg">
<g id="Group">
<path id="Vector" d="M19.026 17.1375C19.0072 17.1375 18.9885 17.1375 18.951 17.1L19.026 17.1375ZM88.7572 25.2375C87.7447 23.7375 86.1322 22.7437 84.3322 22.5187C82.5322 22.2937 80.7322 22.8562 79.401 24.0375C79.1572 24.2437 78.9322 24.45 78.7072 24.6562C78.576 24.7313 78.4635 24.8062 78.351 24.9187C78.1822 25.0687 78.0322 25.2187 77.8635 25.35L77.4697 25.7062C77.1322 26.0062 76.8322 26.25 76.626 26.4C76.4572 26.475 76.2885 26.5687 76.1385 26.7C75.7072 27.075 75.276 27.4313 74.8447 27.8063C74.6947 27.8625 74.5447 27.9562 74.3947 28.0687C73.551 28.7437 72.801 29.2687 72.1072 29.7375C72.1447 29.5875 72.1635 29.4375 72.201 29.2687C72.2947 28.6875 72.351 28.1438 72.351 27.6188C72.351 27.0938 72.351 27.4687 72.351 27.3937C72.3697 27.3 72.3885 27.1875 72.4072 27.075C72.4635 26.8312 72.4635 26.5875 72.4072 26.3438L72.3697 26.1937C72.426 25.875 72.4072 25.5562 72.2947 25.2375C72.2947 25.2 72.276 25.1812 72.2572 25.1437C72.2572 25.0875 72.2197 25.0312 72.201 24.9562C71.9197 24.15 71.4135 22.6312 70.3635 21.3C69.4822 20.0625 68.2822 19.125 67.401 18.5625C67.326 18.5062 67.251 18.45 67.176 18.3937C66.4822 17.9812 65.9197 17.7187 65.4697 17.5687C65.2822 17.5125 65.0947 17.475 64.9072 17.475C64.476 17.3437 64.2135 17.2687 64.026 17.2125C63.9322 17.1937 63.876 17.175 63.8572 17.175L63.7822 17.1375C63.3697 16.9687 62.9385 16.8563 61.926 16.7812C61.8885 16.7812 61.8322 16.7812 61.7947 16.7812C60.4635 16.7812 59.1135 17.0437 57.8947 17.5125C56.451 18.0562 55.1197 18.9375 54.0322 20.025C52.926 21.1312 52.0635 22.5 51.5385 23.9625C51.1822 24.9188 50.9572 25.9312 50.8822 27.0375C50.8635 26.9062 50.8072 26.7375 50.7697 26.6437C50.7135 26.4937 50.5635 26.1 50.301 25.65C49.9822 25.0313 49.551 24.45 49.2885 24.075C49.2135 23.925 49.1385 23.7937 49.026 23.6625C48.0697 22.5562 47.1135 21.8625 46.2697 21.375C46.3822 21.2438 46.476 21.1125 46.551 20.9625C46.7385 20.8687 46.9072 20.7562 47.0572 20.6062C47.1697 20.4937 47.2635 20.4 47.3572 20.2875C47.4885 20.2125 47.6197 20.1 47.7322 19.9875C48.2572 19.425 48.7447 18.7875 49.1947 18.075C49.2135 18.0375 49.2322 18 49.251 17.9625C49.8322 16.875 50.0385 16.1437 50.1697 15.6562C50.301 15.2062 50.3385 14.9438 50.3572 14.7188L50.4885 13.725C50.526 13.4812 50.5635 13.125 50.5822 12.675C50.6572 12.4687 50.676 12.2625 50.6572 12.0375C50.601 11.0812 50.5072 9.9375 50.1322 8.79375C50.0385 8.5125 49.8885 8.26875 49.6822 8.0625C49.4385 7.3875 49.101 6.61875 48.5197 5.7C48.501 5.6625 48.4822 5.625 48.4447 5.60625C48.3135 5.4375 48.1822 5.2875 48.0697 5.15625C48.051 5.1 48.0322 5.04375 48.0135 4.9875C47.9572 4.66875 47.826 4.35 47.601 4.0875C47.226 3.65625 46.926 3.31875 46.6447 3.09375L46.5697 3.0375C46.3447 2.83125 46.101 2.60625 45.8197 2.41875C45.4447 2.1375 45.0885 1.89375 44.676 1.6875C44.601 1.65 44.5447 1.6125 44.4697 1.575C44.2822 1.48125 44.0385 1.33125 43.7197 1.2L43.3822 1.05L43.1197 0.91875C43.0635 0.88125 42.9885 0.8625 42.9322 0.84375L42.0697 0.54375C41.7322 0.43125 41.3947 0.4125 41.076 0.4875C40.8885 0.43125 40.7197 0.39375 40.5135 0.35625C40.2885 0.31875 40.101 0.28125 39.9322 0.2625C39.576 0.1875 39.2947 0.15 39.051 0.1125H38.8635C38.7135 0.05625 38.5447 0.0375 38.376 0.01875C38.3385 0.01875 38.301 0.01875 38.2635 0.01875C38.0197 0.01875 37.7572 0 37.3822 0C36.7447 0 35.7135 0.09375 34.251 0.58125C34.026 0.65625 33.8197 0.76875 33.651 0.91875C33.3885 1.05 33.0697 1.2 32.7322 1.3875C32.076 1.3875 31.4572 1.78125 30.6135 2.45625C30.3322 2.6625 30.0885 2.90625 29.8635 3.1125C29.7697 3.20625 29.676 3.28125 29.5822 3.375C29.526 3.43125 29.4885 3.46875 29.4322 3.525C29.1885 3.7875 28.9635 4.03125 28.8322 4.18125C28.5697 4.44375 28.401 4.7625 28.3447 5.08125C27.6697 5.94375 27.0885 6.99375 26.6947 7.9875C26.0947 9.46875 25.926 10.8375 25.8885 11.2125C25.8885 11.25 25.8885 11.2875 25.8885 11.325C25.8697 12 25.8322 12.5812 26.0197 13.0687C26.0197 13.125 26.0197 13.1625 26.0197 13.2188C26.001 13.4062 26.001 13.6125 26.0197 13.8C25.701 13.6312 25.5885 13.5562 25.5697 13.5375C25.3072 13.2937 24.9885 13.05 23.5447 12.225C23.526 12.225 23.4885 12.1875 23.4697 12.1875L22.9635 11.925C22.851 11.8125 22.7385 11.7 22.5885 11.6063C22.476 11.5313 22.3822 11.475 22.3072 11.4375C22.0822 11.3063 21.801 11.1 21.501 10.8938L20.2822 10.0125C20.1885 9.88125 20.0572 9.76875 19.926 9.675C18.8385 8.85 17.5822 7.89375 16.6072 6.76875C16.4385 6.5625 16.2322 6.4125 16.026 6.31875L15.9135 6.20625C15.126 5.41875 14.301 4.48125 13.851 3.91875L13.4572 3.375C13.2322 3.05625 13.0072 2.8125 12.801 2.60625C12.4447 2.23125 12.0322 1.9125 11.5822 1.59375C11.4885 1.51875 11.376 1.4625 11.2635 1.425C11.0385 1.33125 10.8322 1.25625 10.6447 1.18125C9.83846 0.7125 8.61971 0.45 7.47596 0.4875C6.51971 0.50625 5.50722 0.75 4.56972 1.18125C4.47597 1.18125 4.40097 1.21875 4.30722 1.2375C4.06347 1.3125 3.42597 1.5375 2.52597 2.2875C2.28222 2.49375 2.11347 2.7375 2.00097 3.01875C1.94472 3.09375 1.88847 3.15 1.83222 3.225C1.79472 3.2625 1.28847 3.88125 0.932216 4.65C0.725966 4.8375 0.557216 5.08125 0.407216 5.4C0.369716 5.49375 0.332216 5.5875 0.313466 5.68125C-0.0427842 6.99375 -0.0990342 8.38125 0.163466 9.54375C0.463466 11.0625 1.26972 12.1875 1.62597 12.6C1.71972 12.7125 1.83222 12.825 1.96347 12.9187C2.05722 13.0312 2.13222 13.1437 2.18847 13.2375C2.28222 13.3875 2.37597 13.5 2.43222 13.6125C2.58222 14.0062 2.80722 14.3813 2.97597 14.625C2.99472 14.6625 3.01347 14.6812 3.03222 14.7C3.53847 15.3937 4.04472 16.0875 4.60722 16.5375C4.86972 16.875 5.15097 17.2125 5.43222 17.5312C5.50722 17.7188 5.60097 17.9062 5.75097 18.0938C5.76972 18.1313 5.80722 18.1687 5.82597 18.1875C7.19472 19.8 7.73846 20.2875 8.13221 20.6437L8.24472 20.7375C8.26347 20.7562 8.28221 20.775 8.31971 20.7937C8.61971 21.0375 8.88222 21.2625 9.87597 22.2C9.98847 22.5 10.1947 22.8375 10.551 23.2125C10.5885 23.25 10.6072 23.2875 10.6447 23.3062C10.851 23.4937 11.076 23.6812 11.2822 23.8687C11.3947 24.075 11.5635 24.2812 11.7885 24.4875C11.8822 24.5812 11.9572 24.6563 12.0697 24.7125C12.2385 24.825 12.9135 25.3875 13.4197 25.8L13.8885 26.1937C14.5447 26.7187 15.651 27.5812 15.9322 27.7687C16.0072 27.825 16.0822 27.8625 16.176 27.9C16.2697 27.9375 16.3447 27.975 16.4385 27.9938C16.626 28.1063 16.7947 28.2187 16.9822 28.35L17.1697 28.4625C17.5822 28.7438 18.0322 29.025 18.5947 29.3625C18.801 29.4937 19.026 29.6437 19.2697 29.7937C19.3635 29.9062 19.476 30.0187 19.626 30.1312C19.7572 30.2812 19.8885 30.4125 20.0572 30.5062C20.2447 30.6187 20.3947 30.7125 20.526 30.7875C20.526 39.3187 20.526 48.7875 20.751 55.5563C20.676 56.5688 20.6572 58.2188 20.6197 60.675L20.5822 63.6375C20.5822 63.8625 20.6197 64.0688 20.676 64.2563C20.676 64.3688 20.676 64.4625 20.676 64.575L20.5635 66.5438C20.5072 68.775 20.5822 71.55 20.6385 73.7625V74.325C20.6385 74.4188 20.6385 74.475 20.6385 74.5312C20.601 74.6625 20.5822 74.7938 20.5822 74.925C20.526 76.5188 20.5822 77.0813 20.6385 77.5688C20.6385 77.7188 20.676 77.85 20.676 78.0188L20.601 79.3313C20.601 79.5188 20.601 79.6875 20.6572 79.8563L20.6947 79.9688C20.7322 81.6562 20.6947 83.2875 20.676 83.9062C20.6197 84.0938 20.5822 84.3 20.601 84.5063C20.601 84.8438 20.6197 85.2188 20.676 85.575C20.676 86.0438 20.6572 86.625 20.6572 87.3188C20.6572 88.1625 21.051 89.0063 21.6885 89.6063C22.3072 90.1688 23.1135 90.4875 23.901 90.4875C24.6885 90.4875 24.0135 90.4875 24.0697 90.4875C25.0072 90.45 25.926 90 26.4885 89.2875C26.7885 88.9125 27.0135 88.4813 27.126 88.0125C27.1822 87.7688 27.2197 87.525 27.2197 87.2625V80.4563C27.201 80.2875 27.1635 80.1375 27.126 79.9875C27.2385 76.65 27.2197 72.5625 27.201 68.25C27.201 67.7812 27.201 67.2938 27.201 66.825L27.426 67.0688C27.5197 67.1813 27.6697 67.3313 27.951 67.6125C28.026 67.6875 28.101 67.7625 28.176 67.8563C28.2697 68.0438 28.3822 68.2125 28.5322 68.3438C29.0385 68.8312 30.0135 69.675 30.9135 70.3125C31.4572 70.7062 32.0572 71.1188 32.6197 71.3625C32.9197 71.55 33.2385 71.7188 33.576 71.9062C33.5947 71.9062 33.6135 71.925 33.651 71.9438L33.4635 83.1562C33.426 83.4187 33.426 83.6813 33.426 83.8875V86.4375C33.426 86.6062 33.426 86.775 33.426 87.0188C33.4822 87.4313 33.6135 87.8438 33.8197 88.2C34.0447 88.5938 34.3072 88.8375 34.4385 88.9688C34.5322 89.0625 34.626 89.1375 34.7385 89.2125C35.6197 89.775 36.651 89.8688 37.6447 89.4563C38.3572 89.1563 38.901 88.6313 39.2197 87.9563C39.4072 87.5813 39.501 87.15 39.5197 86.775L39.5947 84.9C39.5947 84.7125 39.5947 84.5063 39.5572 84.3188C39.651 82.275 39.6697 80.025 39.7072 77.6438C39.726 76.125 39.7447 74.5688 39.7822 73.0125C39.9135 72.6188 39.9135 72.2063 39.9135 71.925V70.2375C39.951 69.9 39.9697 69.1313 39.5385 68.3813C39.1447 67.6875 38.4885 67.1625 37.7197 66.9188L37.0822 66.7313C36.726 66.6 36.4072 66.45 36.1072 66.3C35.601 66.0188 35.076 65.7 34.551 65.325C34.4572 65.1563 34.326 65.0062 34.176 64.875C34.0072 64.725 33.876 64.6125 33.7822 64.5375C33.576 64.275 33.351 64.0688 33.2197 63.9563C33.0322 63.7875 32.826 63.675 32.6197 63.6C31.9072 62.8875 31.1385 62.1 30.4447 61.275C30.051 60.8063 29.6947 60.375 29.3572 59.9625C29.2447 59.8313 29.1885 59.7 29.151 59.5875C29.1322 59.5313 29.1135 59.475 29.076 59.4C29.076 59.3625 29.076 59.325 29.0947 59.3063C29.1135 59.2688 29.151 59.2313 29.1697 59.175C29.2635 59.0063 29.376 58.8938 29.526 58.8C29.6572 58.725 29.751 58.7063 29.8635 58.6875C29.976 58.6875 30.0697 58.6875 30.1635 58.6875C30.1635 58.6875 30.1822 58.7063 30.201 58.725C30.3135 58.8375 30.4822 59.0063 30.7447 59.3438C31.1197 59.8312 31.626 60.4125 32.3197 61.1063C33.4635 62.25 34.7572 63.2625 35.0947 63.4688C35.5447 63.7875 36.0885 64.1625 36.6322 64.3688C37.3635 64.7813 37.551 64.875 37.6822 64.9688C37.926 65.1562 38.1885 65.3063 38.8447 65.5875C39.7635 65.9438 40.776 66.225 42.1072 66.5063C42.1447 66.5063 42.1635 66.5063 42.201 66.5063C42.8572 66.6 43.6447 66.7125 44.4697 66.75C44.6947 66.8625 44.9385 66.9187 45.201 66.9375C47.301 67.0125 49.2697 66.75 51.1635 66.1125C51.5572 65.9813 51.9322 65.85 52.2885 65.7C55.1197 64.65 57.726 62.8688 60.0322 60.3938C60.276 60.3 60.501 60.1313 60.6885 59.925C60.8385 59.7563 60.9885 59.5875 61.1385 59.3813L61.401 59.0625C61.4947 58.95 61.5885 58.8563 61.7385 58.7812C61.8885 58.6875 62.2635 58.6688 62.526 58.8563C62.751 59.0063 62.9197 59.3438 62.8635 59.625C62.8635 59.7188 62.8072 59.85 62.6197 60.075C62.3385 60.4313 62.0572 60.7875 61.7947 61.0875C61.6635 61.2563 61.551 61.4438 61.476 61.6313C61.326 61.8 61.1572 62.0063 60.9697 62.2313C60.5197 62.775 59.9572 63.3563 59.5447 63.7688C59.2635 64.0688 59.0947 64.2375 58.9635 64.3875C58.4385 64.875 57.9135 65.3063 57.4072 65.6813C57.1447 65.775 56.9197 65.8875 56.4135 66.1875C56.0197 66.4312 55.6635 66.6188 55.2697 66.7875C55.1385 66.8438 54.951 66.9188 54.7447 66.975L54.4072 67.0875C54.0322 67.2 53.6947 67.3688 53.3947 67.6125C52.7947 68.1 52.4197 68.85 52.3635 69.6188C52.3635 69.675 52.3635 69.7313 52.3635 69.7688L52.5322 77.4375C52.5322 77.55 52.5135 77.6625 52.5135 77.775L52.701 84.1313L52.776 86.7375C52.8135 87.5813 53.2447 88.3875 53.8822 88.8375C54.5385 89.325 55.3822 89.5125 56.1885 89.325C56.976 89.1563 57.6322 88.6688 58.0072 87.975C58.2322 87.6 58.3072 87.225 58.3447 86.9062C58.3822 86.7562 58.4197 86.5875 58.401 86.4188C58.401 84.75 58.3447 84.3 58.2697 83.8875V82.7625C58.2697 82.6125 58.2697 82.4625 58.2697 82.3125C58.2135 81.1125 58.1947 79.9688 58.176 78.7313C58.176 77.6625 58.1385 76.5563 58.101 75.375C58.1197 75.2625 58.1385 75.1312 58.1197 75L58.026 71.6625C58.2885 71.5313 58.551 71.4 58.776 71.2688C58.851 71.2313 58.9072 71.1938 58.9822 71.1375C59.0197 71.1375 59.0385 71.1 59.076 71.0813C59.2447 71.0438 59.4135 70.9688 59.5635 70.875C60.8385 70.1063 61.4947 69.5063 62.0385 69.0188L62.151 68.9062C62.1697 68.9062 62.1885 68.8688 62.2072 68.85L62.7135 68.3438C63.2197 67.875 63.726 67.3688 64.2135 66.8813C64.4385 66.6563 64.7197 66.3563 64.9635 66.1125C65.076 66 65.1697 65.8875 65.2447 65.8313C65.301 65.775 65.3572 65.7375 65.3947 65.6813C65.4322 65.6438 65.4885 65.5875 65.5447 65.5125L65.7697 65.25C65.7697 65.2312 65.8072 65.2125 65.8072 65.1938L65.676 74.8875V86.5875C65.676 88.1063 66.9135 89.325 68.4322 89.325C69.951 89.325 71.1885 88.1063 71.1885 86.5875V82.7438L71.4697 51.75V45.4875C77.6197 42.9375 84.4822 37.2 88.0635 32.8125C89.9572 30.4875 90.201 27.4875 88.6447 25.1625" fill="var(--fill-0, white)"/>
<path id="Vector_2" d="M87.4819 26.2499C86.7694 25.1812 85.6256 24.4687 84.3506 24.3187C83.0756 24.1499 81.8006 24.5437 80.8444 25.3874C80.0006 26.1374 79.2131 26.8312 78.4819 27.4499C78.6319 27.3187 78.7631 27.1874 78.9131 27.0562C78.0881 27.7687 77.3006 28.3687 77.5819 28.0499C76.9819 28.5749 76.3631 29.0999 75.7256 29.6062L75.7631 29.4562C74.4131 30.5062 73.1944 31.3687 71.9194 32.0812C71.6006 32.2687 71.2819 32.4187 70.9444 32.5874C70.6069 32.7374 70.3819 32.8499 70.0819 32.9437C69.8006 33.0562 69.5006 33.1499 69.2006 33.2249C69.0506 33.2624 68.8819 33.2999 68.7319 33.3374C68.7131 33.3374 68.6944 33.3374 68.7319 33.3374L68.7694 33.2999L68.8444 33.2062C68.9006 33.1499 68.9569 33.0937 69.0131 33.0187C69.2944 32.6999 69.5756 32.2874 69.8194 31.8187C69.5756 32.1937 69.2756 32.5874 68.9006 33.0187C69.2569 32.5687 69.5756 32.0999 69.8381 31.5562C70.0444 31.1437 70.1944 30.7312 70.3256 30.2999C70.3631 30.2062 70.4006 30.0937 70.4194 29.9999C70.4194 29.9437 70.4569 29.9062 70.4569 29.8499C70.4569 29.7937 70.4756 29.7374 70.4944 29.6812C70.5506 29.4562 70.6069 29.2312 70.6444 28.9874C70.6444 28.9874 70.6444 28.9499 70.6444 28.9312C70.7194 28.4812 70.7569 28.0312 70.7569 27.5812C70.7569 27.1312 70.7569 27.3562 70.7569 27.2624C70.7569 27.1312 70.7569 26.9999 70.7381 26.8687C70.7381 26.8124 70.7381 26.7374 70.7381 26.6812C70.7381 26.5687 70.7381 26.4749 70.7194 26.3624C70.8694 27.4687 70.8319 26.6624 70.8881 26.6437C70.8319 26.3624 70.7756 26.0624 70.7194 25.7624C70.6256 25.4624 70.5694 25.1249 70.4381 24.8062C70.6069 25.1437 70.7381 25.5187 70.8694 25.8749C70.6631 25.3499 70.2319 23.6624 69.1631 22.3312C68.1881 20.9249 66.6881 20.0062 66.1819 19.7624C66.2944 19.7999 66.4069 19.8749 66.5006 19.9124C65.6944 19.4437 65.2819 19.2937 65.1319 19.2562C64.9819 19.1999 65.0944 19.2562 65.2444 19.3312C65.3944 19.3874 65.5631 19.4812 65.5444 19.4999C65.5444 19.4999 65.3569 19.4437 64.7569 19.2374C63.7444 18.9187 63.5381 18.8812 63.3694 18.8062C63.2006 18.7312 63.0506 18.6374 62.0381 18.5624C61.0819 18.5624 59.9381 18.7312 58.7944 19.1624C57.6506 19.5937 56.5069 20.3062 55.5881 21.2624C54.6506 22.2187 53.9381 23.3624 53.5069 24.5624C53.0569 25.7624 52.9256 26.9812 52.9256 28.0499C53.0006 29.6249 53.5444 31.2374 54.4819 32.5687C54.9319 33.2249 55.4756 33.8249 56.0756 34.3312C56.4131 34.6124 56.6006 34.7437 56.8256 34.8937C57.0694 35.0437 57.3131 35.1749 57.5756 35.3062C57.7631 35.3812 57.5381 35.3812 57.4819 35.3999C57.3881 35.4187 57.3131 35.4374 57.2194 35.4562C56.0756 35.6999 56.0944 35.6624 56.1131 35.6249C56.1319 35.5874 56.1694 35.5499 54.7069 35.9249C55.0069 35.7937 54.5944 35.8499 54.3131 35.8687C54.1256 35.9437 53.1881 36.2249 52.3256 36.5999C51.0881 37.1624 50.0944 37.9499 51.3319 37.2187C51.1819 37.2937 51.0319 37.4062 50.8819 37.4999C50.7319 37.6124 50.6756 37.6312 50.5819 37.7062C50.4131 37.8374 50.2256 37.9874 50.0756 38.1562L50.0381 38.1937C50.0381 38.2124 50.0194 38.2124 50.0194 38.1937V38.0812V37.8562V37.4062C50.0006 36.9937 49.9819 36.5812 49.9631 36.1499C49.9256 35.1937 49.8881 34.2374 49.8694 33.2624C49.8319 32.2874 49.7944 31.3124 49.7569 30.3374C49.7006 29.3437 49.4756 28.3499 49.1006 27.4312C49.3819 28.1624 49.5319 28.6312 49.5881 28.7624C49.6444 28.8937 49.6444 28.6499 49.4756 28.0124C49.1006 26.9812 48.3881 25.6124 47.1319 24.4124C46.5131 23.8124 45.7631 23.2687 44.9194 22.8374C44.4881 22.6312 44.0569 22.4437 43.6256 22.2562C43.2881 22.1062 42.9694 21.9749 42.6319 21.8249C42.5756 21.8624 42.7631 21.9562 42.9131 22.0499C42.9881 22.0874 43.0819 22.1437 43.1381 22.1812C43.1944 22.2187 43.1756 22.2374 43.0819 22.2187C42.8756 22.1437 42.5944 22.0312 42.2944 21.9187C42.1444 21.8624 41.9756 21.7874 41.7881 21.7312C41.6944 21.6937 41.6194 21.6562 41.5256 21.6187C41.4506 21.5812 41.2631 21.5437 41.4319 21.5062C41.4881 21.4874 41.5631 21.4687 41.6381 21.4499C41.9756 21.3749 42.1819 21.3937 42.5381 21.2812C42.6131 21.2624 42.7256 21.2249 42.8381 21.1874C42.9506 21.1499 43.0256 21.1124 43.2881 20.9999C43.7194 20.7937 44.3006 20.4562 44.9756 19.9124C44.7694 20.1562 44.1506 20.6437 43.4006 21.0562L42.9694 21.2812C42.8756 21.3187 42.7819 21.3562 42.7069 21.3937C42.5381 21.4687 42.3694 21.5062 42.2569 21.5437H42.2194C42.2194 21.5624 42.2381 21.5624 42.2569 21.5812C42.2944 21.5812 42.3131 21.5999 42.3319 21.6187C42.3881 21.6187 42.4069 21.6374 42.4444 21.6562C42.5006 21.6562 42.4819 21.6562 42.4444 21.5999C42.6694 21.6562 42.9319 21.7499 43.1756 21.8437C43.5506 21.9937 43.9444 22.1624 44.3569 22.3312C44.7881 22.5187 45.2569 22.7437 45.6881 23.0062C46.5506 23.5312 47.3006 24.2249 47.8444 24.8812C48.3881 25.5374 48.7256 26.1374 48.8756 26.4749C49.2881 27.1687 49.3631 27.4124 49.3444 27.3187C49.3069 27.2437 49.1756 26.8687 48.9506 26.4562C48.5194 25.5937 47.6569 24.5999 47.9006 24.8062C47.0006 23.7749 46.1381 23.1749 45.1069 22.6124C44.5631 22.3499 44.0194 22.1437 43.4006 21.8812C43.3069 21.8437 43.2131 21.8062 43.1194 21.7687C43.0631 21.7687 43.0256 21.7312 42.9694 21.7124C42.9131 21.6937 42.8569 21.6749 42.8006 21.6562L42.7069 21.6187C42.6881 21.6187 42.6131 21.5999 42.6694 21.5812C42.7256 21.5624 42.8006 21.5437 42.8756 21.5062C42.8381 21.5062 42.6881 21.5062 42.6131 21.5249C42.5381 21.5249 42.5381 21.5249 42.9131 21.3562C42.9881 21.2999 43.5319 21.0374 43.8506 20.8124C44.2069 20.6062 44.4881 20.3812 44.7506 20.1937C45.2756 19.7999 45.6694 19.4437 45.9694 19.1437C46.5881 18.5437 46.9256 18.1687 47.2069 17.7562C46.9069 18.2437 46.4194 18.8812 46.0069 19.3124C46.9444 18.3749 47.4131 17.5874 47.8069 16.7624C48.2006 15.9374 48.5381 15.0562 48.7631 13.6687C48.8944 13.2937 48.8194 14.4374 48.3319 15.7124C47.8819 16.9874 46.9631 18.2812 46.6631 18.7124C47.1319 18.2062 47.5444 17.6624 47.9006 17.0812C48.4256 16.1062 48.5756 15.4874 48.6881 15.1124C48.8006 14.7374 48.8006 14.5874 48.8194 14.4187C48.8381 14.2687 48.8569 14.0999 48.9131 13.7062C48.9506 13.3124 49.0819 12.6562 49.0069 11.5312L49.1006 12.0749C49.0444 11.1374 48.9506 10.1999 48.6694 9.29994C48.6319 9.29994 48.6319 9.43119 48.7069 9.88119C48.7631 10.3124 48.8944 11.0624 48.9131 12.2437C48.8756 11.8499 48.8194 11.5312 48.8006 11.1937C48.7631 10.8562 48.6881 10.5187 48.6506 10.1249C48.4631 9.33744 48.2569 8.23119 47.2631 6.61869C46.9069 6.13119 47.1131 6.46869 47.4131 6.93744C47.7131 7.40619 47.9944 8.08119 47.9756 8.11869C48.0131 8.30619 47.7694 7.79994 47.3756 7.08744C46.9819 6.37494 46.2694 5.51244 45.6131 4.85619C45.0694 4.33119 44.6756 4.04994 44.4319 3.86244C44.1881 3.65619 44.0756 3.59994 44.0194 3.52494C43.8881 3.41244 43.9819 3.41244 43.4569 3.05619C43.7006 3.20619 44.3756 3.56244 44.8631 3.95619C45.3694 4.33119 45.7256 4.74369 45.6319 4.66869C46.3256 5.32494 46.5694 5.60619 46.6256 5.62494C46.6819 5.66244 46.5506 5.45619 46.3819 5.23119C46.0256 4.78119 45.5756 4.21869 46.5131 5.19369C46.2131 4.85619 45.9506 4.57494 45.7069 4.34994C45.4631 4.12494 45.2756 3.93744 45.0694 3.80619C44.6944 3.52494 44.4319 3.35619 44.1694 3.22494C43.9069 3.09369 43.6631 2.94369 43.3069 2.79369C43.1944 2.73744 43.0631 2.68119 42.9319 2.62494C42.9881 2.66244 43.0444 2.68119 43.0819 2.69994C43.2881 2.79369 43.2881 2.81244 43.2319 2.81244C43.1194 2.79369 42.7444 2.66244 43.1006 2.86869C42.5194 2.60619 42.0131 2.47494 41.6006 2.32494C41.1694 2.23119 40.8131 2.13744 40.5131 2.08119C39.9131 1.98744 39.5194 1.89369 39.1256 1.83744C38.9381 1.81869 38.7319 1.78119 38.5069 1.74369C38.2819 1.74369 38.0381 1.74369 37.7381 1.74369C37.1381 1.74369 36.3131 1.83744 35.1506 2.23119C35.6756 2.13744 34.1006 2.68119 33.0506 3.46869C32.5256 3.84369 32.0944 4.21869 31.9631 4.36869C31.8506 4.51869 32.0006 4.40619 32.7319 3.93744C31.7944 4.61244 30.8194 5.66244 30.1819 6.63744C30.5006 6.09369 30.1631 6.48744 29.9381 6.84369C29.7131 7.18119 29.5256 7.40619 30.0881 6.41244C29.7694 6.89994 29.4694 7.40619 29.2256 7.94994C29.5444 7.12494 29.9944 6.35619 30.5006 5.62494C29.8444 6.35619 29.1319 7.48119 28.6819 8.60619C28.2319 9.73119 28.0631 10.8187 28.0069 11.3437C27.9506 12.6374 28.0444 12.4312 28.0444 12.2812C28.0444 12.2062 28.0631 12.1499 28.0819 12.2812C28.1006 12.4312 28.0819 12.7687 28.1944 13.5187C28.0256 12.4687 28.1006 14.3437 28.6069 15.5999C28.2131 14.3249 28.3069 14.2874 28.4569 14.7937C28.5506 15.0374 28.6819 15.4124 28.8506 15.8249C28.9444 16.0312 29.0381 16.2374 29.1319 16.4249C29.1881 16.5562 29.2069 16.5749 29.2444 16.6312C29.2631 16.6687 29.3006 16.7249 29.3194 16.7624C29.4319 16.9499 29.5444 17.1187 29.6194 17.2499L29.6756 17.3249C29.6944 17.3437 29.6194 17.3062 29.6006 17.2874C29.5444 17.2499 29.4694 17.2312 29.4131 17.2124C29.3006 17.1562 29.2069 17.1187 29.1506 17.0812C29.0194 17.0062 29.0006 16.9687 29.0194 16.9687C29.0944 16.9687 29.1506 16.9687 29.1694 16.9687C29.1694 16.9687 29.1881 16.9687 29.1881 16.9499H29.1694C29.1506 16.9499 29.1319 16.9312 29.0944 16.9124C29.0381 16.8749 29.0194 16.8374 28.9631 16.8374C28.9631 16.8374 28.9631 16.8374 28.9256 16.8374C28.8506 16.8187 28.7756 16.7812 28.6819 16.7624C28.4944 16.7062 28.3069 16.6499 28.1006 16.5749C27.6881 16.4624 27.2756 16.2937 26.9944 16.2187C26.2819 15.8999 25.7006 15.5812 25.2319 15.3187C24.7631 15.0562 24.4069 14.8499 24.1819 14.6999C24.9131 15.0937 25.6444 15.4499 26.3944 15.8062C23.5069 14.3062 25.8319 15.3749 22.9444 13.7249L22.1756 13.3312C21.7444 13.0499 21.5194 12.8437 21.6881 12.9374C21.4256 12.7687 21.0694 12.5249 20.6756 12.2624C20.1694 11.8874 19.6256 11.4749 19.2881 11.2499L19.1569 11.0624C18.0506 10.2374 16.6631 9.16869 15.5569 7.89369C15.9694 8.41869 16.2694 8.71869 16.6819 9.07494C17.0944 9.44994 17.6006 9.89994 18.5006 10.6874C19.0444 11.1937 18.5569 10.8562 17.9194 10.3124C17.2631 9.76869 16.4756 9.03744 16.2694 8.84994C16.3819 8.84994 15.7256 8.23119 14.9381 7.42494C14.1506 6.61869 13.2506 5.60619 12.7256 4.94994C12.5756 4.74369 12.4444 4.55619 12.3131 4.36869C12.1631 4.16244 11.9944 3.97494 11.8444 3.80619C11.5256 3.46869 11.1881 3.22494 10.9069 3.03744C10.6819 2.94369 10.4381 2.84994 10.1944 2.79369C9.91311 2.56869 8.97561 2.21244 7.85061 2.26869C6.70686 2.28744 5.45062 2.77494 4.58812 3.39369C5.01937 3.05619 5.22562 2.92494 5.13187 2.94369C5.03812 2.96244 4.64436 3.13119 4.04437 3.63744C4.45686 3.31869 4.53187 3.33744 4.38187 3.46869C4.23187 3.61869 3.89437 3.93744 3.59437 4.33119C2.93812 5.11869 2.60062 6.26244 2.75062 5.99994C2.43187 6.88119 2.41312 7.31244 2.37562 7.40619C2.35687 7.51869 2.31937 7.31244 2.35687 7.03119C2.35687 6.46869 2.65687 5.58744 2.41312 6.11244C2.15062 7.04994 2.07562 8.15619 2.30062 9.14994C2.48812 10.1437 3.03187 10.9687 3.36937 11.3812C3.20062 11.0999 3.08812 10.9124 3.01312 10.7624C2.93812 10.5937 2.88187 10.5187 2.88187 10.4812C2.86312 10.4062 2.93812 10.5374 3.06937 10.7624C3.35062 11.1562 3.81937 11.8687 3.98812 12.0749C5.75061 14.7187 3.63187 11.6812 4.85062 13.5749C5.63812 14.6437 6.76311 15.9562 5.58187 14.2874C6.63186 15.8062 8.05687 17.3249 9.40687 18.8999C9.66936 19.2374 8.97562 18.5437 8.37562 17.8499C7.75687 17.1562 7.19436 16.4812 7.55061 16.9687C8.97561 18.6562 9.40686 18.9937 9.80061 19.3312C10.1944 19.6499 10.5506 19.9687 12.0319 21.3749C10.8131 20.1187 12.1069 21.2062 13.6069 22.4624C15.2756 23.9624 14.9194 23.6249 14.2631 23.1187C13.6256 22.5749 12.7069 21.8249 13.3069 22.4249C13.7569 22.8187 14.2069 23.2124 14.6756 23.5874C15.5944 24.4312 14.5069 23.6812 13.4569 22.8187C12.3881 21.9937 11.3944 21.0562 12.2006 21.9374C12.6881 22.3874 13.1944 22.7812 13.7006 23.2124C13.3444 22.9687 12.8194 22.6124 13.4006 23.1749C13.6069 23.3062 14.4881 24.0374 15.3694 24.7499C16.2506 25.4437 17.1319 26.1374 17.2819 26.2312C17.6569 26.3999 16.0069 25.2937 16.2881 25.4249C17.1131 26.0624 17.7694 26.4562 18.5194 26.9437C19.2694 27.4312 20.1506 27.9749 21.5006 28.8374C19.9444 27.9937 22.0069 29.2874 21.3694 28.9687C22.0444 29.3812 22.1569 29.4187 22.3444 29.5124C22.4006 29.5312 22.4381 29.5499 22.5131 29.5874C22.5506 29.5874 22.5881 29.6249 22.6256 29.6437C22.6256 29.6437 22.6631 29.6437 22.6819 29.6624C22.6819 29.6812 22.7944 29.6812 22.7756 29.7562C22.7756 29.8874 22.7756 30.0187 22.7756 30.2062L22.7194 29.9624C22.7194 38.2124 22.7194 48.5062 22.9444 55.5937C22.8506 56.9062 22.8506 59.5499 22.7756 63.6749C22.8131 61.8562 22.8694 63.5999 22.8881 64.6312L22.7756 66.5999C22.7194 69.0187 22.8131 72.1499 22.8694 74.3812C22.8506 74.7749 22.8131 74.8874 22.7944 74.9999C22.7194 77.1374 22.8506 77.2124 22.8881 78.0374L22.8131 79.4437L22.8881 79.7437C22.9256 81.8999 22.9069 84.7312 22.7944 84.4499C22.8131 85.2937 22.8506 86.1187 22.8694 85.0499C22.8694 85.5937 22.8319 86.3249 22.8319 87.2812C22.8319 87.9937 23.5256 88.7249 24.3694 88.6687C24.7819 88.6687 25.1944 88.4624 25.4569 88.1249C25.5881 87.9562 25.6819 87.7687 25.7381 87.5624C25.7569 87.4499 25.7756 87.3562 25.7756 87.2437V87.0187C25.7756 84.8062 25.7756 82.3874 25.7569 80.4562C25.7194 82.2749 25.6819 82.1249 25.6069 82.2749C25.4756 81.7124 25.6256 81.4124 25.5506 79.8562C25.6069 79.8187 25.6444 78.0749 25.6819 79.9499C25.8506 74.9249 25.7194 67.9312 25.7381 61.5749V61.6124C25.8881 61.9124 26.0569 62.1749 26.2444 62.4374C26.4319 62.6999 26.6194 62.9062 26.8069 63.1499C27.0319 63.4124 27.2569 63.6749 27.4819 63.9374C27.3506 63.7874 27.3881 63.8062 27.6506 64.1062C27.6506 64.1437 27.7256 64.2374 27.8194 64.3499C28.2694 64.8749 28.7381 65.3812 29.2256 65.9062C29.2256 65.9062 29.2256 65.9062 29.1881 65.8874C28.7006 65.3812 28.2506 64.8937 27.9319 64.5187C28.1569 64.7812 28.4569 65.1374 28.7944 65.5124C28.9069 65.6249 29.0194 65.7562 29.1319 65.8687C29.1694 65.9249 29.3381 66.0937 29.5819 66.3374C29.9569 66.7312 30.3319 67.0874 30.5756 67.3312L30.1631 67.0499C30.5944 67.4812 31.4944 68.2499 32.3194 68.8312C33.1444 69.4124 33.8944 69.8062 33.8569 69.7687C34.1381 69.9562 34.4569 70.1249 34.7944 70.2937C34.9631 70.3687 35.1319 70.4624 35.3006 70.5374C35.4881 70.6312 35.5444 70.6499 35.6756 70.7062L35.8444 70.7812V70.9312C35.8444 71.0812 35.8444 71.2312 35.8256 71.3812C35.8256 71.7749 35.8069 72.1874 35.7881 72.5999C35.7506 74.2499 35.7131 75.9562 35.6756 77.5874C35.6381 80.4374 35.6006 82.9874 35.5819 84.3562C35.5819 83.3437 35.5444 83.1187 35.5819 83.8499C35.5819 84.6749 35.5819 85.5562 35.5819 86.2499C35.5819 86.4374 35.5819 86.5499 35.5819 86.7749C35.6006 86.9624 35.6756 87.1312 35.7506 87.2437C35.9006 87.5062 36.0694 87.5999 36.1069 87.6562C36.5756 87.9562 37.0069 87.8999 37.3069 87.7687C37.6256 87.6374 37.8319 87.4312 37.9819 87.1312C38.0569 86.9812 38.0944 86.8124 38.0944 86.6249C38.0944 86.4749 38.1131 86.3249 38.1319 86.1562C38.1319 85.7999 38.1694 85.3499 38.1881 84.7312C38.1881 84.6937 38.1506 84.4874 38.1131 84.7499C38.3194 80.6249 38.2444 75.4499 38.4319 70.5374C38.4319 70.9499 38.4694 71.5124 38.4881 71.8874C38.4881 71.5312 38.4881 71.1937 38.4881 70.8374V70.1062C38.4881 69.8999 38.5256 69.5062 38.3381 69.2062C38.1694 68.9062 37.9069 68.6812 37.5881 68.5874L36.8944 68.3812C36.4631 68.2312 36.0319 68.0437 35.6381 67.8374C34.0069 66.9749 32.6006 65.7937 31.3069 64.5562C31.5881 64.7812 31.5319 64.6874 32.2069 65.2874C31.2506 64.3874 30.2756 63.3374 29.4694 62.3999C29.0569 61.9312 28.6819 61.4812 28.3819 61.0874C28.0631 60.7312 27.9131 60.3749 27.8194 60.0937C27.9131 60.5062 28.0444 60.6937 28.1006 60.7874C28.1569 60.8812 28.1569 60.8812 28.1569 60.8437C28.1569 60.8062 28.0819 60.6937 28.4381 61.1624C29.0006 61.9312 28.7194 61.6687 28.1944 61.0312C27.9506 60.7312 27.7069 60.2437 27.6694 59.7374C27.6131 59.2124 27.7444 58.6874 27.9319 58.3124L27.9694 58.2749C28.2694 57.7124 28.6631 57.3937 29.0006 57.1874C29.3569 56.9812 29.6756 56.8874 30.0131 56.8312C30.3506 56.7937 30.6881 56.7937 31.0819 56.9062C31.4756 57.0187 31.9444 57.2437 32.3756 57.7312C32.8631 58.3499 32.6381 58.0874 32.3381 57.7312C32.0381 57.3749 31.5506 57.1124 31.7944 57.2999C31.9069 57.4124 32.1881 57.6749 32.5631 58.1812C32.9381 58.6687 33.4444 59.2312 33.9881 59.7749C35.0569 60.8624 36.2756 61.7812 36.5006 61.9312C37.0256 62.3062 37.8319 62.7562 37.7569 62.6624C38.6756 63.1874 38.8819 63.2999 39.0131 63.3937C39.1444 63.4874 39.2006 63.5624 39.8756 63.8437C40.8319 64.2187 41.8256 64.4624 42.8194 64.6687C43.5881 64.7812 44.3569 64.8749 45.1069 64.8937C45.2381 64.8937 45.3694 64.8937 45.5006 64.8937C45.6881 64.9499 47.1506 65.0624 45.6131 65.0437C47.8069 65.1187 49.5131 64.7812 50.9381 64.3124C51.2944 64.1999 51.6319 64.0687 51.9694 63.9187C55.2881 62.6812 57.8194 60.5062 59.6194 58.4437C59.2069 58.9874 60.4631 57.6562 59.6756 58.6312C59.8631 58.4062 60.0694 58.1437 60.3131 57.8437C60.5381 57.5624 60.8194 57.2812 61.2131 57.0937C61.9631 56.6999 63.0506 56.6812 63.8756 57.2437C64.7194 57.7874 65.1881 58.8562 65.0006 59.8312C64.9256 60.3187 64.7006 60.7312 64.4006 61.1062C64.1006 61.4812 63.8194 61.8562 63.5381 62.1749C64.3444 61.2937 63.6506 62.2312 62.7131 63.3187C61.8881 64.2937 60.8006 65.3437 60.6506 65.5499C60.0506 66.0937 59.4319 66.6187 58.7944 67.0874C58.6444 67.1812 58.5506 67.2374 58.4944 67.2562C58.3069 67.3312 58.4006 67.2562 57.7444 67.6312C57.3131 67.9124 56.8444 68.1562 56.3756 68.3624C56.1506 68.4749 55.9069 68.5687 55.6631 68.6249L55.2881 68.7374C55.1569 68.7749 55.0256 68.8499 54.9131 68.9437C54.6881 69.1312 54.5569 69.3937 54.5381 69.6749V70.4437C54.5756 70.9499 54.5756 71.4562 54.5944 71.9624C54.6506 73.9687 54.6881 75.9187 54.7256 77.8312C54.7256 77.8312 54.7256 77.8874 54.6881 77.6812C54.7444 79.4437 54.8006 81.7312 54.8756 84.0374C54.8756 84.6187 54.9131 85.1812 54.9319 85.7624C54.9319 86.0437 54.9319 86.3249 54.9694 86.6062C54.9694 86.9062 55.1381 87.1874 55.3819 87.3562C55.8506 87.7124 56.5819 87.5249 56.8256 87.0562C56.9569 86.8312 56.9569 86.5687 56.9381 86.3437C56.9381 86.1749 56.9381 86.0249 56.9194 85.8749V85.6874C56.9381 85.7812 56.9569 85.5749 57.0131 86.3999C56.9944 84.3562 56.9381 84.3187 56.8819 84.0187L56.8256 81.6937L56.8819 82.3499C56.7506 79.6312 56.8256 77.0812 56.6381 74.0062C56.6756 73.8937 56.6944 74.5874 56.7319 75.0187C56.6944 73.6124 56.6381 72.1124 56.6006 70.6687V70.5374C56.6006 70.4812 56.6006 70.4437 56.6381 70.4437L56.8819 70.3499C57.0506 70.2749 57.2006 70.2374 57.3694 70.1437C57.6881 69.9937 58.0069 69.8437 58.3069 69.6562C58.3819 69.6187 58.4381 69.5624 58.5131 69.5249C59.0381 69.2249 59.5444 68.9062 60.0319 68.5312C59.9944 68.5874 59.6756 68.8499 59.0381 69.2999C60.2569 68.5687 60.8006 68.0249 61.3444 67.5374C61.5319 67.3687 61.7006 67.1812 61.9069 66.9937C62.3944 66.5437 62.8819 66.0562 63.3506 65.5687C63.8194 65.0999 64.5131 64.3687 64.5131 64.3874C64.9256 63.8624 65.7131 62.9249 66.4444 61.8937C66.6881 61.5374 66.8569 61.1249 66.9694 60.7499C66.9694 60.6937 67.0069 60.6562 67.0069 60.5999C67.0631 60.4124 67.0819 60.2062 67.1194 60.0374C67.1381 59.9062 67.1569 59.7749 67.1569 59.6437C67.1569 59.4937 67.1569 59.3624 67.1569 59.2312C67.1569 59.0437 67.1194 58.8562 67.1006 58.6874C67.0631 58.3124 66.9319 57.2437 65.8444 56.0812C64.8694 55.0874 63.4256 54.5999 62.0194 54.7499C60.6131 54.8812 59.3194 55.7062 58.5319 56.8312C57.6506 57.8812 56.6756 58.8374 55.6069 59.6999C55.0444 60.1499 54.5756 60.4687 54.0506 60.7874C53.7881 60.9562 53.5256 61.1062 53.2444 61.2374L53.0381 61.3499L52.9819 61.3874C52.9819 61.3874 52.9819 61.3499 53.0006 61.3499L53.0569 61.2562C53.1319 61.1249 53.2256 60.9937 53.2819 60.8624C54.0881 59.4749 54.4069 57.2999 53.8819 55.4624C53.3944 53.6062 52.1381 51.9374 50.5444 50.9437C50.4881 50.8874 50.3756 50.8687 50.3569 50.7937C50.3569 50.7187 50.3569 50.6437 50.3569 50.5499C50.2631 48.3374 50.1694 46.1437 50.0756 43.9312V43.7999C50.1319 43.1812 50.1131 42.5999 50.2631 41.9999C50.3944 41.4187 50.6381 40.8562 50.9944 40.3687C51.5194 39.6562 52.2319 39.1312 53.0194 38.7374C53.0756 38.6999 53.1319 38.6812 53.1694 38.6624C53.3006 38.6062 53.4131 38.5499 53.5444 38.4937C53.7131 38.4187 53.8819 38.3624 54.0694 38.2874C54.9694 38.0437 54.2194 38.2874 53.4319 38.6437C52.5881 38.9999 51.8006 39.6374 52.4194 39.2624C52.3444 39.2624 52.8131 38.8874 53.8631 38.4749C54.9131 38.0624 56.5631 37.7249 58.6444 37.2749H58.8131C60.5944 36.9187 61.6069 36.8249 63.5381 36.4312H63.4631C65.4881 35.9249 68.0569 35.8874 69.1069 35.4374C69.6319 35.3437 70.1569 35.2124 70.6819 35.0437C71.6194 34.6124 72.3506 34.2562 73.1381 33.8437C73.9069 33.4124 74.7131 32.9249 75.7069 32.1562L75.4819 32.3437C78.3131 30.4124 80.9006 27.8062 81.9694 27.0374C82.4756 26.5124 83.1319 26.1562 83.8444 26.1374C84.5569 26.1187 85.2319 26.4187 85.6631 26.8499C86.1131 27.2812 86.3194 27.8249 86.3944 28.2374C86.3944 28.3312 86.4131 28.4249 86.4131 28.5187C86.4131 28.8187 86.3381 29.1187 86.2444 29.4187C86.2444 29.3812 86.2631 29.1562 86.3006 28.9124C86.1881 29.5687 85.8506 30.1499 85.4006 30.6562C84.9694 31.1812 84.5006 31.6874 84.0319 32.1937C83.0756 33.1874 82.0631 34.1624 81.0131 35.0812C78.9131 36.9187 76.6444 38.6437 74.2631 40.0874C73.0819 40.8187 71.8444 41.4562 70.5881 41.9999C70.1006 42.2249 69.5756 42.3937 69.0881 42.5812C69.0319 42.5999 68.9569 42.6374 68.8819 42.6562C68.8631 42.6562 68.8444 42.6562 68.8256 42.6749C68.7694 42.6937 68.7131 42.7124 68.6756 42.7312C68.6569 42.7312 68.6381 42.7687 68.6194 42.7874C68.6194 42.7874 68.6194 42.7874 68.6006 42.7874C68.5256 42.8437 68.4694 42.8999 68.4131 42.9562C68.4131 42.9562 68.3944 42.9937 68.3756 43.0124C68.3381 43.0687 68.3006 43.1437 68.2819 43.1999C68.2819 43.2187 68.2631 43.2374 68.2631 43.2562C68.2444 43.3312 68.2256 43.4062 68.2256 43.4999C68.2256 43.4999 68.2256 43.5187 68.2256 43.5374V51.9562L67.9444 74.8499V86.5499C67.9444 87.0749 68.3569 87.4874 68.8819 87.4874C69.4069 87.4874 69.8194 87.0749 69.8194 86.5499V81.8624C69.8194 79.8374 69.8381 77.8124 69.8569 75.8249L70.1194 51.7312V44.2312C70.1194 44.2312 70.1194 44.2312 70.1381 44.2312C76.0631 42.1499 83.3381 36.3187 87.1256 31.6687C88.5131 29.9624 88.7006 27.8062 87.6131 26.1562M25.6631 46.1812C25.6069 47.1749 25.4569 45.7874 25.4569 43.3312C25.3444 40.6687 25.6069 42.2624 25.6631 39.8437C25.6069 38.6437 25.6069 36.3937 25.6069 35.4374V35.5124C25.5694 34.0499 25.5319 31.7249 25.5881 29.9812V30.2624C25.5881 29.9062 25.6069 29.5312 25.6069 29.1562V28.8749C25.6069 28.7437 25.6069 28.5937 25.5506 28.4624C25.4756 28.1812 25.3069 27.9374 25.0819 27.7499C25.0256 27.6937 24.9694 27.6562 24.8944 27.6187L24.7631 27.5437L24.5194 27.3937L24.0131 27.0937C23.6756 26.9062 23.3381 26.7187 23.0194 26.5124C22.7006 26.3812 21.8006 25.8187 20.8631 25.2374C19.9444 24.6187 19.0256 23.9999 18.6506 23.7374C18.5006 23.6249 18.7444 23.7749 18.4256 23.5124H18.2756C17.4881 22.9124 16.7381 22.2562 15.9881 21.6374C16.5131 22.0124 16.6444 22.0874 17.3006 22.5937C16.1006 21.5812 15.8756 21.4124 15.8006 21.3937C15.7256 21.3562 15.7631 21.4687 15.1256 20.9437C14.2631 20.2499 13.9069 19.8562 13.6444 19.5937C13.3819 19.3124 13.2319 19.1437 12.8756 18.7499C13.5319 19.3874 14.0381 19.8749 14.4319 20.2499C15.4069 21.0562 13.4756 19.3124 13.4756 19.2562C13.1381 18.9187 12.9131 18.8624 11.8069 17.6812C11.3194 17.1749 10.5319 16.2937 9.93186 15.5812C9.33186 14.8499 8.90061 14.2874 9.05061 14.3999C8.26311 13.4999 7.43811 12.3562 6.89436 11.6437C7.51311 12.5999 8.76936 14.2687 8.88186 14.4937C8.22561 13.6874 6.98811 12.0562 6.85686 11.7562C6.93186 11.8687 7.00686 11.9624 7.08186 12.0749C6.51936 11.2874 5.61936 9.86244 5.82561 10.2562C5.71311 10.0499 5.60062 9.84369 5.48812 9.63744C5.30062 9.31869 5.18812 9.03744 5.11312 8.71869C4.98187 8.39994 4.85062 7.68744 5.11312 6.93744C5.37562 6.18744 6.05062 5.49369 6.83812 5.21244C6.89437 5.24994 6.63187 5.39994 6.68812 5.41869C6.72562 5.41869 6.83812 5.38119 7.11937 5.32494C7.40062 5.26869 7.86937 5.17494 8.56312 5.34369C8.95687 5.43744 9.33186 5.60619 9.65061 5.86869C9.81936 5.99994 9.95061 6.13119 10.1006 6.31869L10.5694 6.86244C11.5444 8.04369 11.8069 8.34369 11.6006 8.19369C13.3256 10.1624 14.3569 11.0249 15.2756 11.7749C15.7444 12.1499 16.1756 12.5062 16.7006 12.9187C17.2256 13.3312 17.8256 13.8187 18.6319 14.4374C17.9006 13.9499 17.8256 13.9312 18.1256 14.1749C18.4069 14.4187 19.0631 14.9249 19.8131 15.4499C19.8881 15.4687 20.0381 15.5624 20.6756 15.9562C20.2631 15.6374 19.7381 15.4124 18.6319 14.5312C18.3131 14.2312 20.0194 15.4874 20.7506 15.9187C22.1944 17.0249 24.8381 18.5624 27.9319 19.7999C28.7194 20.0999 29.5069 20.3812 30.3131 20.6624C31.1381 20.9062 31.9444 21.1687 32.7506 21.3937C33.5756 21.5999 34.3819 21.7874 35.1506 21.9937C35.9194 22.1812 36.6506 22.3874 37.3256 22.6312C37.1569 22.4999 37.7756 22.6874 38.5631 22.9874C39.3506 23.2874 40.3069 23.7374 40.8694 23.9437C40.6819 23.9437 41.4319 24.2624 42.4256 24.6749C42.9319 24.8812 43.4756 25.0874 43.9256 25.3499C44.3756 25.6124 44.7694 25.9124 45.0319 26.1937C44.8631 25.9687 44.6756 25.7624 44.4694 25.5749C45.8381 26.6062 46.5881 27.8249 46.9819 28.9874C47.3756 30.1499 47.3194 31.2749 47.3006 32.3999C47.3381 34.4062 47.1694 31.7249 47.1131 30.8812C47.0569 33.6562 47.5069 38.2499 47.4319 40.4624C47.4881 40.7062 47.5631 39.8812 47.6944 42.2812C47.6944 44.2124 47.7694 48.0562 47.7319 47.6999C47.7694 48.2624 47.7881 48.6749 47.8069 49.0687C47.8069 49.1812 47.8069 49.2937 47.8256 49.4249C47.8256 49.5187 47.8631 49.6687 47.8256 49.7437C47.7319 49.7249 47.6381 49.6874 47.5069 49.6687C47.4506 49.6687 47.3944 49.6499 47.3194 49.6312C47.2069 49.6312 47.0944 49.5937 46.9819 49.5749C47.0194 49.5749 47.0944 49.5749 47.1694 49.5749C47.2256 49.5749 47.3006 49.5749 47.3756 49.5749C47.4881 49.5749 47.6194 49.6124 47.7319 49.6312C47.7694 49.6312 47.7319 49.5562 47.7319 49.5374C47.7319 49.5562 47.7319 49.6312 47.7319 49.6124C47.5631 49.5749 47.4506 49.5374 47.2631 49.5187C46.9256 49.4812 46.5881 49.4437 46.2694 49.4624C45.6131 49.4812 44.9756 49.5562 44.3756 49.7062C43.1756 50.0249 42.0881 50.5874 41.1506 51.3937C40.5319 51.8437 39.2569 53.0812 38.6569 54.8999C38.3381 55.7999 38.2069 56.8124 38.2256 57.7874C38.2444 58.2749 38.3006 58.7624 38.3944 59.2124L38.4694 59.5312L38.5069 59.6624C38.5256 59.7562 38.5631 59.8312 38.5819 59.9062C38.6569 60.0374 38.7319 60.1687 38.8069 60.2999C38.8631 60.3937 38.9381 60.5062 38.9944 60.5999C38.9006 60.5437 38.7881 60.4874 38.6756 60.4312C38.4694 60.3187 38.2631 60.1687 38.0944 60.0562C37.8319 59.8687 37.6069 59.6999 37.4381 59.5874C37.2131 59.4187 37.0444 59.3249 36.9881 59.3062C37.0631 59.3437 36.7631 59.0812 36.6319 58.9312C35.7319 58.1999 34.9819 57.5999 34.0256 56.4374L34.4194 56.7374C34.4944 56.7749 34.3819 56.6062 34.1381 56.2874C33.8756 55.9499 33.4256 55.5187 32.8819 55.1999C32.3381 54.8624 31.7006 54.6374 31.1756 54.5437C30.6506 54.4499 30.2381 54.4499 30.1256 54.4312C30.8381 54.5062 30.3694 54.4312 29.7131 54.5062C29.0569 54.5624 28.2506 54.8624 28.2131 54.9374C27.6319 55.2187 27.1069 55.5937 26.6756 56.0624C26.1506 56.6062 25.9819 56.9812 25.8694 57.1874C25.7569 57.3937 25.7569 57.4687 25.7194 57.5437C25.7006 57.5999 25.6631 57.6937 25.6069 57.8624C25.6631 54.1687 25.5694 49.9499 25.6069 46.1624M66.7444 32.5499C66.7069 32.5312 66.6131 32.5312 66.6319 32.4374C66.5381 32.5312 66.5194 32.6437 66.5006 32.7562C66.3881 32.8687 66.2569 32.9624 66.1256 33.0562C66.1444 32.9999 66.0131 32.9812 66.0319 32.9062C65.9756 32.9999 65.7506 33.1312 65.5819 33.1874C65.7506 33.2624 65.4694 33.3562 65.5069 33.4687C65.4694 33.4874 65.4319 33.5062 65.4131 33.5249C65.3569 33.5249 65.3569 33.4499 65.3006 33.4499C65.1506 33.5999 64.9631 33.6374 64.8131 33.7312C64.8131 33.7312 64.8131 33.7312 64.8131 33.6937C64.6819 33.8062 64.4381 33.8624 64.3069 34.0312C64.3069 34.0124 64.2881 33.9749 64.3069 33.9562C64.2131 33.9562 64.2131 34.0124 64.2131 34.0687C64.1756 34.0687 64.1381 34.0874 64.1006 34.1062V34.0499C64.0069 34.1624 63.8569 34.0499 63.7444 34.1999C63.7444 34.1624 63.7444 34.1437 63.7819 34.1249C63.6881 34.1812 63.5944 34.1999 63.5006 34.2749C63.4631 34.2749 63.4444 34.2937 63.4069 34.2937C63.4069 34.2562 63.4069 34.2374 63.4444 34.1999C63.3319 34.1999 63.3319 34.2749 63.2756 34.3124C63.2569 34.3124 63.2194 34.3124 63.2006 34.3124C63.1631 34.3124 63.0881 34.2562 63.1069 34.2562C63.0694 34.3124 62.9756 34.3312 62.9006 34.3499C62.8631 34.3499 62.8256 34.3499 62.7881 34.3499C62.7506 34.3312 62.7131 34.3124 62.6569 34.2749C62.0194 34.3312 61.3631 34.2749 60.7256 34.2749C60.6881 34.2749 60.6694 34.2749 60.6319 34.2749C60.5756 34.1437 60.8006 34.2187 60.7444 34.1249C60.7444 34.2374 60.6319 34.1437 60.4256 34.1249C60.3319 34.1249 60.3131 34.0124 60.2006 34.0312V34.0687C60.0694 34.1249 60.0319 33.8624 59.9381 33.9937L59.9006 33.8812C59.7694 33.9749 59.7694 33.7874 59.6194 33.8624H59.6381C59.5069 33.7312 59.2631 33.8624 59.2631 33.7312C59.1506 33.6937 59.0381 33.6749 58.9631 33.6937C58.9631 33.6937 58.9444 33.6937 58.9256 33.6749C58.9256 33.6374 58.9631 33.6187 58.9819 33.5999C58.6256 33.4687 58.2881 33.2624 57.9694 33.0937C57.1819 32.5312 56.5256 31.7999 56.0381 30.9749C55.9069 30.6937 55.7756 30.4124 55.6444 30.1874C55.5881 30.0562 55.5506 29.9249 55.4944 29.7937C55.5131 29.7937 55.5319 29.7749 55.5131 29.7562C55.4756 29.6999 55.4381 29.6437 55.4194 29.5874C55.2131 28.9499 55.1006 28.2562 55.1006 27.5437C55.1006 26.8312 55.1006 27.2062 55.1194 27.0562C55.1194 27.0749 55.1569 27.1124 55.1569 27.1312C55.1006 27.0562 55.1569 26.9624 55.2319 26.9999L55.1944 26.8874H55.2881C55.2881 26.6999 55.3819 26.5874 55.3444 26.3812L55.2506 26.4374C55.2506 26.3812 55.2506 26.3062 55.2319 26.2499C55.2319 26.2124 55.2319 26.1749 55.2506 26.1374C55.2506 26.1187 55.2694 26.0999 55.2881 26.0812C55.2881 26.1374 55.3631 26.1187 55.4006 26.1187C55.4006 26.0812 55.3631 26.0437 55.4006 26.0249L55.5319 26.0999C55.3631 26.0062 55.5319 25.7812 55.5319 25.7249H55.5506C55.6444 25.5937 55.4569 25.7624 55.4944 25.6499C55.5506 25.5562 55.6631 25.6499 55.7381 25.5937C55.7944 25.4249 55.7944 25.1249 55.9631 24.9749C56.0006 24.8249 56.0381 24.6562 56.0381 24.5062C56.0944 24.3749 56.1694 24.5812 56.1694 24.4312C56.2069 24.4687 56.2631 24.4874 56.3194 24.4874C56.2819 24.4499 56.4506 24.2812 56.2819 24.2999C56.4131 24.1499 56.5256 23.9624 56.6381 23.7749C56.6006 23.8312 56.6756 23.9062 56.7506 23.8874C56.7319 23.7562 56.7881 23.5874 56.9194 23.4749C56.8444 23.4187 56.8069 23.4749 56.7506 23.3999C56.7506 23.3624 56.7506 23.3062 56.7881 23.2687C56.8819 23.3062 56.9944 23.4187 57.1069 23.3062C57.2006 23.4374 56.9194 23.4937 57.0881 23.5312C57.1444 23.6624 56.9944 23.8874 56.8819 23.8874C56.9194 24.0749 56.9569 23.8124 57.0506 23.9062C57.1069 23.8124 57.0881 23.7187 57.1819 23.5499C57.1256 23.5124 57.0881 23.5499 57.1069 23.4562C57.1069 23.2499 57.3319 23.3624 57.3506 23.3437C57.3506 23.3812 57.3319 23.3999 57.3131 23.4187C57.4256 23.3624 57.3881 23.2874 57.4631 23.1937C57.6131 23.2874 57.3506 23.3437 57.4069 23.4562H57.5569C57.6881 23.3624 57.4819 23.3437 57.6319 23.2499L57.6694 23.3062C57.6694 23.2687 57.7069 23.2312 57.7256 23.1937C57.6881 23.1374 57.5944 23.0999 57.5381 23.1749C57.4631 23.0062 57.5756 23.0812 57.6694 22.9687C57.6319 22.8562 57.6319 23.0249 57.5569 22.9687C57.4819 22.9124 57.5569 22.8374 57.6131 22.7812C57.7069 22.6874 57.7444 22.8187 57.8194 22.8187C57.8194 22.8562 57.7444 22.9312 57.7069 22.8749C57.6506 23.0624 57.8944 22.9687 57.8569 23.0999C58.0069 23.0624 57.8569 22.9312 57.9694 22.8749C57.9131 22.9874 57.8944 22.8374 57.8381 22.8187C57.8381 22.4812 58.0631 22.8562 58.1944 22.7062C58.0444 22.5937 58.2694 22.3499 58.0444 22.3124C58.0631 22.2562 58.1006 22.1812 58.1569 22.1624C58.1756 22.2937 58.2881 22.1624 58.2694 22.3312L58.3256 22.2937V22.4812C58.4194 22.4812 58.5694 22.4812 58.6444 22.4812C58.7006 22.3874 58.5506 22.4062 58.6444 22.3124C58.6444 22.3874 58.7381 22.3874 58.7756 22.3687C58.6631 22.3687 58.6819 22.2374 58.7381 22.1624C58.8319 22.1062 58.9631 22.1624 58.9631 22.1812L58.9256 22.3124C58.9444 22.1999 58.9819 22.3312 59.0194 22.2562C59.0194 22.1812 59.0006 22.0874 58.9819 21.9937C59.0381 21.9374 59.1131 21.9937 59.1319 21.9562L59.0569 22.0687C59.1694 21.9749 59.1694 22.2187 59.2819 22.1062V22.0124C59.3194 22.0124 59.3381 22.0499 59.3381 22.0874C59.3381 22.0124 59.4131 21.9937 59.4319 21.9562L59.4694 22.0124C59.5069 21.9562 59.5256 21.8062 59.6381 21.8624C59.5256 21.7499 59.5631 21.8999 59.4506 21.8812C59.3381 21.8249 59.5069 21.7499 59.5256 21.7312C59.5819 21.8624 59.6756 21.6749 59.7506 21.6562C59.8069 21.6937 59.8631 21.7124 59.8819 21.7312V21.6187C59.9756 21.7874 59.9944 21.5249 60.1069 21.5437C60.0881 21.6187 60.1069 21.6937 60.1819 21.6937C60.0694 21.5812 60.2569 21.4874 60.2006 21.3937C60.3694 21.3937 60.2194 21.5812 60.2944 21.6749C60.3319 21.5437 60.4819 21.7124 60.4819 21.5437C60.3694 21.5437 60.4819 21.4499 60.4819 21.3749C60.6131 21.3562 60.4819 21.4499 60.5944 21.4687C60.6506 21.4312 60.6881 21.2999 60.5944 21.2812C60.6881 21.2812 60.7444 21.1312 60.8569 21.2062C60.9131 21.2812 60.6881 21.2812 60.7631 21.3374C60.9506 21.2999 60.8194 21.0937 60.9881 21.0374C60.8944 20.9999 60.9506 20.8312 61.0444 20.7562C61.2694 20.7562 60.9506 20.8312 61.0444 20.9249L61.1194 20.8874C61.2506 21.0187 60.9131 21.1874 61.0444 21.2999L61.1194 21.2249C61.1194 21.2812 61.1006 21.3562 61.1194 21.3937C61.1194 21.2812 61.3069 21.3374 61.3256 21.2999C61.3256 21.2062 61.2506 21.3374 61.2694 21.2624C61.3631 21.2249 61.3819 21.0562 61.5319 21.1124C61.4569 21.1874 61.5694 21.2437 61.5319 21.2999C61.6069 21.3374 61.5319 21.1874 61.6444 21.2249V21.2812C62.0006 21.2624 62.4506 21.2812 62.7881 21.0749C62.8444 21.1687 62.9569 21.2062 63.1256 21.2999C63.0506 21.2624 63.1256 21.2062 63.1819 21.2062L63.2569 21.3187C63.3506 21.3937 63.5006 21.3374 63.6131 21.3187C63.6131 21.3374 63.6131 21.3749 63.6131 21.3937C63.6881 21.4874 63.7256 21.3562 63.7631 21.3374L63.8006 21.4312L63.8381 21.3562C63.9506 21.3374 64.0631 21.3937 64.0069 21.5062C64.0444 21.5062 64.1006 21.5062 64.0631 21.4312C64.1381 21.5249 64.3631 21.6187 64.5506 21.6374C64.4944 21.5812 64.5131 21.5437 64.5319 21.4687C64.6069 21.3562 64.5694 21.5062 64.6631 21.4687C64.6444 21.5249 64.7006 21.5999 64.6069 21.5812C64.7381 21.8437 65.0944 21.8437 65.3194 22.0312C65.3756 22.0312 65.3756 22.0312 65.4131 21.9937C65.5069 22.1999 65.7694 22.1999 65.8819 22.3687C65.8819 22.2937 66.0131 22.2187 66.1069 22.2749C66.2756 22.2749 66.0506 22.4249 66.1069 22.5374C66.1819 22.5374 66.2569 22.5937 66.2944 22.6312C66.3881 22.6312 66.4819 22.6874 66.5006 22.7812C66.5381 22.8374 66.5569 22.9312 66.6131 22.9687C66.7069 22.9124 66.7631 23.0812 66.8569 23.0624C66.8569 23.0624 66.8569 23.0624 66.8381 23.0999L66.9131 23.0437L66.9694 23.1749C66.9319 23.1749 66.8944 23.1937 66.8569 23.1749C66.9131 23.3249 66.9506 23.1749 67.0256 23.1749C67.1381 23.2124 67.0819 23.2687 67.0819 23.3249C67.0256 23.3249 67.0444 23.2499 67.0256 23.2499C66.9319 23.2499 67.0444 23.3062 67.0256 23.3437C67.0256 23.3624 67.1194 23.3062 67.1569 23.3812C67.1944 23.4374 67.3069 23.5499 67.2131 23.5874C67.2881 23.5874 67.3069 23.6624 67.3819 23.6624C67.3819 23.6062 67.3256 23.5124 67.3819 23.4749C67.4194 23.5124 67.4944 23.5687 67.4756 23.6062H67.4381C67.4756 23.6062 67.5319 23.7374 67.5694 23.6249L67.5319 23.7749C67.6069 23.7749 67.6631 23.8499 67.7194 23.9062C67.6444 23.9624 67.5131 23.9624 67.5881 24.0937L67.7381 24.1499C67.7756 24.2062 67.7756 24.2249 67.7194 24.2437C67.7944 24.4687 68.0569 24.3374 68.0756 24.5249C67.9444 24.5062 67.9631 24.5624 67.9631 24.6562C67.9819 24.6562 68.0194 24.6562 68.0381 24.6562C68.0756 24.6187 67.9444 24.6562 67.9819 24.5624C68.0381 24.5062 68.0569 24.6187 68.0944 24.6374C67.9631 24.8812 68.2631 25.1624 68.2444 25.4437C68.3756 25.3874 68.3194 25.5374 68.3756 25.5749C68.2444 25.5937 68.4319 25.7062 68.3756 25.7999L68.5069 25.7249C68.4694 25.8937 68.7694 25.9312 68.6381 26.0624C68.6194 26.1562 68.5256 26.0624 68.5069 26.0249C68.3944 26.1749 68.6756 26.3249 68.5444 26.4562C68.6006 26.4562 68.6944 26.3999 68.7506 26.5124C68.7131 26.6062 68.6569 26.7937 68.6194 26.7749C68.6569 26.8499 68.6944 26.8687 68.6569 26.9437C68.6194 26.9437 68.6194 26.9062 68.6006 26.8874C68.5631 27.0187 68.6381 27.1124 68.6944 27.2249C68.6006 27.2999 68.6569 27.5062 68.5819 27.6562C68.7131 27.7499 68.5256 27.8812 68.6944 27.8999C68.6944 27.8999 68.6569 27.8999 68.6381 27.9187C68.6756 27.9749 68.7881 28.0312 68.7881 28.1062L68.6756 28.0687C68.5444 28.0312 68.6194 28.2562 68.5444 28.2749C68.6569 28.2374 68.5444 28.3499 68.6194 28.3687V28.4624C68.6569 28.5937 68.6944 28.4812 68.6756 28.6499C68.6756 28.7437 68.5444 28.6499 68.5631 28.6312C68.4881 28.6874 68.5069 28.7812 68.5069 28.8562C68.5069 28.8187 68.5069 28.8187 68.5444 28.8562C68.5444 28.8562 68.5256 28.8562 68.5069 28.8562C68.5069 28.8562 68.4881 28.9124 68.4694 28.9499C68.4694 28.9874 68.4506 29.0062 68.4319 29.0249L68.3569 28.9874C68.3569 29.0437 68.3944 29.2124 68.4319 29.2124C68.3006 29.4187 68.2069 29.8312 68.2256 29.9624C68.2256 29.9062 68.1881 29.8499 68.2256 29.9062C68.2256 29.9812 68.2444 30.0937 68.1881 30.0749C68.1881 30.1499 68.0944 30.1124 68.0381 30.2062C68.0381 30.2062 68.1131 30.2624 68.1131 30.2249C67.9069 30.3374 68.0006 30.6749 67.7944 30.8249C67.8319 30.8249 67.7944 30.7499 67.7569 30.7124C67.7006 30.8812 67.6444 31.0499 67.6444 31.2374C67.6256 31.1999 67.5881 31.1812 67.5881 31.1437C67.5319 31.2187 67.4944 31.3124 67.4944 31.3874C67.6069 31.3687 67.5694 31.5374 67.4944 31.5937C67.4194 31.6874 67.4569 31.7249 67.3631 31.8187C67.2694 31.8374 67.4006 31.7624 67.3256 31.7437C67.1944 31.6687 67.0631 31.8937 67.0444 31.8937C67.0444 31.9312 67.0444 31.9874 67.0631 32.0062C67.0256 32.0999 66.9694 31.9874 66.9319 32.0437C66.9319 32.1562 66.9319 32.2874 66.9319 32.3999M55.3819 25.8187C55.3819 25.8187 55.3631 25.8562 55.3444 25.8562C55.3444 25.8562 55.3444 25.8187 55.3444 25.7999M55.1756 26.9062C55.1756 26.9062 55.1756 26.9062 55.1569 26.9062C55.1569 26.8687 55.1569 26.8124 55.1756 26.7749C55.1756 26.7749 55.1944 26.7749 55.2131 26.7749C55.2131 26.7374 55.1944 26.7374 55.1944 26.7187C55.1944 26.6999 55.1944 26.6812 55.1944 26.6624C55.2694 26.6999 55.2506 26.8687 55.1944 26.9062M68.3381 29.2312C68.3381 29.2312 68.3381 29.2312 68.3381 29.2687V29.2312ZM51.6319 55.2562C51.6881 55.3687 51.7069 55.4812 51.7631 55.5937C51.7444 55.5937 51.7256 55.6124 51.7256 55.6312C51.7631 55.6687 51.8006 55.7062 51.8194 55.7624C51.9881 56.3062 52.0819 56.8687 52.0819 57.4687C52.0819 58.0687 52.0819 57.7499 52.0631 57.8812C52.0631 57.8624 52.0256 57.8437 52.0256 57.8249C52.0819 57.8812 52.0256 57.9562 51.9506 57.9374L51.9881 58.0312H51.9131C51.9131 58.1812 51.8194 58.2749 51.8569 58.4437L51.9506 58.3874C51.9506 58.4437 51.9506 58.4812 51.9694 58.5374C51.9694 58.5749 51.9694 58.5937 51.9694 58.6312C51.9694 58.6312 51.9506 58.6687 51.9319 58.6687C51.9131 58.6124 51.8569 58.6499 51.8194 58.6312C51.8194 58.6499 51.8569 58.6874 51.8194 58.7062L51.6881 58.6312C51.8756 58.7062 51.6881 58.8937 51.7069 58.9499H51.6881C51.5944 59.0437 51.7819 58.9312 51.7444 59.0249C51.7069 59.0999 51.5944 59.0249 51.5194 59.0624C51.4631 59.1937 51.5006 59.4562 51.3319 59.5687C51.2944 59.6999 51.2944 59.8312 51.2944 59.9624C51.2381 60.0749 51.1631 59.8874 51.1819 60.0187C51.1069 59.9624 50.9756 59.9624 50.9569 59.8874C50.9194 59.9249 50.8444 59.8874 50.8631 59.9624C50.8256 59.9624 50.8069 59.8874 50.7694 59.9249C50.8069 59.9999 50.9381 59.9812 51.0131 59.9249C51.1631 59.9249 50.9194 60.1124 51.1069 60.0937C50.9944 60.2249 50.9006 60.3749 50.8256 60.5249C50.8631 60.4687 50.7881 60.4124 50.7131 60.4124C50.7506 60.5249 50.7131 60.6749 50.6006 60.7687C50.6756 60.8249 50.7131 60.7874 50.7694 60.8624C50.7694 60.8812 50.7694 60.9374 50.7506 60.9749C50.6569 60.9374 50.5444 60.8249 50.4694 60.9187C50.3756 60.7874 50.6194 60.7687 50.4694 60.7124C50.4131 60.5999 50.5256 60.4124 50.6194 60.4124C50.5819 60.2437 50.5631 60.4687 50.4694 60.3749C50.4131 60.4499 50.4506 60.5249 50.3756 60.6749C50.4319 60.7124 50.4694 60.6749 50.4694 60.7687C50.4694 60.9562 50.2819 60.8437 50.2444 60.8624C50.2444 60.8437 50.2444 60.8062 50.2631 60.7874C50.1694 60.8249 50.2069 60.8999 50.1506 60.9749C50.0006 60.8812 50.2444 60.8437 50.1881 60.7499L50.0569 60.7124C49.9444 60.8062 50.1319 60.8437 50.0006 60.9187L49.9631 60.8624C49.9631 60.8999 49.9631 60.9374 49.9256 60.9562C49.9819 61.0124 50.0569 61.0687 50.0944 60.9937C50.1881 61.1624 50.0569 61.0687 49.9819 61.1812C50.0194 61.2749 50.0194 61.1437 50.0944 61.1999C50.1694 61.2562 50.0944 61.3124 50.0569 61.3687C49.9819 61.4437 49.9444 61.3312 49.8694 61.3124C49.8694 61.2937 49.9256 61.2187 49.9631 61.2749C50.0006 61.1062 49.7944 61.1624 49.7944 61.0499C49.6631 61.0874 49.7944 61.1999 49.7194 61.2562C49.7569 61.1437 49.7944 61.2937 49.8319 61.3124C49.8694 61.6312 49.6256 61.2562 49.5319 61.3874C49.6631 61.4999 49.4944 61.7062 49.7006 61.7812C49.7006 61.8374 49.6631 61.8937 49.6069 61.9124C49.5694 61.7812 49.4944 61.8937 49.4944 61.7437L49.4381 61.7812V61.6124C49.3256 61.5937 49.1944 61.5937 49.1381 61.5562C49.0819 61.6499 49.2131 61.6312 49.1381 61.7062C49.1381 61.6312 49.0444 61.6312 49.0069 61.6499C49.1006 61.6499 49.1006 61.7812 49.0631 61.8374C48.9881 61.8937 48.8756 61.8374 48.8756 61.7999V61.6687C48.8756 61.7812 48.8569 61.6499 48.8194 61.7062C48.8194 61.7812 48.8569 61.8749 48.8756 61.9687C48.8381 62.0249 48.7631 61.9687 48.7444 61.9687L48.8006 61.8749C48.7069 61.9499 48.6881 61.7249 48.6131 61.8187V61.9124C48.6131 61.9124 48.5756 61.8749 48.5756 61.8374C48.5756 61.8937 48.5194 61.9124 48.5006 61.9499L48.4631 61.8937C48.4444 61.9499 48.4256 62.0999 48.3319 62.0249C48.4256 62.1374 48.3881 62.0062 48.4819 62.0249C48.5756 62.0999 48.4444 62.1562 48.4256 62.1749C48.3694 62.0437 48.2944 62.2124 48.2381 62.2312C48.1819 62.1937 48.1444 62.1749 48.1069 62.1562V62.2499C48.0319 62.0812 48.0131 62.3437 47.9381 62.3062C47.9381 62.2312 47.9381 62.1562 47.8631 62.1562C47.9756 62.2687 47.8256 62.3624 47.8631 62.4562C47.7319 62.4562 47.8444 62.2687 47.7694 62.1937C47.7319 62.3249 47.6194 62.1562 47.6194 62.3062C47.7131 62.3249 47.6194 62.3999 47.6194 62.4749C47.5069 62.4749 47.6194 62.3999 47.5256 62.3812C47.4881 62.4187 47.4506 62.5312 47.5256 62.5687C47.4506 62.5687 47.4131 62.7187 47.3194 62.6437C47.2631 62.5687 47.4506 62.5687 47.3944 62.5124C47.2444 62.5312 47.3569 62.7374 47.2069 62.7937C47.2819 62.8312 47.2444 62.9999 47.1694 63.0749C46.9819 63.0749 47.2444 62.9999 47.1694 62.9062L47.0944 62.9437C46.9819 62.7937 47.2631 62.6624 47.1506 62.5499L47.0944 62.6062C47.0944 62.5687 47.1131 62.4749 47.0944 62.4374C47.0944 62.5499 46.9444 62.4937 46.9256 62.5124C46.9256 62.6062 46.9819 62.4749 46.9819 62.5499C46.9069 62.5874 46.8881 62.7562 46.7756 62.6999C46.8319 62.6249 46.7381 62.5687 46.7756 62.5124C46.7194 62.4749 46.7756 62.6249 46.6819 62.5687V62.5124C46.3819 62.5124 46.0444 62.5124 45.7444 62.7187C45.7069 62.6249 45.6131 62.5874 45.4819 62.5124C45.5381 62.5499 45.4819 62.6062 45.4256 62.6249L45.3694 62.5124C45.2944 62.4374 45.1631 62.5124 45.0694 62.5499C45.0694 62.5312 45.0694 62.4937 45.0694 62.4749C45.0131 62.3812 44.9756 62.5124 44.9381 62.5312L44.9006 62.4374L44.8631 62.5124C44.7694 62.5499 44.6756 62.4749 44.7319 62.3624C44.6944 62.3624 44.6569 62.3812 44.6756 62.4374C44.6194 62.3437 44.4319 62.2687 44.2819 62.2687C44.3381 62.3249 44.3194 62.3624 44.2819 62.4187C44.2069 62.5312 44.2631 62.3812 44.1694 62.4187C44.1881 62.3812 44.1506 62.3062 44.2256 62.3062C44.1319 62.0624 43.8319 62.0999 43.6444 61.9312C43.5881 61.9312 43.5881 61.9499 43.5506 61.9687C43.4944 61.7812 43.2694 61.7999 43.1756 61.6499C43.1756 61.7249 43.0444 61.7999 42.9694 61.7437C42.8194 61.7624 43.0256 61.5937 43.0069 61.4999C42.9319 61.4999 42.8756 61.4624 42.8569 61.4249C42.7819 61.4249 42.6881 61.3874 42.6694 61.3124C42.6319 61.2749 42.6319 61.1812 42.5944 61.1437C42.5006 61.1999 42.4631 61.0499 42.3694 61.0874C42.3694 61.0874 42.3694 61.0874 42.3881 61.0499L42.3131 61.1062L42.2756 60.9937C42.3131 60.9937 42.3506 60.9749 42.3881 60.9749C42.3506 60.8437 42.2944 60.9937 42.2194 60.9749C42.1069 60.9562 42.1819 60.8999 42.1819 60.8437C42.2381 60.8437 42.2194 60.8999 42.2381 60.8999C42.3131 60.8999 42.2381 60.8437 42.2569 60.8062C42.2569 60.8062 42.1631 60.8624 42.1444 60.8062C42.1256 60.7499 42.0319 60.6749 42.1069 60.6374C42.0319 60.6374 42.0131 60.5812 41.9569 60.5812C41.9569 60.6187 41.9944 60.6937 41.9569 60.7499C41.9194 60.7312 41.8631 60.6749 41.8819 60.6374H41.9194C41.8819 60.6374 41.8256 60.5249 41.8069 60.6374L41.8631 60.5062C41.7881 60.5062 41.7506 60.4499 41.6944 60.3937C41.7694 60.3374 41.8819 60.3187 41.8444 60.2062L41.7131 60.1687C41.6756 60.1312 41.6944 60.0937 41.7506 60.0749C41.6944 59.8874 41.4319 60.0187 41.4319 59.8499C41.5631 59.8499 41.5444 59.7937 41.5444 59.7374C41.5256 59.7374 41.4881 59.7374 41.4694 59.7374C41.4319 59.7749 41.5631 59.7374 41.5069 59.8124C41.4506 59.8499 41.4319 59.7749 41.3944 59.7562C41.5444 59.5312 41.2819 59.3249 41.3006 59.0812C41.1694 59.1374 41.2256 59.0062 41.1694 58.9687C41.3194 58.9499 41.1131 58.8562 41.1694 58.7812L41.0381 58.8562C41.0756 58.7062 40.7756 58.6874 40.9256 58.5749C40.9444 58.4999 41.0381 58.5749 41.0569 58.6124C41.1694 58.4812 40.8881 58.3687 41.0381 58.2562C40.9819 58.2562 40.9069 58.2937 40.8319 58.2187C40.8881 58.1437 40.9256 57.9937 40.9631 57.9937C40.9256 57.9374 40.8881 57.9187 40.9256 57.8624C40.9631 57.8624 40.9631 57.8999 40.9819 57.9187C41.0194 57.8062 40.9444 57.7312 40.8881 57.6562C40.9819 57.5999 40.9256 57.4124 41.0006 57.2999C40.8694 57.2249 41.0569 57.1124 40.8881 57.0937C40.9069 57.0937 40.9256 57.0937 40.9444 57.0937C40.8881 57.0374 40.7944 56.9999 40.7944 56.9437L40.9069 56.9812C41.0381 56.9999 40.9631 56.8312 41.0381 56.8124C40.9444 56.8499 41.0381 56.7562 40.9631 56.7374V56.6624C40.9256 56.5499 40.8881 56.6437 40.8881 56.5124C40.8881 56.4374 41.0194 56.5124 41.0006 56.5312C41.0756 56.4749 41.0569 56.4187 41.0381 56.3437C41.0381 56.3624 41.0381 56.3812 41.0006 56.3437C41.0006 56.3437 41.0194 56.3437 41.0381 56.3437C41.0381 56.3437 41.0569 56.3062 41.0756 56.2687C41.0756 56.2499 41.0756 56.2312 41.1131 56.2124L41.1881 56.2499C41.1881 56.2124 41.1319 56.0624 41.0944 56.0624C41.2069 55.8937 41.2631 55.5562 41.2444 55.4437C41.2444 55.4999 41.3006 55.5374 41.2444 55.4999C41.2444 55.4437 41.2069 55.3499 41.2631 55.3687C41.2631 55.2937 41.3381 55.3499 41.3944 55.2562C41.4131 55.2562 41.3194 55.1999 41.3194 55.2374C41.5069 55.1437 41.3944 54.8624 41.5819 54.7499C41.5444 54.7499 41.5819 54.8062 41.6194 54.8437C41.6569 54.6937 41.6944 54.5624 41.6944 54.3937C41.7131 54.4312 41.7506 54.4499 41.7506 54.4874C41.8069 54.4312 41.8256 54.3562 41.8256 54.2812C41.7319 54.2812 41.7319 54.1499 41.7881 54.0937C41.8444 54.0187 41.8069 53.9812 41.8819 53.9062C41.9569 53.9062 41.8631 53.9624 41.9194 53.9812C42.0506 54.0562 42.1444 53.8687 42.1631 53.8499C42.1631 53.8124 42.1631 53.7749 42.1256 53.7562C42.1631 53.6624 42.2006 53.7937 42.2381 53.7562C42.2381 53.6437 42.2381 53.5499 42.2194 53.4374C42.2569 53.4749 42.3506 53.4749 42.3319 53.5499C42.4069 53.4749 42.4069 53.3624 42.4256 53.2687C42.5194 53.1749 42.6319 53.0999 42.7256 53.0249C42.7256 53.0812 42.8194 53.0999 42.8194 53.1749C42.8569 53.0812 43.0631 52.9874 43.1944 52.9499C43.0444 52.8749 43.2694 52.7999 43.2319 52.7062C43.2694 52.6874 43.2881 52.6687 43.3256 52.6499C43.3631 52.6499 43.3819 52.7437 43.4381 52.7249C43.5506 52.5937 43.7194 52.5749 43.8506 52.4812C43.8506 52.4812 43.8506 52.4812 43.8506 52.5187C43.9444 52.4062 44.1694 52.3687 44.2631 52.2187C44.2631 52.2374 44.2819 52.2749 44.2631 52.2937C44.3569 52.2937 44.3381 52.2374 44.3381 52.1999C44.3756 52.1999 44.3944 52.1812 44.4319 52.1624V52.2187C44.5069 52.1062 44.6381 52.2187 44.7319 52.0874C44.7319 52.1249 44.7319 52.1437 44.7131 52.1624C44.7881 52.1249 44.8819 52.0874 44.9381 52.0312C44.9569 52.0312 44.9944 52.0312 45.0131 52.0124C45.0131 52.0499 45.0131 52.0687 44.9944 52.1062C45.0881 52.1249 45.0881 52.0312 45.1256 51.9937C45.1444 51.9937 45.1819 51.9937 45.2006 51.9937C45.2381 51.9937 45.2944 52.0499 45.2756 52.0499C45.3131 52.0124 45.3694 51.9749 45.4444 51.9562C45.4819 51.9562 45.5194 51.9562 45.5381 51.9562C45.5569 51.9749 45.5944 51.9937 45.6506 52.0312C46.1756 51.9937 46.7194 52.0312 47.2631 52.0124C47.2819 52.0124 47.3194 52.0124 47.3381 52.0124C47.3756 52.1437 47.1881 52.0687 47.2256 52.1624C47.2444 52.0499 47.3194 52.1437 47.4881 52.1437C47.5631 52.1437 47.5819 52.2374 47.6756 52.2187V52.1812C47.7881 52.1249 47.8069 52.3687 47.9006 52.2374L47.9381 52.3499C48.0506 52.2374 48.0506 52.4437 48.1631 52.3499H48.1444C48.2381 52.4812 48.4631 52.3124 48.4631 52.4437C48.5569 52.4624 48.6506 52.4812 48.7256 52.4437C48.7256 52.4437 48.7444 52.4437 48.7631 52.4437C48.7631 52.4812 48.7256 52.4999 48.7069 52.5187C49.0069 52.6124 49.2881 52.7999 49.5694 52.9312C50.2256 53.3999 50.7694 53.9999 51.1819 54.6937C51.2756 54.9374 51.3881 55.1624 51.5194 55.3499M51.8569 58.9312C51.8569 58.9312 51.8756 58.9124 51.8756 58.8937C51.8756 58.8937 51.8756 58.9312 51.8756 58.9499M52.0256 58.1249C52.0256 58.1249 52.0256 58.1249 51.9881 58.1249C51.9881 58.1437 52.0069 58.1624 52.0256 58.1812C52.0256 58.1999 52.0256 58.2187 52.0256 58.2374C51.9506 58.1999 51.9506 58.0499 52.0256 58.0312H52.0444C52.0444 58.0687 52.0444 58.1062 52.0444 58.1437M36.5756 19.4437C36.5756 19.4437 36.5944 19.4437 36.6131 19.4437C36.6131 19.4437 36.5944 19.4437 36.5756 19.4437ZM39.3131 4.23744C39.3694 4.23744 39.4069 4.23744 39.4631 4.25619C39.4631 4.25619 39.4631 4.25619 39.4631 4.29369C39.5006 4.29369 39.5194 4.29369 39.5381 4.27494C39.5569 4.27494 39.5944 4.27494 39.6131 4.27494C39.5569 4.34994 39.3694 4.33119 39.3319 4.27494C39.3319 4.27494 39.3319 4.27494 39.3319 4.25619M40.6069 4.49994C40.5881 4.49994 40.5694 4.48119 40.5506 4.46244C40.5694 4.46244 40.6069 4.46244 40.6256 4.46244M39.1069 4.23744C39.0694 4.23744 39.0506 4.27494 39.0131 4.27494C39.0881 4.19994 39.2006 4.27494 39.1631 4.34994L39.2944 4.31244V4.38744C39.5006 4.38744 39.6319 4.49994 39.8756 4.46244L39.8006 4.36869C39.8569 4.36869 39.9319 4.36869 40.0069 4.34994C40.0444 4.34994 40.0819 4.34994 40.1381 4.36869C40.1569 4.36869 40.1756 4.38744 40.1944 4.42494C40.1194 4.42494 40.1569 4.49994 40.1569 4.53744C40.1944 4.53744 40.2319 4.49994 40.2694 4.53744L40.1756 4.66869C40.2694 4.49994 40.5319 4.68744 40.6069 4.66869H40.5881C40.7569 4.79994 40.5881 4.61244 40.7006 4.63119C40.8131 4.68744 40.7006 4.79994 40.7756 4.87494C40.9631 4.93119 41.3194 4.94994 41.4881 5.13744C41.6569 5.19369 41.8444 5.23119 42.0319 5.23119C42.1819 5.30619 41.9569 5.36244 42.1256 5.36244C42.0881 5.39994 42.0881 5.45619 42.0694 5.51244C42.1069 5.47494 42.3131 5.66244 42.2756 5.49369C42.4631 5.64369 42.6694 5.77494 42.8756 5.88744C42.8006 5.84994 42.7444 5.90619 42.7631 5.98119C42.8944 5.98119 43.0819 6.05619 43.2319 6.18744C43.2881 6.11244 43.2319 6.07494 43.3069 6.01869C43.3444 6.01869 43.4006 6.01869 43.4381 6.05619C43.4006 6.14994 43.3069 6.26244 43.4381 6.37494C43.3069 6.44994 43.2131 6.16869 43.1756 6.33744C43.0256 6.39369 42.7819 6.20619 42.7631 6.09369C42.5569 6.09369 42.8569 6.18744 42.7631 6.26244C42.8756 6.33744 42.9694 6.31869 43.1569 6.43119C43.1944 6.37494 43.1569 6.31869 43.2694 6.35619C43.5131 6.39369 43.3819 6.59994 43.4194 6.63744C43.3819 6.63744 43.3631 6.59994 43.3256 6.59994C43.3819 6.71244 43.4756 6.67494 43.5881 6.78744C43.4944 6.93744 43.4194 6.65619 43.3069 6.69369V6.84369C43.4381 6.99369 43.4381 6.76869 43.5506 6.95619L43.4944 6.99369C43.5319 7.01244 43.5881 7.03119 43.6256 7.04994C43.6819 7.01244 43.7194 6.91869 43.6256 6.84369C43.7944 6.76869 43.7194 6.89994 43.8694 7.01244C43.9819 6.99369 43.8131 6.95619 43.8694 6.88119C43.9256 6.80619 44.0194 6.89994 44.0944 6.95619C44.2069 7.06869 44.0756 7.08744 44.0569 7.18119C44.0194 7.18119 43.9444 7.08744 43.9819 7.06869C43.7756 6.99369 43.8881 7.25619 43.7569 7.21869C43.8131 7.38744 43.9256 7.21869 44.0194 7.34994C43.8881 7.27494 44.0569 7.27494 44.0569 7.21869C44.4131 7.21869 44.0194 7.46244 44.2069 7.61244C44.3006 7.46244 44.5819 7.72494 44.6194 7.46244C44.6756 7.49994 44.7506 7.53744 44.7881 7.59369C44.6569 7.59369 44.7881 7.72494 44.6194 7.70619L44.6756 7.78119H44.4881C44.4881 7.87494 44.5256 8.04369 44.4881 8.11869C44.6006 8.19369 44.5631 8.02494 44.6569 8.11869C44.5819 8.11869 44.5819 8.21244 44.6194 8.26869C44.5819 8.13744 44.7506 8.17494 44.8256 8.23119C44.9006 8.34369 44.8631 8.47494 44.8256 8.47494L44.6756 8.41869C44.7881 8.45619 44.6756 8.47494 44.7319 8.53119C44.8069 8.53119 44.9194 8.53119 45.0131 8.51244C45.0881 8.56869 45.0131 8.66244 45.0506 8.68119L44.9381 8.60619C45.0319 8.73744 44.8069 8.71869 44.9006 8.84994H44.9944C44.9944 8.88744 44.9756 8.92494 44.9194 8.90619C44.9944 8.90619 45.0131 8.99994 45.0506 9.01869L44.9944 9.05619C45.0506 9.09369 45.2194 9.13119 45.1444 9.26244C45.2381 9.14994 45.1069 9.18744 45.1069 9.05619C45.1631 8.94369 45.2569 9.13119 45.2756 9.14994C45.1444 9.20619 45.3319 9.31869 45.3694 9.41244C45.3319 9.48744 45.3319 9.52494 45.3131 9.56244H45.4256C45.2569 9.65619 45.5381 9.71244 45.5006 9.82494C45.4256 9.78744 45.3506 9.82494 45.3506 9.89994C45.4631 9.76869 45.5756 9.99369 45.6506 9.93744C45.6506 10.1249 45.4631 9.93744 45.3694 10.0312C45.5006 10.0874 45.3506 10.2374 45.5006 10.2562C45.5006 10.1249 45.5944 10.2562 45.6694 10.2562C45.7069 10.4062 45.5944 10.2562 45.5756 10.3687C45.6131 10.4249 45.7444 10.4999 45.7631 10.3687C45.7631 10.4624 45.9319 10.5374 45.8569 10.6687C45.7819 10.7249 45.7819 10.4812 45.7256 10.5562C45.7631 10.7812 45.9694 10.6312 46.0256 10.8374C46.0631 10.7437 46.2319 10.7999 46.3069 10.8937C46.3069 11.1374 46.2319 10.7999 46.1381 10.8937L46.1756 10.9874C46.0444 11.1374 45.8756 10.7437 45.7631 10.8937L45.8381 10.9874C45.7819 10.9874 45.7069 10.9499 45.6694 10.9874C45.7819 10.9874 45.7256 11.2124 45.7631 11.2312C45.8569 11.2312 45.7256 11.1562 45.8006 11.1562C45.8381 11.2499 46.0069 11.2874 45.9506 11.4562C45.8756 11.3624 45.8194 11.5124 45.7631 11.4562C45.7256 11.5312 45.8756 11.4562 45.8194 11.5874H45.7631C45.7819 11.9999 45.7631 12.5062 45.9506 12.9187C45.8381 12.9749 45.8194 13.1062 45.7256 13.3124C45.7631 13.2187 45.8194 13.3124 45.8194 13.3874L45.6881 13.4624C45.6131 13.5749 45.6694 13.7437 45.6881 13.8749C45.6694 13.8749 45.6319 13.8749 45.5944 13.8749C45.5006 13.9687 45.6319 14.0062 45.6319 14.0437L45.5381 14.0999L45.6131 14.1374C45.6319 14.2687 45.5569 14.3999 45.4444 14.3437C45.4444 14.3999 45.4444 14.4374 45.5194 14.3999C45.4069 14.4749 45.3131 14.7562 45.2756 14.9624C45.3506 14.8874 45.3694 14.9062 45.4444 14.9249C45.5569 14.9999 45.4069 14.9624 45.4444 15.0562C45.4069 15.0562 45.3131 15.1124 45.3319 14.9999C45.0506 15.1687 45.0506 15.5624 44.8256 15.8437C44.8069 15.9187 44.8256 15.8999 44.8444 15.9562C44.6381 16.0687 44.6006 16.3687 44.4131 16.5187C44.4881 16.5187 44.5631 16.6499 44.4881 16.7624C44.4881 16.9499 44.3381 16.7062 44.2069 16.7624C44.2069 16.8374 44.1319 16.9312 44.0944 16.9687C44.0944 17.0437 44.0194 17.1562 43.9256 17.1937C43.8694 17.2312 43.7569 17.2499 43.7194 17.3062C43.7569 17.3999 43.5694 17.4937 43.6069 17.5874C43.6069 17.5874 43.6069 17.5874 43.5694 17.5687L43.6256 17.6437L43.4756 17.7187C43.4756 17.6624 43.4756 17.6437 43.4756 17.5874C43.3069 17.6624 43.4756 17.6812 43.4569 17.7749C43.4006 17.9062 43.3631 17.8312 43.2881 17.8499C43.2881 17.7749 43.3631 17.8124 43.3819 17.7749C43.3819 17.6812 43.3069 17.7937 43.2694 17.7749C43.2506 17.7749 43.3069 17.8874 43.2319 17.9249C43.1569 17.9624 43.0444 18.0937 43.0069 17.9999C42.9881 18.0749 42.9131 18.1124 42.9131 18.1687C42.9694 18.1499 43.0819 18.0937 43.1194 18.1312C43.0819 18.1687 43.0069 18.2624 42.9694 18.2437V18.2062C42.9694 18.2437 42.8194 18.3187 42.9319 18.3374H42.7631C42.7631 18.3937 42.6694 18.4499 42.5944 18.5249C42.5381 18.4499 42.5381 18.3187 42.3881 18.3937L42.3131 18.5437C42.2569 18.5999 42.2194 18.5812 42.2006 18.5437C41.9381 18.6374 42.0881 18.8999 41.8444 18.9187C41.8819 18.7874 41.8069 18.8062 41.6944 18.8249C41.6944 18.8437 41.6944 18.8812 41.6756 18.8999C41.7319 18.9374 41.6756 18.8062 41.7881 18.8437C41.8444 18.8999 41.7319 18.9187 41.6944 18.9562C41.4319 18.8249 41.0944 19.1437 40.7569 19.1437C40.8131 19.2749 40.6444 19.2374 40.5881 19.2937C40.5694 19.1624 40.4194 19.3687 40.3256 19.2937L40.4006 19.4062C40.1944 19.3687 40.1381 19.6874 39.9881 19.5562C39.8756 19.5374 39.9881 19.4437 40.0444 19.4062C39.8756 19.2937 39.6881 19.5937 39.5381 19.4437C39.5381 19.4999 39.5944 19.5749 39.4631 19.6499C39.3506 19.6124 39.1444 19.5562 39.1631 19.5374C39.0881 19.5749 39.0694 19.6124 38.9756 19.5749C38.9756 19.5374 39.0131 19.5374 39.0506 19.5187C38.9006 19.4812 38.7881 19.5562 38.6569 19.6124C38.5819 19.5187 38.3194 19.5749 38.1506 19.4999C38.0569 19.6312 37.8881 19.4249 37.8694 19.5937C37.8694 19.5749 37.8694 19.5562 37.8506 19.5374C37.7944 19.5937 37.7194 19.6874 37.6444 19.6874L37.6819 19.5749C37.7194 19.4437 37.4569 19.5187 37.4381 19.4437C37.4944 19.5562 37.3444 19.4437 37.3256 19.5187H37.2319C37.0819 19.5374 37.1944 19.5937 37.0256 19.5749C36.9131 19.5749 37.0256 19.4437 37.0444 19.4624C36.9694 19.3874 36.8756 19.4062 36.7819 19.4062C36.8194 19.4062 36.8194 19.4249 36.7819 19.4437C36.7819 19.4437 36.7819 19.4249 36.7631 19.4062C36.7256 19.4062 36.6881 19.4062 36.6694 19.4062C36.7069 19.4062 36.7444 19.4062 36.7631 19.4062C36.7444 19.3874 36.7069 19.3687 36.6694 19.3687C36.6319 19.3687 36.6131 19.3499 36.5944 19.3312L36.6506 19.2562C36.5944 19.2374 36.3881 19.2937 36.3881 19.3312C36.1444 19.1812 35.6569 19.0874 35.5256 19.0874C35.6006 19.1062 35.6569 19.0499 35.6006 19.0874C35.5069 19.0874 35.3944 19.0874 35.4131 19.0499C35.3194 19.0499 35.3569 18.9562 35.2444 18.8999C35.2444 18.8999 35.1881 18.9749 35.2444 18.9749C35.0944 18.7687 34.7381 18.8249 34.5506 18.5999C34.5506 18.6374 34.6256 18.5999 34.6631 18.5812C34.4756 18.5062 34.2694 18.4499 34.0631 18.4312C34.1006 18.4124 34.1194 18.3749 34.1756 18.3937C34.0819 18.3374 33.9881 18.2812 33.8944 18.2624C33.9319 18.3749 33.7444 18.3374 33.6694 18.2624C33.5569 18.1499 33.5194 18.2062 33.4069 18.0937C33.3694 17.9999 33.4819 18.1312 33.4819 18.0562C33.5381 17.9249 33.2944 17.7749 33.2944 17.7374C33.2381 17.7374 33.2006 17.7187 33.1819 17.7374C33.0694 17.6812 33.2006 17.6437 33.1444 17.5874C33.0131 17.5874 32.8819 17.5687 32.7694 17.5499C32.7881 17.5124 32.7881 17.4187 32.8819 17.4374C32.7694 17.3249 32.6569 17.3062 32.5256 17.2687C32.4131 17.1374 32.3006 16.9874 32.1881 16.8374C32.2631 16.8749 32.2631 16.7249 32.3381 16.7624C32.2256 16.6874 32.0756 16.4249 32.0006 16.2562C31.9444 16.4437 31.8131 16.1249 31.7006 16.1624C31.6819 16.1249 31.6631 16.0874 31.6256 16.0499C31.6256 15.9937 31.7006 15.9937 31.7006 15.9187C31.5319 15.7499 31.4756 15.5249 31.3631 15.3562C31.3631 15.3562 31.3631 15.3562 31.4006 15.3562C31.2694 15.2062 31.1944 14.9249 31.0256 14.7749C31.0631 14.7749 31.0819 14.7562 31.1006 14.7749C31.1006 14.6624 31.0256 14.6812 30.9881 14.6812C30.9881 14.6437 30.9506 14.6062 30.9506 14.5687H31.0069C30.8756 14.4749 30.9881 14.2874 30.8381 14.1562C30.8756 14.1562 30.8944 14.1749 30.9319 14.1937C30.8756 14.0812 30.8381 13.9687 30.7631 13.8749C30.7631 13.8374 30.7444 13.7999 30.7444 13.7624C30.7819 13.7624 30.8006 13.7624 30.8381 13.7999C30.8381 13.6874 30.7631 13.6687 30.7256 13.5937C30.7256 13.5562 30.7256 13.5374 30.7256 13.4999C30.7256 13.4624 30.7631 13.3687 30.7819 13.4062C30.7256 13.3687 30.7069 13.2562 30.6694 13.1624C30.6694 13.1249 30.6694 13.0874 30.6694 13.0312C30.6881 12.9937 30.7069 12.9562 30.7444 12.8812C30.6881 12.1499 30.7444 11.3999 30.7444 10.6499C30.7444 10.6124 30.7444 10.5749 30.7444 10.5562C30.8756 10.4812 30.8006 10.7437 30.8944 10.6874C30.7819 10.6874 30.8756 10.5562 30.8944 10.3124H30.9131C30.9131 10.1999 31.0069 10.1624 30.9881 10.0687H30.9506C30.9131 9.93744 31.1569 9.86244 31.0256 9.76869L31.1381 9.71244C31.0444 9.56244 31.2319 9.56244 31.1756 9.39369H31.1944C31.3256 9.26244 31.1944 8.99994 31.3256 8.98119C31.3631 8.86869 31.4006 8.73744 31.3819 8.64369C31.3819 8.64369 31.3819 8.60619 31.4006 8.58744C31.4381 8.58744 31.4569 8.62494 31.4756 8.64369C31.6256 8.23119 31.8694 7.85619 32.0756 7.48119C32.7319 6.58119 33.5756 5.83119 34.5319 5.26869C34.8694 5.11869 35.1694 4.96869 35.4506 4.79994C35.6006 4.74369 35.7506 4.68744 35.9006 4.63119C35.9006 4.64994 35.9194 4.66869 35.9569 4.66869C36.0131 4.61244 36.0881 4.59369 36.1444 4.55619C36.8944 4.33119 37.6819 4.19994 38.5069 4.19994C39.3319 4.19994 38.9006 4.19994 39.0881 4.23744M73.3444 31.3124C74.2819 30.6937 75.2194 29.9812 75.6131 29.7374C75.7069 29.6812 75.7444 29.6624 75.7819 29.6437C74.9569 30.2812 74.2069 30.8249 73.5131 31.2937C73.5131 31.2937 73.4944 31.2937 73.4381 31.2937C73.0256 31.5749 72.7819 31.7437 72.5381 31.9124C72.2381 32.0999 71.9569 32.2499 71.6756 32.3999C71.6569 32.3999 71.6194 32.4187 71.6006 32.4374C71.4694 32.4937 71.3569 32.5499 71.2444 32.6249C71.5631 32.4374 72.4444 31.9124 73.3444 31.3124ZM67.5319 20.8499C67.4006 20.7374 67.2506 20.6437 67.1006 20.5312C67.1381 20.5499 67.1756 20.5687 67.2131 20.6062C67.3256 20.6999 67.4194 20.7749 67.5131 20.8499M68.0006 21.2437C67.9069 21.1499 67.7944 21.0562 67.7006 20.9624C67.8131 21.0562 67.9069 21.1499 68.0006 21.2437ZM30.8756 67.5562C31.2319 67.8562 31.5694 68.1374 31.8506 68.3624C31.5506 68.1374 31.2131 67.8562 30.8756 67.5562ZM32.6756 68.9812C32.9194 69.1499 32.8819 69.1312 32.6756 68.9812Z" fill="var(--fill-0, #005798)"/>
<path id="Vector_3" d="M27.4257 63.9749C27.5194 64.0874 27.6882 64.2937 27.9132 64.5562C27.8569 64.4999 27.8194 64.4437 27.7819 64.3874C27.6694 64.2562 27.5569 64.1062 27.4257 63.9749Z" fill="var(--fill-0, #241F21)"/>
<path id="Vector_4" d="M7.11966 12.0562C7.21341 12.2062 7.30716 12.3187 7.38216 12.4124C7.28841 12.2999 7.19466 12.1687 7.11966 12.0562Z" fill="var(--fill-0, #241F21)"/>
<path id="Vector_5" d="M21.6696 12.9749C21.7633 13.0312 21.8383 13.0874 21.9133 13.1062C21.8008 13.0312 21.7258 12.9937 21.6696 12.9749Z" fill="var(--fill-0, #241F21)"/>
<path id="Vector_6" d="M29.1132 16.9124C29.1507 16.9499 29.1694 16.9687 29.1694 16.9687C29.1694 16.9687 29.1694 16.9687 29.1132 16.9124Z" fill="var(--fill-0, #241F21)"/>
<path id="Vector_7" d="M38.4508 71.9249C38.4508 72.0749 38.4508 72.2249 38.4508 72.3562C38.4696 72.3749 38.4696 72.1874 38.4508 71.9249Z" fill="var(--fill-0, #241F21)"/>
<path id="Vector_8" d="M64.4194 64.4999C64.4007 64.5186 64.3819 64.5561 64.3632 64.5749C64.4007 64.5186 64.4194 64.4999 64.4194 64.4999Z" fill="var(--fill-0, #241F21)"/>
<path id="Vector_9" d="M54.1819 35.8874C54.2194 35.8874 54.2569 35.8874 54.3131 35.8874C54.3881 35.8687 54.3506 35.8687 54.1631 35.8874" fill="var(--fill-0, #241F21)"/>
<path id="Vector_10" d="M78.9131 27.0561C79.2319 26.7749 79.5694 26.4749 79.8319 26.2311C79.5319 26.5124 79.2131 26.7749 78.9131 27.0561Z" fill="var(--fill-0, #241F21)"/>
<path id="Vector_11" d="M41.7134 2.19367C42.0697 2.32492 42.3697 2.43742 42.6322 2.53117C42.7259 2.56867 42.8009 2.60617 42.8947 2.64367C42.8009 2.60617 42.7072 2.54992 42.5947 2.49367C42.3697 2.41867 42.0884 2.32492 41.7134 2.19367Z" fill="var(--fill-0, #241F21)"/>
<path id="Vector_12" d="M54.3322 35.7749C54.3884 35.7561 54.4634 35.7374 54.5197 35.7186C54.3134 35.7749 54.0884 35.8311 53.8822 35.8686C53.1697 36.0561 52.4572 36.2811 51.6134 36.7686C51.0322 37.0499 52.4009 36.2436 51.0509 36.9749C49.9447 37.8186 51.7259 36.5249 54.0322 35.9249C54.0884 35.9249 54.1259 35.9061 54.1634 35.9061C54.0697 35.9061 54.0697 35.8874 54.3322 35.7936" fill="var(--fill-0, #241F21)"/>
<path id="Vector_13" d="M55.5694 35.4562C55.6631 35.4374 55.7756 35.3999 55.8694 35.3812C55.9631 35.3437 56.1131 35.3062 56.1131 35.3062C55.6444 35.4187 55.2694 35.5124 54.9881 35.5874C54.8006 35.6437 54.6506 35.6812 54.5381 35.7187C54.6881 35.6812 54.8381 35.6437 54.9881 35.6062C55.1756 35.5687 55.3631 35.5124 55.5694 35.4562Z" fill="var(--fill-0, #241F21)"/>
<path id="Vector_14" d="M56.1695 35.3999C56.2258 35.3999 56.282 35.3999 56.3383 35.3812C56.4508 35.3812 56.582 35.3437 56.582 35.3437C56.7133 35.2874 56.6008 35.2874 56.9008 35.2124C56.5633 35.2499 56.4695 35.3249 56.0008 35.4374C56.0195 35.4374 56.057 35.4374 56.0945 35.4374C56.1133 35.4374 56.132 35.4374 56.1695 35.4374" fill="var(--fill-0, #241F21)"/>
<path id="Vector_15" d="M49.9444 31.3312L50.2631 36.8999C50.1881 34.9124 50.0194 31.5562 49.9444 31.3312Z" fill="var(--fill-0, #241F21)"/>
<path id="Vector_16" d="M43.0446 21.5437C43.0446 21.5437 43.0446 21.5625 43.0446 21.5812C43.0446 21.5812 43.1008 21.5812 43.1196 21.5812C43.2133 21.5437 43.2883 21.4875 43.0446 21.5437Z" fill="var(--fill-0, #241F21)"/>
<path id="Vector_17" d="M45.032 20.2312C45.0883 20.1937 45.1445 20.1562 45.2008 20.1187C45.2008 20.1187 45.1258 20.1749 45.032 20.2312Z" fill="var(--fill-0, #241F21)"/>
<path id="Vector_18" d="M45.0322 20.2312C44.8259 20.3812 44.6009 20.5124 44.3384 20.6999C44.1697 20.7937 43.9822 20.9062 43.7572 21.0374C43.6447 21.1124 43.5322 21.1687 43.4009 21.2249C43.3072 21.2624 43.2134 21.3187 43.1197 21.3749C43.1197 21.4124 43.1197 21.4124 43.2134 21.3749C43.4197 21.2812 43.7009 21.1312 44.0009 20.9437C44.4134 20.6999 44.8259 20.3812 45.0509 20.2124" fill="var(--fill-0, #241F21)"/>
<path id="Vector_19" d="M31.5883 4.23737C31.8133 4.01237 32.0758 3.82487 32.3196 3.63737C32.5446 3.44987 32.7696 3.29987 32.9383 3.20612C33.2008 3.01862 32.6383 3.31862 32.0008 3.82487C31.6633 4.06862 31.3633 4.40612 31.0633 4.66862C30.7821 4.96862 30.5571 5.23112 30.3883 5.38112C30.6696 5.11862 31.0821 4.63112 31.5696 4.21862" fill="var(--fill-0, #241F21)"/>
<path id="Vector_20" d="M29.3194 17.0249C29.2257 16.9124 29.2257 16.8936 29.1694 16.7811C29.1694 16.8186 29.1507 16.8374 29.1132 16.8374C29.1694 16.9124 29.3757 17.1186 29.3194 17.0249Z" fill="var(--fill-0, #241F21)"/>
<path id="Vector_21" d="M45.9134 26.9999C45.8572 26.9437 45.8009 26.9062 45.7447 26.8499C46.0634 27.2437 46.3259 27.6562 46.5509 28.1062C46.3822 27.7124 46.1759 27.3374 45.9134 26.9999Z" fill="var(--fill-0, #241F21)"/>
<path id="Vector_22" d="M32.3944 65.3062C32.5819 65.4749 32.1507 65.2499 33.3694 66.2437C31.9444 65.0249 33.4632 66.2437 32.3944 65.3062Z" fill="var(--fill-0, #241F21)"/>
</g>
</svg>
