<svg preserveAspectRatio="none" width="100%" height="100%" overflow="visible" style="display: block;" viewBox="0 0 9 9" fill="none" xmlns="http://www.w3.org/2000/svg">
<path id="Vector" d="M4.22472 8.51752C3.01765 8.51752 2.01175 8.11521 1.20703 7.3105C0.40231 6.50578 0 5.2987 0 4.2928C0 3.2869 0 3.68921 0 3.48803C0 3.28685 -4.91191e-05 2.88445 0.201131 2.68327C0.201131 2.48209 0.402212 2.0798 0.603392 1.87862C0.603392 1.67744 1.00585 1.47629 1.20703 1.27511C1.20703 1.27511 1.60924 0.872651 1.81042 0.671471C2.0116 0.671471 2.21283 0.47039 2.61519 0.26921C2.81637 0.26921 3.21878 0.269136 3.41996 0.0679568C4.82821 -0.133223 6.23652 0.0680305 7.24242 1.27511C7.24242 1.27511 7.64463 1.67744 7.84581 1.87862C7.84581 2.0798 8.04714 2.28091 8.24832 2.68327C8.24832 2.88445 8.44945 3.28685 8.44945 3.48803C8.44945 3.68921 8.44945 4.09162 8.44945 4.2928C8.44945 5.49988 8.04714 6.50578 7.24242 7.3105C6.4377 8.11521 5.23062 8.51752 4.22472 8.51752Z" fill="var(--fill-0, #005798)"/>
</svg>
