<svg preserveAspectRatio="none" width="100%" height="100%" overflow="visible" style="display: block;" viewBox="0 0 71 85" fill="none" xmlns="http://www.w3.org/2000/svg">
<path id="Vector" d="M63.3352 7.12669C61.7258 5.31607 61.927 2.70073 63.7376 1.0913C65.5482 -0.518139 68.1635 -0.316935 69.773 1.49368C71.3824 3.3043 71.1812 5.91963 69.3706 7.52907C68.5659 8.33379 67.5599 8.53497 66.554 8.53497C65.5481 8.53497 64.1399 8.13258 63.3352 7.12669ZM53.075 16.7833C51.4655 14.9727 51.4655 12.3574 53.075 10.748C54.8856 9.13852 57.5009 9.13852 59.1104 10.748C60.7198 12.5586 60.7198 15.1739 59.1104 16.7833C58.3056 17.5881 57.0986 17.9904 56.0927 17.9904C55.0868 17.9904 53.8797 17.588 53.075 16.5822M43.2172 27.0435C41.4066 25.434 41.4066 22.6175 43.2172 21.0081C44.8267 19.1974 47.6432 19.1974 49.2526 21.0081C51.0633 22.6175 51.0633 25.434 49.2526 27.0435C48.4479 28.0494 47.2408 28.4517 46.0337 28.4517C44.8266 28.4517 43.8207 28.0494 43.016 27.2446M33.9629 37.706C32.1523 36.0966 31.9512 33.4812 33.5607 31.6706C35.1701 29.86 37.7854 29.6588 39.596 31.2682C41.4067 32.8777 41.6077 35.493 39.9983 37.3036C39.1936 38.3095 37.9866 38.9131 36.7795 38.9131C35.5724 38.9131 34.7676 38.5107 33.9629 37.9072M25.1111 48.7709C23.3005 47.3626 22.8981 44.5461 24.3063 42.7355C25.7146 40.9249 28.5311 40.5225 30.3417 41.9308C32.1523 43.3391 32.5547 46.1556 31.1465 47.9662C30.3418 48.9721 28.9335 49.5756 27.7264 49.5756C26.5193 49.5756 25.9158 49.3744 25.1111 48.5697M16.8626 60.2381C14.8508 58.8298 14.4485 56.2145 15.8567 54.2027C17.265 52.1909 19.8803 51.7885 21.8921 53.1968C23.9039 54.6051 24.3063 57.2204 22.898 59.2322C22.0933 60.4393 20.6851 61.0429 19.2768 61.0429C17.8686 61.0429 17.4662 60.8416 16.8626 60.2381ZM9.21785 72.1077C7.20605 70.9007 6.60249 68.0841 7.80956 66.0723C9.01664 64.0606 11.8332 63.457 13.845 64.6641C15.8567 65.8711 16.4603 68.6877 15.2532 70.6995C14.4485 72.1077 13.0403 72.7112 11.632 72.7112C10.2238 72.7112 10.0226 72.5101 9.4191 72.1077M2.17656 84.3796C0.164764 83.1726 -0.63993 80.5572 0.567147 78.5454C1.77422 76.5336 4.38961 75.729 6.4014 76.936C8.4132 78.1431 9.21789 80.7584 8.01082 82.7702C7.2061 84.1785 5.79779 84.9832 4.18836 84.9832C2.57892 84.9832 2.78015 84.9832 1.97543 84.3796" fill="var(--fill-0, #005798)"/>
</svg>
