<svg preserveAspectRatio="none" width="100%" height="100%" overflow="visible" style="display: block;" viewBox="0 0 145 87" fill="none" xmlns="http://www.w3.org/2000/svg">
<path id="Vector" d="M1.20708 7.24247C-0.402359 5.63303 -0.402359 2.81651 1.20708 1.20708C2.81651 -0.402359 5.63303 -0.402359 7.24247 1.20708C8.8519 2.81651 8.8519 5.63303 7.24247 7.24247C6.43775 8.04718 5.23067 8.44949 4.22477 8.44949C3.21887 8.44949 2.0118 8.04718 1.20708 7.24247ZM11.8696 17.3014C10.059 15.692 10.059 12.8755 11.6684 11.2661C13.2779 9.45544 16.0944 9.45549 17.7038 11.0649C19.5144 12.6744 19.5144 15.4909 17.905 17.1003C17.1002 18.1062 15.8932 18.5085 14.6861 18.5085C13.4791 18.5085 12.6743 18.1062 11.8696 17.3014ZM22.9345 26.958C21.1238 25.3486 20.9227 22.7333 22.3309 20.9227C23.9404 19.112 26.5557 18.9109 28.3663 20.3191C30.1769 21.7274 30.3781 24.5439 28.9698 26.3545C28.1651 27.3604 26.958 27.9639 25.5498 27.9639C24.1415 27.9639 23.538 27.5616 22.7333 26.958M34.2005 36.0111C32.3898 34.6029 31.9876 31.7864 33.3958 29.9757C34.8041 28.1651 37.6206 27.7628 39.4312 29.1711C41.443 30.5793 41.6441 33.3959 40.2358 35.2065C39.4311 36.4136 38.023 37.017 36.8159 37.017C35.6088 37.017 35.0052 36.8159 34.2005 36.2124M46.2712 44.4607C44.2594 43.0524 43.8571 40.4371 45.0642 38.4253C46.4725 36.4135 49.0878 36.0112 51.0996 37.2183C53.1114 38.6265 53.5137 41.2419 52.3066 43.2537C51.5019 44.4607 50.0937 45.0642 48.6854 45.0642C47.2772 45.0642 47.076 44.8631 46.2712 44.2596M84.0931 66.3893C81.8801 65.3834 81.0754 62.768 82.0813 60.5551C83.0872 58.3421 85.7025 57.5374 87.9154 58.5433C90.1284 59.5492 90.9331 62.1645 89.9272 64.3775C89.1225 65.987 87.7143 66.7916 86.1049 66.7916C84.4955 66.7916 84.8978 66.7917 84.2942 66.3893M97.3709 72.4247C95.1579 71.4188 94.1521 69.0046 95.158 66.7916C96.1639 64.5786 98.578 63.5728 100.791 64.5786C103.004 65.5845 104.01 67.9987 103.004 70.2117C102.4 71.8211 100.791 72.827 98.9803 72.827C97.1697 72.827 97.7733 72.8271 97.3709 72.4247ZM111.051 77.8565C108.838 77.0517 107.631 74.6376 108.436 72.2234C109.24 70.0105 111.655 68.8034 114.069 69.6081C116.282 70.4129 117.489 72.827 116.684 75.2411C116.081 77.0518 114.471 78.0577 112.66 78.0577C110.85 78.0577 111.655 78.0576 111.252 77.8565M124.933 82.4837C122.72 81.679 121.311 79.2648 122.116 77.0518C122.921 74.8388 125.335 73.4305 127.548 74.2352C129.761 75.04 131.169 77.4541 130.364 79.6671C129.761 81.4777 128.151 82.6848 126.341 82.6848C124.53 82.6848 125.536 82.6849 125.134 82.4837M138.814 86.7084C136.601 86.1049 135.193 83.6908 135.796 81.4778C136.4 79.0636 138.814 77.8566 141.027 78.4601C143.24 79.0636 144.648 81.4777 144.045 83.6907C143.441 85.7025 141.832 86.9095 139.82 86.9095C137.808 86.9095 139.015 86.9095 138.814 86.9095" fill="var(--fill-0, #005798)"/>
</svg>
