<svg preserveAspectRatio="none" width="100%" height="100%" overflow="visible" style="display: block;" viewBox="0 0 9 9" fill="none" xmlns="http://www.w3.org/2000/svg">
<path id="Vector" d="M4.22472 8.44957C4.02354 8.44957 3.62113 8.44957 3.41996 8.44957C3.21878 8.44957 2.81637 8.44962 2.61519 8.24844C2.41401 8.24844 2.0116 8.04723 1.81042 7.84605C1.60924 7.84605 1.40821 7.44372 1.20703 7.24254C0.40231 6.43782 0 5.23074 0 4.22485C0 3.21895 0 3.62126 0 3.42008C0 3.2189 -4.91191e-05 2.81661 0.201131 2.61543C0.201131 2.41425 0.402212 2.01185 0.603392 1.81067C0.603392 1.60949 1.00585 1.40833 1.20703 1.20715C1.40821 1.00597 1.60924 0.804817 1.81042 0.603637C2.0116 0.603637 2.21283 0.402433 2.61519 0.201253C2.81637 0.201253 3.21878 0.20118 3.41996 0C4.02349 0 4.62713 0 5.02949 0C5.23067 0 5.63283 7.36712e-05 5.83401 0.201253C6.03519 0.201253 6.4376 0.402457 6.63878 0.603637C6.83996 0.603637 7.04124 1.00597 7.24242 1.20715C7.4436 1.20715 7.64463 1.60949 7.84581 1.81067C7.84581 2.01185 8.04714 2.21307 8.24832 2.61543C8.24832 2.81661 8.24827 3.2189 8.44945 3.42008C8.44945 3.62126 8.44945 4.02367 8.44945 4.22485C8.44945 5.43192 8.04714 6.43782 7.24242 7.24254C7.04124 7.24254 6.83996 7.64487 6.63878 7.84605C6.4376 7.84605 6.23637 8.04726 5.83401 8.24844C5.63283 8.24844 5.23067 8.24839 5.02949 8.44957C4.82831 8.44957 4.4259 8.44957 4.22472 8.44957Z" fill="var(--fill-0, #005798)"/>
</svg>
