<svg preserveAspectRatio="none" width="100%" height="100%" overflow="visible" style="display: block;" viewBox="0 0 23 117" fill="none" xmlns="http://www.w3.org/2000/svg">
<path id="Vector" d="M4.42598 8.66597C2.01182 8.66597 0.201204 6.45302 0.402384 4.03886C0.402384 1.62471 2.61534 -0.18591 5.02949 0.0152693C7.44365 0.0152693 9.25426 2.22822 9.05308 4.64238C9.05308 6.85535 7.04134 8.66597 4.82836 8.66597H4.62711H4.42598ZM4.22472 22.3462C1.81057 22.3462 0 20.3345 0 17.9203C0 15.5061 2.01182 13.6955 4.42598 13.6955C6.84013 13.6955 8.6507 15.7073 8.6507 18.1214C8.6507 20.5356 6.63895 22.3462 4.42598 22.3462H4.22472ZM0.201131 31.8016C0.201131 29.3875 2.01182 27.3756 4.42598 27.3756C6.84013 27.3756 8.85195 29.1863 8.85195 31.6005C8.85195 34.0146 7.04126 36.0265 4.62711 36.0265C2.21295 36.0265 0.402384 34.2158 0.402384 31.8016M1.0059 45.6831C1.0059 43.2689 2.61534 41.2571 5.02949 41.056C7.44365 40.8548 9.45542 42.6654 9.6566 45.0795C9.6566 47.4937 8.04716 49.5055 5.633 49.7067C5.633 49.7067 5.4318 49.7067 5.23062 49.7067C3.01765 49.7067 1.20708 47.896 1.0059 45.6831ZM2.41418 59.3633C2.01182 56.9491 3.82236 54.7361 6.23652 54.5349C8.65067 54.1325 10.8637 55.9432 11.0649 58.3574C11.4672 60.7715 9.65657 62.9845 7.24242 63.1857C7.24242 63.1857 6.84008 63.1857 6.6389 63.1857C4.42593 63.1857 2.61536 61.5762 2.41418 59.3633ZM4.42598 73.0434C4.02362 70.6293 5.63308 68.4163 7.84605 68.014C10.2602 67.6116 12.4732 69.2211 12.8755 71.434C13.2779 73.8482 11.6684 76.0612 9.45547 76.4635C9.25429 76.4635 9.05306 76.4635 8.6507 76.4635C6.6389 76.4635 4.82834 75.0553 4.42598 72.8423M7.24242 86.7236C6.63888 84.3095 8.24839 82.0965 10.4614 81.493C12.8755 80.8895 15.0884 82.4989 15.692 84.7118C16.2955 87.126 14.6861 89.339 12.4732 89.9426C12.0708 89.9426 11.8696 89.9426 11.4673 89.9426C9.45547 89.9426 7.64478 88.5343 7.24242 86.5225M10.4614 100.203C9.85783 97.9897 11.2661 95.5756 13.4791 94.9721C15.692 94.3685 18.1061 95.7768 18.7097 97.9898C19.3132 100.203 17.905 102.617 15.692 103.22C15.2896 103.22 14.8873 103.22 14.485 103.22C12.6743 103.22 10.8637 102.013 10.2601 100.002M14.485 113.481C13.6802 111.268 15.0884 108.853 17.3014 108.049C19.5144 107.244 21.9286 108.652 22.7333 110.865C23.538 113.078 22.1298 115.492 19.9168 116.297C19.5145 116.297 19.1121 116.498 18.5085 116.498C16.6979 116.498 15.0885 115.291 14.485 113.481Z" fill="var(--fill-0, #005798)"/>
</svg>
