<svg preserveAspectRatio="none" width="100%" height="100%" overflow="visible" style="display: block;" viewBox="0 0 24 24" fill="none" xmlns="http://www.w3.org/2000/svg">
<path id="Vector" d="M20.118 10.1394C18.1062 7.92644 15.4909 8.12772 12.6744 10.7431L8.65082 14.3643L14.4848 20.802L18.3073 17.382C20.9226 14.9678 21.9286 12.3524 19.9168 10.1394M7.84605 12.956L11.6685 9.5359C13.278 7.92647 14.686 5.51236 12.473 3.29939C10.8636 1.48877 8.65077 1.4887 5.83426 4.10403L2.41406 7.12173L7.84605 13.1571V12.956ZM21.5261 8.93239C23.7391 11.5477 23.7392 14.7665 19.9168 18.1866L14.4848 23.015L0 6.92059L5.02949 2.49462C8.04718 -0.120716 11.065 -1.12654 13.6803 1.68997C15.0886 3.29941 15.6919 5.51239 14.4848 7.72536C16.4966 6.51828 19.3131 6.51824 21.5261 8.93239Z" fill="var(--fill-0, #005798)"/>
</svg>
