<svg preserveAspectRatio="none" width="100%" height="100%" overflow="visible" style="display: block;" viewBox="0 0 9 9" fill="none" xmlns="http://www.w3.org/2000/svg">
<path id="Vector" d="M4.22485 8.44957C3.01777 8.44957 2.01187 8.04713 1.20715 7.24242C1.20715 7.04124 0.804817 6.84008 0.603637 6.6389C0.603637 6.43772 0.402433 6.23662 0.201253 5.83426C0.201253 5.63308 0 5.23067 0 5.02949C0 4.82831 0 4.4259 0 4.22472C0 3.01764 0.402433 2.01175 1.20715 1.20703C1.20715 1.00585 1.60949 0.804694 1.81067 0.603514C2.01185 0.603514 2.21307 0.40231 2.61543 0.20113C2.81661 0.20113 3.2189 0.20118 3.42008 0C4.02362 0 4.62713 0 5.02949 0C5.23067 0 5.63308 -4.91191e-05 5.83426 0.20113C6.03544 0.20113 6.43785 0.402335 6.63903 0.603514C6.8402 0.603514 7.04136 1.00585 7.24254 1.20703C7.24254 1.20703 7.64487 1.60949 7.84605 1.81067C7.84605 2.01185 8.04726 2.21295 8.24844 2.61531C8.24844 2.81649 8.24839 3.2189 8.44957 3.42008C8.44957 3.62126 8.44957 4.02354 8.44957 4.22472C8.44957 5.4318 8.04726 6.4377 7.24254 7.24242C7.24254 7.4436 6.8402 7.64487 6.63903 7.84605C6.43785 7.84605 6.23662 8.24831 5.83426 8.24831C5.63308 8.24831 5.23067 8.24839 5.02949 8.44957C4.82831 8.44957 4.42602 8.44957 4.22485 8.44957Z" fill="var(--fill-0, #005798)"/>
</svg>
