<svg preserveAspectRatio="none" width="100%" height="100%" overflow="visible" style="display: block;" viewBox="0 0 23 109" fill="none" xmlns="http://www.w3.org/2000/svg">
<path id="Vector" d="M13.3054 4.42598C13.3054 2.01182 15.116 0 17.5302 0C19.9443 0 21.9563 1.81057 21.9563 4.22472C21.9563 6.63888 20.1457 8.6507 17.7315 8.6507C15.3174 8.6507 13.5066 6.84013 13.5066 4.42598M17.9327 23.1357C15.5185 23.1357 13.7079 21.1238 13.7079 18.7097C13.7079 16.2955 15.7196 14.485 18.1338 14.485C20.548 14.485 22.3585 16.4968 22.3585 18.9109C22.3585 21.3251 20.3468 23.1357 18.1338 23.1357H17.9327ZM17.1279 37.6206C14.7137 37.6206 12.9031 35.4077 13.1043 32.9935C13.1043 30.5794 15.3174 28.7687 17.7315 28.9699C20.1457 28.9699 21.9563 31.1829 21.7551 33.597C21.7551 35.81 19.7431 37.6206 17.5302 37.6206C15.3172 37.6206 17.5302 37.6206 17.329 37.6206M15.7197 51.9043C13.3056 51.7031 11.6961 49.4902 11.8973 47.0761C12.0985 44.6619 14.3115 43.0524 16.7256 43.2536C19.1398 43.4548 20.749 45.6678 20.5479 48.082C20.3467 50.295 18.5361 51.9043 16.3231 51.9043C14.1102 51.9043 15.9209 51.9043 15.9209 51.9043M13.7079 66.3893C11.2938 65.9869 9.68425 63.7739 10.0866 61.3598C10.489 58.9456 12.7019 57.3362 15.1161 57.7386C17.5303 58.1409 19.1398 60.3539 18.7374 62.7681C18.3351 64.981 16.5243 66.3893 14.5125 66.3893C12.5007 66.3893 14.1103 66.3893 13.9091 66.3893M10.8914 80.4718C8.47722 80.0695 7.06882 77.6553 7.47118 75.4424C7.87354 73.0282 10.2877 71.6199 12.5007 72.0223C14.9148 72.4246 16.3232 74.8388 15.9209 77.0518C15.5185 79.0636 13.7079 80.4718 11.6961 80.4718C9.68435 80.4718 11.0926 80.4718 10.8914 80.4718ZM7.27005 94.5544C4.85589 93.9509 3.64881 91.5368 4.25235 89.3238C4.85589 87.1108 7.27 85.7026 9.48297 86.3061C11.6959 86.9096 13.1042 89.3238 12.5007 91.5367C11.8971 93.5485 10.2877 94.7556 8.27595 94.7556C6.26415 94.7556 7.47123 94.7556 7.27005 94.7556M3.04532 108.436C0.832349 107.631 -0.575957 105.217 0.228761 103.004C1.03348 100.791 3.44778 99.3827 5.66076 100.187C7.87373 100.992 9.28179 103.406 8.47708 105.619C7.87354 107.43 6.2641 108.637 4.45348 108.637C2.64287 108.637 3.64881 108.637 3.24646 108.637" fill="var(--fill-0, #005798)"/>
</svg>
