<svg preserveAspectRatio="none" width="100%" height="100%" overflow="visible" style="display: block;" viewBox="0 0 9 9" fill="none" xmlns="http://www.w3.org/2000/svg">
<path id="Vector" d="M4.22497 8.51753C3.01789 8.51753 2.01199 8.11516 1.20727 7.31044C0.402556 6.50572 0 5.29865 0 4.29275C0 3.28685 0.402556 2.07977 1.20727 1.27505C1.20727 1.07387 1.60949 0.872658 1.81067 0.671478C2.01185 0.671478 2.21307 0.470336 2.61543 0.269156C2.81661 0.269156 3.21902 0.0679641 3.4202 0.0679641C4.82846 -0.133215 6.23676 0.0679764 7.24266 1.27505C8.04738 2.07977 8.44969 3.28685 8.44969 4.29275C8.44969 5.29865 8.04738 6.50572 7.24266 7.31044C7.24266 7.31044 6.8402 7.71278 6.63903 7.91396C6.43785 7.91396 6.23662 8.11516 5.83426 8.31634C5.63308 8.31634 5.23067 8.31635 5.02949 8.51753C4.82831 8.51753 4.42615 8.51753 4.22497 8.51753Z" fill="var(--fill-0, #005798)"/>
</svg>
