<svg preserveAspectRatio="none" width="100%" height="100%" overflow="visible" style="display: block;" viewBox="0 0 9 9" fill="none" xmlns="http://www.w3.org/2000/svg">
<path id="Vector" d="M4.22472 8.51753C4.02354 8.51753 3.62126 8.51753 3.42008 8.51753C3.2189 8.51753 2.81649 8.51752 2.61531 8.31634C2.41413 8.31634 2.01185 8.11514 1.81067 7.91396C1.60949 7.91396 1.40821 7.51162 1.20703 7.31044C0.40231 6.50572 0 5.29865 0 4.29275C0 3.28685 0 3.68922 0 3.48804C0 3.28686 -4.91191e-05 2.88445 0.20113 2.68327C0.20113 2.48209 0.402335 2.07975 0.603514 1.87857C0.603514 1.67739 1.00585 1.47623 1.20703 1.27505C1.20703 1.27505 1.60949 0.872658 1.81067 0.671478C2.01185 0.671478 2.21295 0.470336 2.61531 0.269156C2.81649 0.269156 3.2189 0.269144 3.42008 0.0679641C4.82833 -0.133215 6.23652 0.0679764 7.24242 1.27505C7.4436 1.47623 7.64487 1.67739 7.84605 1.87857C7.84605 2.07975 8.04713 2.28092 8.24831 2.68327C8.24831 2.88445 8.24839 3.28686 8.44957 3.48804C8.44957 3.68922 8.44957 4.09157 8.44957 4.29275C8.44957 4.49393 8.44957 4.89627 8.44957 5.09745C8.44957 5.29863 8.44949 5.70098 8.24831 5.90216C8.24831 6.10334 8.04723 6.50569 7.84605 6.70687C7.84605 6.90805 7.4436 7.10926 7.24242 7.31044C6.4377 8.11516 5.23062 8.51753 4.22472 8.51753Z" fill="var(--fill-0, #005798)"/>
</svg>
