<svg preserveAspectRatio="none" width="100%" height="100%" overflow="visible" style="display: block;" viewBox="0 0 21 22" fill="none" xmlns="http://www.w3.org/2000/svg">
<path id="Vector" d="M4.82824 20.2898C2.41408 18.8815 0.603539 16.6686 0 13.6509L1.60941 13.0472C2.01177 15.4614 3.62121 17.6744 5.633 18.8815C8.24834 20.2898 10.8637 20.0885 12.0708 18.0767C13.479 15.4614 11.8695 13.6508 9.85773 11.0354C7.84593 8.42011 5.4318 5.80487 7.24242 2.586C8.85185 -0.0293334 12.4732 -0.83415 15.4909 0.976466C17.5026 1.98236 19.1121 3.99418 20.118 6.40834L18.5085 7.01185C17.7038 5.00006 16.2955 3.39065 14.6861 2.38475C12.6743 1.17767 10.0589 1.17767 8.85183 3.39065C7.64475 5.60362 9.25426 7.41426 11.0649 9.82842C13.479 12.8461 15.692 15.2603 13.6802 18.6804C11.8696 21.6981 8.04711 22.1004 4.82824 20.2898Z" fill="var(--fill-0, #005798)"/>
</svg>
