<svg preserveAspectRatio="none" width="100%" height="100%" overflow="visible" style="display: block;" viewBox="0 0 23 21" fill="none" xmlns="http://www.w3.org/2000/svg">
<path id="Vector" d="M12.4452 19.0848L4.398 20.4931C2.18502 18.6825 0.776812 16.0671 0.173274 12.6471C-0.832624 6.61167 2.58743 1.38097 9.22636 0.173894C15.6641 -0.832004 20.8947 2.58815 21.9006 8.82472C22.303 11.6412 21.9006 14.6588 20.09 17.2742L18.883 16.2683C20.2912 14.0553 20.6936 11.6412 20.2912 9.02585C19.4865 3.99636 15.0606 0.978662 9.62874 1.98456C4.19689 2.99046 1.1791 7.014 1.98382 12.2447C2.38618 14.86 3.39215 16.8719 5.20276 18.4813L10.6346 17.4754L9.42749 10.4341H11.0369C11.0369 10.2329 12.6464 18.8837 12.6464 18.8837L12.4452 19.0848Z" fill="var(--fill-0, #005798)"/>
</svg>
