<svg width="109" height="102" viewBox="0 0 109 102" fill="none" xmlns="http://www.w3.org/2000/svg">
<path d="M107.844 38.2156C104.244 26.5156 81.9441 6.41558 70.5441 2.51558C64.1441 0.315581 59.2441 -0.284413 52.5441 0.115587C21.2441 1.81559 -7.4559 41.1156 1.7441 71.4156C5.1441 82.7156 10.8441 93.2156 22.0441 98.1156C44.9441 108.016 84.8441 97.3156 97.9441 75.6156C103.744 66.0156 111.144 49.4156 107.844 38.4156V38.2156ZM100.544 48.0156C99.6441 53.2156 92.9441 69.6156 89.4441 73.4156C75.2441 88.9156 38.0441 100.416 19.8441 87.2156C15.5441 84.0156 12.1441 76.8156 10.2441 71.8156C8.1441 66.2156 6.2441 59.3156 6.7441 53.3156C7.2441 47.4156 12.6441 36.6156 15.9441 31.5156C20.3441 24.6156 38.2441 9.3156 46.3441 8.8156C49.4441 8.6156 60.6441 9.7156 63.8441 10.3156C74.3441 12.3156 88.0441 25.2156 94.7441 33.4156C98.3441 37.8156 101.544 42.2156 100.544 48.2156V48.0156Z" fill="#00A9AC"/>
<path d="M82.6439 38.5154C71.6439 19.0154 41.3439 12.0154 26.3439 30.8154C19.7439 38.9154 14.4439 57.8154 16.1439 68.1154C17.0439 73.6154 21.1439 78.9154 26.4439 80.8154C31.3439 82.5154 48.2439 85.4154 53.1439 84.7154C57.6439 84.1154 69.6439 77.8154 73.4439 74.9154C75.3439 73.4154 81.3439 67.4154 82.5439 65.6154C87.6439 58.2154 87.0439 46.4154 82.7439 38.6154L82.6439 38.5154ZM70.8439 65.3154C64.6439 70.9154 57.0439 75.7154 48.3439 75.8154C44.9439 75.8154 27.8439 73.3154 26.0439 71.5154C25.1439 70.6154 22.8439 61.8154 22.7439 60.2154C22.5439 54.2154 27.1439 41.2154 30.7439 36.2154C39.6439 24.3154 51.3439 25.3154 63.7439 31.2154C66.3439 32.4154 75.0439 40.8154 76.5439 43.4154C82.1439 52.8154 77.5439 59.1154 70.7439 65.3154H70.8439Z" fill="#00A9AC"/>
<path d="M65.7439 46.4158C64.8439 38.7158 55.3439 35.6157 48.5439 37.0157C41.7439 38.4157 37.3438 46.9158 36.8438 53.3158C35.8438 64.6158 39.8438 65.9158 50.3438 64.8158C58.6438 64.0158 66.7439 54.7158 65.7439 46.4158ZM46.2439 58.8158C38.8439 58.2158 44.8438 45.2158 48.8438 43.2158C51.6438 41.8158 55.8439 45.4158 58.7439 45.8158C57.4439 52.6158 54.2439 59.5158 46.2439 58.8158Z" fill="#00A9AC"/>
</svg>
