<svg width="55" height="56" viewBox="0 0 55 56" fill="none" xmlns="http://www.w3.org/2000/svg">
<path d="M0.0258652 33.2098C0.0517305 33.7319 0.103461 34.3063 0.181057 34.9068L0.0775957 34.8024C0.672496 37.6221 1.42259 39.3713 2.63825 40.964C2.53479 41.1989 2.81931 41.7211 3.15556 42.2694C3.51767 42.7915 3.93152 43.3398 4.06084 43.6531H4.00911C4.62988 44.2536 5.12132 45.0107 5.63862 45.7418C6.15593 46.4728 6.72496 47.1777 7.42333 47.6738C7.37159 47.6738 7.26813 47.6738 7.06121 47.5171C7.9665 48.3526 9.20803 49.3186 9.13043 49.5536C10.2944 50.4935 11.7428 51.5117 13.1913 52.295C14.6397 53.0782 16.0623 53.6265 16.9935 53.757H16.8383C17.3814 53.8615 17.7177 53.9398 18.0539 54.0703C18.235 54.1225 18.3902 54.2009 18.5971 54.2531C18.804 54.3053 19.0368 54.3575 19.3472 54.4097C19.3989 54.462 19.4765 54.4881 19.4507 54.5142C19.7352 54.5142 20.0973 54.5925 20.4853 54.6447C20.8733 54.723 21.2612 54.8014 21.6751 54.8797C22.4769 55.0363 23.2529 55.1669 23.7184 55.1669L23.7702 55.3235C24.5461 55.3757 25.2962 55.428 26.0722 55.428C25.7876 55.428 25.5031 55.4019 25.2186 55.3757C25.3738 55.1669 25.8135 55.2452 26.4084 55.3496C26.7188 55.4019 27.055 55.428 27.443 55.4541C27.831 55.4541 28.219 55.4541 28.6328 55.3496C29.4088 55.3496 30.1847 55.0102 30.9348 54.6969C31.2969 54.5142 31.6849 54.3575 32.047 54.227C32.4092 54.0964 32.7971 53.9659 33.1851 53.9398C33.8835 53.5482 32.6161 54.4358 33.6765 53.992C33.78 54.2009 33.1851 54.2792 33.5214 54.3836C34.5818 53.9659 35.3837 54.0964 36.6252 53.4437L36.7545 53.6004C36.9614 53.4698 37.1425 53.3654 37.3494 53.261C37.5563 53.1565 37.7374 53.0521 37.9443 52.9738C38.3323 52.8171 38.7203 52.6344 39.0824 52.5038C39.8066 52.2166 40.4532 51.8772 40.9188 51.4595C41.6689 50.8851 42.0052 50.8329 42.3414 50.7285C42.4966 50.6762 42.6777 50.624 42.8846 50.4935C43.0915 50.3629 43.3501 50.1541 43.6864 49.7625L44.4365 49.4753C45.109 48.927 44.721 48.8487 45.497 48.3004C45.5487 48.457 46.454 47.5694 46.1436 48.0393C46.5833 47.726 46.9454 47.3083 47.3334 46.8905C47.6955 46.4728 48.0318 46.0029 48.3939 45.5329C49.0922 44.5669 49.7647 43.5226 50.6959 42.3999C50.7217 42.0605 50.9545 41.5906 51.1873 41.1467C51.3942 40.7029 51.6012 40.259 51.6012 40.0241C51.6788 40.0241 51.9633 39.3713 52.1961 38.9275C52.4289 38.4837 52.5582 38.2226 52.3771 39.0058C52.3513 39.1364 52.2478 39.3713 52.1961 39.3191L52.2737 39.5802C53.2565 38.1965 53.2307 36.7605 53.6963 35.2201C53.5152 35.664 53.36 36.2906 53.36 35.8467C53.4893 35.3768 53.6445 34.9068 53.7738 34.4108L53.8514 34.7502L54.136 33.6797C54.2394 33.3142 54.2911 32.9487 54.3687 32.5832L54.136 32.8443C54.2136 32.5832 54.2911 32.3482 54.3429 32.1654C54.4205 31.9566 54.4722 31.7738 54.5239 31.5911C54.6274 31.2255 54.705 30.8078 54.6015 30.1812C54.4981 29.6068 54.2911 31.1994 54.317 30.0507C54.5757 28.6147 54.7567 26.4216 54.5757 24.5418C54.3946 24.7507 54.3429 24.2285 54.2394 23.7325L54.3946 23.6541C54.1101 22.6881 54.1618 22.5054 54.2394 22.2965C54.317 22.0876 54.3687 21.9049 54.0584 20.965C53.9549 20.8605 53.8514 20.7822 53.748 20.6778C52.9203 19.0852 53.8514 19.6335 52.7651 17.9364C53.0755 18.6413 52.5323 18.4064 52.2737 17.4926L52.5064 17.6492C52.2737 17.1793 52.1702 17.0487 52.0409 16.7093C52.2478 16.9704 52.3254 16.7615 51.9891 16.0566L52.403 16.4482C52.0926 16.0305 51.8081 15.6389 51.4977 15.2473C51.4201 14.9862 51.2908 14.6729 51.1356 14.3857C50.9804 14.0985 50.7993 13.7852 50.6441 13.5241C50.3079 12.9758 49.9975 12.5059 49.9717 12.2448C49.9717 12.2448 49.8941 12.1143 49.7647 11.9054C49.6354 11.6965 49.4543 11.4354 49.2474 11.1744C48.8336 10.6261 48.3421 10.0517 48.0576 9.92116C48.4973 10.1822 47.6696 9.13791 48.0576 9.29456C47.5145 8.90294 46.1177 7.67585 45.7039 7.02314L45.8332 7.10146C44.8762 6.08324 43.9192 5.37831 42.9363 4.77782C41.9793 4.15122 40.9964 3.62906 39.9618 2.92413C39.9618 3.15911 38.8496 2.45418 39.0307 2.84581C38.4358 2.61083 37.8926 2.37586 37.3753 2.11477C36.858 1.8798 36.3924 1.61872 35.9527 1.43596C35.0733 1.04433 34.349 0.861574 33.8059 1.12266C33.2627 0.992116 32.9265 0.887683 32.6678 0.757141C32.4092 0.6266 32.2281 0.522166 31.9436 0.443841H32.2281C31.6849 0.365516 31.2452 0.3133 30.8831 0.261083C30.4951 0.208867 30.1589 0.182758 29.8485 0.15665C29.5381 0.104433 29.2536 0.104433 28.9173 0.078325C28.607 0.078325 28.2707 0 27.8569 0C27.055 0.0522166 26.9257 0.417733 25.529 0.365516C25.9687 0.208867 25.3997 0.234975 24.8824 0.287192C25.2186 0.234975 25.3221 0.182758 24.6237 0.130542C24.5203 0.182758 24.3909 0.234975 24.2357 0.261083C24.2357 0.261083 24.2099 0.261083 24.2357 0.234975C23.3563 0.365516 23.5115 0.417733 23.9254 0.391625C23.9254 0.391625 23.9254 0.443841 24.0805 0.46995C23.615 0.417733 22.9683 0.496058 22.451 0.574383C21.9079 0.652708 21.494 0.731033 21.4164 0.600491C20.1232 0.913791 19.011 1.27931 18.0281 1.72315C17.0193 2.14088 16.114 2.63694 15.1312 3.133C14.8467 3.133 15.2605 2.79359 15.8295 2.48029C15.364 2.71527 14.8725 2.92413 14.4328 3.21132C14.4069 3.133 14.588 3.00246 14.8467 2.84581C15.1053 2.71527 15.4157 2.58472 15.6226 2.48029C15.157 2.61083 14.7173 2.79359 14.2776 3.02857C14.0707 3.133 13.8379 3.26354 13.631 3.39408C13.4241 3.52462 13.2171 3.68127 13.0102 3.81181C12.1567 4.3862 11.3548 5.03891 10.372 5.58718C10.2685 5.71772 10.1909 5.84826 10.1133 5.97881L9.98398 6.03102C10.0357 6.08324 9.72533 6.47486 9.49255 6.70984C9.1563 6.78816 9.25976 6.39654 8.45794 7.12757C8.06996 7.36255 7.65611 7.80639 7.2164 8.30245C6.80256 8.7985 6.38872 9.34678 6.07833 9.81673C6.49218 9.37289 6.44045 9.58175 6.31112 9.81673C5.97487 10.2345 5.63862 10.365 5.4317 10.7305L5.27651 10.6522C5.30238 10.7305 5.17305 10.9916 4.99199 11.2788C4.78507 11.6182 4.55228 12.0359 4.52642 12.1404C4.21603 12.297 4.88853 11.3571 4.88853 11.1744C4.26777 12.062 4.08671 12.297 3.95738 12.532C3.87979 12.6364 3.80219 12.767 3.67286 12.9758C3.54354 13.1847 3.36248 13.4719 3.10383 13.9418C2.66412 15.0384 3.38835 13.8635 3.28489 14.4379C2.81931 15.3517 2.53479 16.3177 1.93989 17.3098L2.27614 17.0487C1.68124 18.8502 1.34499 19.9206 0.801823 21.0955C0.646631 22.2965 0.594901 23.3147 0.620766 24.1763C0.465574 25.3773 0.362113 26.6044 0.362113 27.8576C0.362113 29.1108 0.362113 28.4059 0.362113 28.693C0.284518 28.9541 0.206922 29.2935 0.155191 29.7113C0.129326 29.9985 0.0775957 30.3118 0.0517305 30.6773C0.0517305 31.0428 0.0258652 31.4344 0 31.8783C0 32.3221 0 32.792 0.0258652 33.3142" fill="#DB574E"/>
</svg>
