<svg preserveAspectRatio="none" width="100%" height="100%" overflow="visible" style="display: block;" viewBox="0 0 3.04304 10.3878" fill="none" xmlns="http://www.w3.org/2000/svg">
<path id="Vector" d="M2.11689 10.2108C2.57997 9.94641 2.91073 9.61596 2.91073 8.95507C2.91073 8.29418 2.91073 7.5672 2.91073 6.90631C2.91073 4.98973 2.97689 3.13923 3.04304 1.22265C3.04304 0.693936 2.64612 0.231312 2.2492 0.0991337C1.85228 -0.0330446 1.45537 -0.0330446 0.992295 0.0991337C0.463071 0.297401 0.132304 0.693936 0.132304 1.28874C0.132304 1.42092 0.132304 1.487 0.132304 1.61918C0.132304 4.19666 0 6.70804 0 9.28552C0 9.48379 0.0661525 9.68205 0.198459 9.81423C0.595377 10.409 1.38921 10.5412 2.11689 10.2108Z" fill="var(--fill-0, #FFDD39)"/>
</svg>
