<svg preserveAspectRatio="none" width="100%" height="100%" overflow="visible" style="display: block;" viewBox="0 0 8.17622 8.48891" fill="none" xmlns="http://www.w3.org/2000/svg">
<path id="Vector" d="M8.02076 0.939081C8.02076 0.872992 7.88846 0.674725 7.8223 0.542546C7.42538 -0.0522556 6.76385 -0.184434 6.23463 0.27819C6.10232 0.344279 6.03617 0.476457 5.90386 0.542546C4.11773 2.32695 2.26545 4.11136 0.479313 5.82968C0.0823952 6.16012 -0.0499088 6.62275 0.0162442 7.15146C0.0162442 7.87844 0.61162 8.60542 1.40546 8.47324C1.67007 8.47324 1.86853 8.27497 2.06699 8.07671C2.66236 7.4819 3.25774 6.8871 3.91927 6.2923C5.17618 5.03661 6.43309 3.847 7.68999 2.59131C8.15307 2.12868 8.28537 1.59997 8.08691 0.939081H8.02076Z" fill="var(--fill-0, #FFDD39)"/>
</svg>
