<svg preserveAspectRatio="none" width="100%" height="100%" overflow="visible" style="display: block;" viewBox="0 0 7.75165 16.5399" fill="none" xmlns="http://www.w3.org/2000/svg">
<path id="Vector" d="M6.08939 0.0954612C6.08939 0.0954612 3.70788 0.425907 2.38482 3.5321C1.12791 6.63828 -0.592065 11.1984 0.201772 15.4942C0.201772 15.4942 0.201771 15.7586 0.664842 16.2873C1.39253 17.1465 2.05406 15.5603 2.18636 15.296C2.31867 15.0316 2.12021 15.5603 1.92175 14.3046C1.78944 13.115 1.78944 12.6524 1.78944 12.6524C1.78944 12.6524 1.9879 11.5289 2.18636 11.0002C2.38482 10.4715 2.51713 10.141 2.78174 9.34794C3.04635 8.55487 3.04635 7.96006 3.50942 7.23308C3.97249 6.5061 3.90634 6.37393 4.56787 5.71304C5.2294 5.05214 4.1048 6.44002 5.2294 5.05214C6.354 3.66427 6.48631 3.5321 7.01553 2.67294C7.47861 1.81378 7.80937 1.87987 7.74322 0.822442C7.67706 -0.234984 6.08939 0.0293731 6.08939 0.0293731V0.0954612Z" fill="var(--fill-0, #FFDD39)"/>
</svg>
