<svg preserveAspectRatio="none" width="100%" height="100%" overflow="visible" style="display: block;" viewBox="0 0 10.3978 3.0401" fill="none" xmlns="http://www.w3.org/2000/svg">
<path id="Vector" d="M10.2986 0.991337C10.1002 0.462624 9.70323 0.132179 9.10785 0.132179C8.97555 0.132179 8.9094 0.132179 8.77709 0.132179C6.19712 0.132179 3.68331 0 1.10334 0C0.90488 0 0.706419 0.0660886 0.574113 0.198267C-0.0212642 0.594802 -0.153569 1.38787 0.177196 2.11485C0.441808 2.57748 0.772574 2.90792 1.4341 2.90792C2.09563 2.90792 2.82332 2.90792 3.48485 2.90792C5.40328 2.90792 7.25557 2.97401 9.17401 3.0401C9.70323 3.0401 10.1663 2.64357 10.2986 2.24703C10.4309 1.8505 10.4309 1.45396 10.2986 0.991337Z" fill="var(--fill-0, #FFDD39)"/>
</svg>
