<svg preserveAspectRatio="none" width="100%" height="100%" overflow="visible" style="display: block;" viewBox="0 0 65.9934 84.6916" fill="none" xmlns="http://www.w3.org/2000/svg">
<path id="Vector" d="M65.7669 73.0389C64.4864 70.5493 63.2404 67.956 61.9945 65.4318C59.468 60.176 56.8377 54.7127 53.619 49.7681C53.1345 49.0419 52.6846 48.4541 52.2347 47.97C52.2693 47.9355 52.3039 47.9009 52.3385 47.8663C54.3458 45.8954 56.0071 43.8553 57.253 41.746C58.8104 39.1181 59.6757 36.4557 59.7795 33.9315C59.9525 29.5055 59.5026 22.7975 58.0836 17.7837C56.6993 12.9428 53.4114 8.62059 48.5661 5.33571C44.1707 2.29287 38.8409 0.425671 33.5802 0.0453159C29.9809 -0.196728 26.3815 0.529404 22.9898 2.25829C19.9788 3.77971 17.1754 5.99268 14.7181 8.79348C11.6033 12.3896 8.45386 16.3314 6.758 20.7919C5.82355 23.2124 5.40824 25.6674 5.47746 28.0533C5.58128 30.6812 6.27347 33.3437 7.62324 35.937C7.83089 36.3519 8.03855 36.7669 8.28081 37.1818C10.0459 40.6396 11.9148 44.3394 14.5797 47.4168C13.9221 47.97 13.1607 48.7999 12.3993 49.9755C9.14605 54.9202 6.55035 60.3489 4.02386 65.6393C2.81254 68.1634 1.5666 70.7913 0.251448 73.2464C-0.163864 74.0071 -0.0600363 74.9407 0.528322 75.5976C1.08207 76.2546 1.98191 76.4967 2.81254 76.22C7.65784 74.5949 12.3647 72.624 16.8639 70.3072L20.1172 83.101C20.3595 84 21.1555 84.657 22.0899 84.6916H22.1592C23.059 84.6916 23.8896 84.1038 24.1665 83.2393L33.0611 56.407L41.8519 82.9973C42.1287 83.8617 42.9594 84.4495 43.8592 84.4495H43.9284C44.8629 84.415 45.6935 83.758 45.9012 82.859L49.1544 70.0652C53.6536 72.3819 58.3605 74.3874 63.2058 75.978C64.0365 76.2546 64.9363 75.978 65.49 75.3556C66.0438 74.6986 66.1476 73.765 65.7669 73.0043V73.0389ZM12.2263 33.5857C10.3574 29.9205 10.1497 26.4281 11.5687 22.6591C12.9877 18.9593 15.791 15.467 18.5944 12.2167C23.7512 6.30388 29.0464 5.1974 32.2305 5.1974C35.4145 5.1974 32.8881 5.1974 33.1649 5.1974C37.5257 5.5086 41.9557 7.06459 45.6243 9.55419C49.3967 12.1129 52.027 15.5361 53.0999 19.1668C54.1728 22.9703 54.7958 28.9523 54.6227 33.6894C54.5535 35.5221 53.6883 39.3256 48.7391 44.0973C48.1508 44.6852 47.4932 45.2038 46.8356 45.6879C45.7281 45.8262 44.5514 46.2411 43.2708 46.9327H43.2016C41.6788 47.8317 40.3291 48.5233 39.2216 49.0765C38.1833 49.3186 37.1104 49.4915 36.0029 49.5952C31.9882 49.9755 27.8351 49.4223 24.3395 48.0392C23.855 47.7971 23.3705 47.5205 22.8167 47.2093H22.7475C22.263 46.8981 21.7785 46.6561 21.2939 46.4832C17.5561 43.959 15.2027 39.291 12.9185 34.7959C12.7108 34.381 12.4685 33.9315 12.2609 33.5165L12.2263 33.5857ZM22.436 75.0444L20.3249 66.642C20.1518 65.985 19.7019 65.4664 19.1135 65.2243C18.8367 65.1206 18.5598 65.0514 18.2829 65.0514C18.006 65.0514 17.5561 65.1552 17.2446 65.3281C13.7837 67.2644 10.1843 68.9587 6.44652 70.4456C6.93105 69.4428 7.41558 68.4746 7.8655 67.4719C10.3228 62.3198 12.8839 56.9948 15.9641 52.3268C16.6217 51.2895 17.21 50.6671 17.7638 50.3905C18.456 50.9091 19.1828 51.3932 19.9788 51.8082C22.2976 53.0184 24.8587 53.9174 27.5582 54.4361C28.112 54.6781 28.5965 54.8856 29.081 55.0239L22.436 75.079V75.0444ZM48.8083 65.086C48.22 64.7748 47.5278 64.7402 46.9394 64.9823C46.3511 65.2589 45.8666 65.7776 45.7281 66.4L43.6169 74.8023L36.972 54.7473C41.4019 54.2286 45.4858 52.8109 48.9122 50.5979C49.2929 50.9437 49.6736 51.4278 50.0889 52.0848C53.1691 56.7874 55.7302 62.1123 58.1875 67.2298C58.672 68.198 59.1219 69.2008 59.6065 70.2035C55.8686 68.7167 52.2693 67.0224 48.8083 65.086Z" fill="var(--fill-0, #00A9AC)"/>
</svg>
