<svg preserveAspectRatio="none" width="100%" height="100%" overflow="visible" style="display: block;" viewBox="0 0 8.05413 8.48891" fill="none" xmlns="http://www.w3.org/2000/svg">
<path id="Vector" d="M6.66492 8.47324C7.45875 8.60542 8.05413 7.87844 8.05413 7.15146C8.05413 6.62274 7.92183 6.22621 7.59106 5.82967C5.80493 4.04527 3.95264 2.26086 2.16651 0.542546C2.03421 0.410368 1.96805 0.344279 1.83575 0.27819C1.24037 -0.184434 0.578839 -0.0522556 0.248073 0.542546C0.18192 0.674725 0.115768 0.806903 0.0496148 0.939081C-0.0826912 1.59997 0.0496144 2.12869 0.446533 2.59131C1.70344 3.847 2.96035 5.03661 4.21726 6.2923C4.81263 6.8871 5.40801 7.4819 6.06954 8.0767C6.268 8.27497 6.46646 8.40715 6.73107 8.47324H6.66492Z" fill="var(--fill-0, #FFDD39)"/>
</svg>
