<svg preserveAspectRatio="none" width="100%" height="100%" overflow="visible" style="display: block;" viewBox="0 0 32.2776 30.1538" fill="none" xmlns="http://www.w3.org/2000/svg">
<path id="Vector" d="M3.84856 25.4512C3.43325 26.2119 3.57169 27.1455 4.19465 27.7333C4.81762 28.3212 5.75207 28.3903 6.47887 27.9408L15.7196 21.9589L20.3572 29.2893C20.7033 29.8426 21.3263 30.1538 21.9492 30.1538C22.5722 30.1538 22.3299 30.1538 22.5376 30.05C23.3336 29.7734 23.8874 28.9781 23.8181 28.1137L22.9529 17.8441L31.1553 14.248C31.9167 13.9368 32.3667 13.1415 32.2628 12.3117C32.159 11.4818 31.536 10.8248 30.74 10.6865L20.8417 8.92306L17.3808 1.10849C17.0693 0.382357 16.3425 -0.0325749 15.5811 0.00200281C14.8197 0.0365805 14.1275 0.555246 13.9199 1.31596L11.8433 7.9203L1.63356 9.23425C0.837548 9.33799 0.21458 9.92581 0.0415328 10.7211C-0.131514 11.5164 0.24919 12.3117 0.941376 12.692L8.55543 17.0834L3.88317 25.3821L3.84856 25.4512Z" fill="var(--fill-0, #00A9AC)"/>
</svg>
