<svg preserveAspectRatio="none" width="100%" height="100%" overflow="visible" style="display: block;" viewBox="0 0 37.3464 54.4574" fill="none" xmlns="http://www.w3.org/2000/svg">
<path id="Vector" d="M32.415 6.01411C28.8427 2.4453 24.5428 0.528713 19.5151 0.0660894C19.1844 0.0660894 18.8536 0.0660891 18.589 0H17.4644C17.1336 0 16.8029 2.51125e-07 16.4721 0.0660894C14.0906 0.264357 11.7752 0.859159 9.65834 2.04876C6.35069 3.83317 3.90303 6.47673 2.2492 9.78119C0.727684 12.8213 0 16.0597 0 19.4302C0 20.4876 0.0661538 21.479 0.19846 22.5364C0.396919 24.2547 0.926143 25.9069 1.85229 27.427C2.71227 28.8809 3.83688 30.0705 5.09378 31.128C6.08608 31.921 7.07837 32.7141 8.00452 33.5733C8.86451 34.3663 9.52604 35.2916 9.8568 36.4151C9.92295 36.6795 9.98911 36.9438 10.0553 37.1421C9.92295 37.1421 9.8568 37.1421 9.79065 37.1421C8.79835 37.3404 7.93836 37.8691 7.34299 38.7282C7.01222 39.1908 6.74761 39.7196 6.6153 40.2483C6.28454 41.3718 6.21838 42.4953 6.28454 43.6849C6.28454 44.4119 6.35069 45.1389 6.54915 45.8658C6.87992 46.9894 7.40914 47.9146 8.53374 48.3772C9.19527 48.7077 9.92296 48.8399 10.6506 48.8399C10.8491 48.8399 10.9153 48.8399 10.8491 49.0381C10.8491 49.0381 10.8491 49.1042 10.8491 49.1703C10.7168 50.1616 10.7168 51.153 10.8491 52.1443C11.1137 53.4661 11.9737 54.1931 13.2968 54.3913C13.7598 54.3913 14.2229 54.4574 14.686 54.4574C16.0752 54.4574 17.3982 54.4574 18.7875 54.4574C20.3751 54.4574 21.8967 54.4574 23.4182 54.4574C24.0135 54.4574 24.6089 54.3913 25.1381 54.0609C26.3289 53.4661 26.8581 52.4087 26.9904 51.153C26.9904 50.426 26.9904 49.699 26.9904 49.0381C26.9904 48.9059 26.9904 48.8399 27.1889 48.8399C27.3874 48.8399 27.5197 48.8399 27.7181 48.7738C29.1073 48.4433 30.2319 47.7824 30.8935 46.4606C31.2904 45.6676 31.4888 44.8084 31.4888 43.8832C31.4888 42.9579 31.4888 41.9666 31.4227 41.0413C31.3565 39.7196 30.7612 38.7282 29.7027 38.0012C29.1073 37.6047 28.512 37.3404 27.8504 37.2082C27.8504 37.2082 27.7181 37.2082 27.652 37.2082C27.652 37.2082 27.652 37.2082 27.652 37.1421C27.652 37.0099 27.7181 36.8777 27.7843 36.7455C28.1812 35.622 28.8427 34.6307 29.6366 33.7054C30.5627 32.648 31.555 31.5906 32.5473 30.5332C33.8042 29.1453 34.9288 27.5592 35.7226 25.8408C37.1118 22.7347 37.5749 19.5624 37.2442 16.1918C36.8472 12.2926 35.1934 8.92203 32.415 6.14629V6.01411ZM24.1459 51.4834C23.7489 51.4834 23.4182 51.4834 23.0213 51.4834C21.6982 51.4834 20.4413 51.4834 19.1182 51.4834C17.6629 51.4834 16.1413 51.4834 14.686 51.4834C14.3552 51.4834 14.0906 51.4834 13.7598 51.3512C13.5614 51.3512 13.4291 51.2191 13.4291 51.0208C13.2968 50.3599 13.2968 49.699 13.4291 49.1042C13.4291 49.0381 13.5614 48.9059 13.6275 48.9059C14.0244 48.9059 14.3552 48.9059 14.7521 48.9059C17.3982 48.9059 20.1105 48.9059 22.7566 48.9059C23.2197 48.9059 23.6828 48.9059 24.0797 49.1042C24.4105 49.2364 24.6089 49.4347 24.5428 49.7651C24.5428 50.1616 24.5428 50.5582 24.5428 50.9547C24.5428 51.3512 24.4766 51.4173 24.0797 51.4834H24.1459ZM27.7843 40.1161C28.4458 40.3144 28.8427 40.777 28.9089 41.4379C28.975 42.0327 29.0412 42.6275 29.0412 43.1562C29.0412 43.6188 29.0412 44.0814 28.975 44.5441C28.9089 45.271 28.4458 45.6676 27.7843 45.7998C27.1227 45.8658 26.5274 45.9319 25.8658 45.9319C24.0135 45.9319 22.2274 45.9319 20.3751 45.9319H19.0521C17.0675 45.9319 15.0167 45.9319 13.0321 45.9319C12.1722 45.9319 11.3122 45.8658 10.4522 45.7998C10.386 45.7998 10.2537 45.7998 10.1876 45.7998C9.59219 45.6676 9.26142 45.3371 9.12912 44.7423C8.93066 43.9493 8.86451 43.2223 8.93066 42.4292C8.93066 41.9666 8.93066 41.504 9.06297 41.1074C9.19527 40.3144 9.52604 39.9839 10.3199 39.8517C10.7829 39.7856 11.3122 39.7196 11.7752 39.7196C13.8921 39.7196 16.009 39.7196 18.1259 39.7196C19.9121 39.7196 21.7643 39.7196 23.5505 39.7196C24.6751 39.7196 25.7335 39.8517 26.8581 39.9178C27.1889 39.9178 27.4535 40.05 27.7843 40.1161ZM33.3411 24.9156C32.6796 26.3035 31.7535 27.4931 30.695 28.6166C29.6366 29.8062 28.5781 30.9297 27.5858 32.1193C26.5935 33.3089 25.7997 34.6307 25.3366 36.1507C25.3366 36.349 25.2043 36.4812 25.2043 36.6795C25.2043 36.8116 25.1381 36.8116 25.0058 36.8116C24.0135 36.8116 23.0874 36.8116 22.0951 36.8116H15.6783C15.6121 36.8116 15.546 36.8116 15.4798 36.8116C14.6198 36.8116 13.7598 36.8116 12.8998 36.8116C12.7675 36.8116 12.7014 36.8116 12.7014 36.6134C12.4368 34.5646 11.5768 32.8463 10.1214 31.3923C9.19527 30.401 8.07067 29.6079 7.07837 28.7488C6.35069 28.154 5.68916 27.5592 5.02763 26.8322C3.90303 25.5104 3.30765 23.9903 2.91073 22.3381C2.71228 21.2807 2.57997 20.2233 2.57997 19.1658C2.57997 15.7953 3.30765 12.623 5.02763 9.78119C7.40914 5.94802 10.7829 3.70099 15.2152 2.97401C18.2582 2.4453 21.2351 2.97401 24.0797 3.96535C26.4612 4.82451 28.6443 6.14629 30.4304 7.99678C32.8119 10.4421 34.2011 13.2839 34.6642 16.6545C35.0611 19.5624 34.5319 22.272 33.275 24.8495L33.3411 24.9156Z" fill="var(--fill-0, #FFDD39)"/>
</svg>
