<svg preserveAspectRatio="none" width="100%" height="100%" overflow="visible" style="display: block;" viewBox="0 0 62.2747 70.45" fill="none" xmlns="http://www.w3.org/2000/svg">
<path id="Vector" d="M60.8478 6.46152C59.2781 2.82426 56.5423 0.579041 52.6405 0.0850919C50.0392 -0.229239 47.5726 0.354519 45.1507 1.38732C40.2622 3.54274 36.4501 7.13509 33.2658 11.4459C32.6379 12.2991 31.9652 13.1972 31.2925 14.1402C31.0234 13.8259 30.7543 13.6013 30.5749 13.3319C29.947 12.4338 29.4088 11.5357 28.781 10.6825C26.5834 7.76375 23.8027 5.74305 20.17 5.2042C14.833 4.44082 10.1687 6.28191 6.40145 10.0988C0.571122 16.116 -1.08828 23.3905 0.660819 31.4284C1.78204 36.5475 4.24872 41.0829 7.07418 45.3488C13.0391 54.2848 20.2597 61.9634 28.3773 68.8338C29.0052 69.3278 29.6779 69.7768 30.4404 70.0911C31.9204 70.7647 32.9967 70.4953 34.1628 69.238C34.4319 68.9236 34.701 68.6093 34.9252 68.295C38.4683 63.2657 42.101 58.2364 45.5095 53.1173C49.4562 47.2797 53.4926 41.5319 56.632 35.2004C59.4126 29.6322 61.386 23.7497 62.0587 17.5529C62.4623 13.736 62.4175 9.96407 60.8926 6.41662L60.8478 6.46152ZM55.4659 19.1695C54.569 19.3042 53.672 19.394 52.775 19.394C49.815 19.394 47.2586 18.1367 44.8368 16.6099C44.2538 16.2507 43.6259 15.8915 43.0428 15.5322C42.2804 15.0832 41.5628 15.173 41.204 15.6669C40.8453 16.1609 41.0247 16.9692 41.6974 17.4631C42.8634 18.3163 44.1192 19.0797 45.375 19.7981C47.9313 21.2351 50.712 21.8638 53.6271 21.8638C54.1205 21.8638 54.569 21.9536 55.0623 21.9985C55.0623 22.1332 55.0623 22.2679 55.0623 22.3577C54.5241 22.5373 53.9859 22.8067 53.4477 22.9415C51.6986 23.3007 49.9944 23.3007 48.335 22.7169C45.5992 21.7739 42.8634 20.831 40.1277 19.888C39.7689 19.7532 39.4549 19.6634 39.0962 19.5287C38.5131 19.3042 38.0198 19.4389 37.7058 20.0227C37.3919 20.6064 37.6161 21.1453 38.1543 21.5045C38.6925 21.8189 39.2307 22.1332 39.7689 22.3577C41.9216 23.2558 44.0744 24.0641 46.2271 24.9622C46.4513 25.052 46.6307 25.1867 46.855 25.2765V25.501C46.5859 25.501 46.3616 25.6357 46.1374 25.5908C43.9398 25.1867 41.7422 24.7376 39.5446 24.3335C39.141 24.2437 38.7374 24.109 38.3786 24.1988C37.9749 24.3335 37.4816 24.6478 37.2574 25.0071C36.9434 25.501 37.1228 26.1297 37.6162 26.444C38.0646 26.7134 38.6028 26.938 39.141 27.0727C43.3119 28.0606 47.4829 28.8239 51.7883 28.7341C52.1023 28.7341 52.4611 28.7341 52.775 28.779C52.775 30.4405 52.5508 30.665 51.0259 30.7548C47.6174 30.9794 44.3435 30.3058 41.1143 29.4975C40.1277 29.2281 39.6343 29.4975 39.4101 30.2609C39.1859 30.9794 39.3204 31.6529 40.0828 31.8774C41.3386 32.2816 42.6392 32.5959 43.9847 32.8204C46.2719 33.2246 48.6041 33.5389 50.9811 33.9431C50.6671 34.5717 50.398 35.2453 50.0392 35.829C49.5908 36.5924 48.8732 36.772 48.0659 36.7271C46.0029 36.5475 44.1192 35.7392 42.3701 34.7064C42.0113 34.4819 41.6077 34.2574 41.204 34.0329C40.5762 33.6736 39.9483 33.7185 39.4549 34.3472C39.0962 34.7962 39.2756 35.7841 39.7689 36.2332C41.3834 37.6252 43.2671 38.5233 45.2853 39.1071C45.958 39.2867 46.6307 39.5112 47.3483 39.6908C47.1241 41.038 46.3168 41.936 45.5095 42.879C45.4198 43.0138 45.061 43.0138 44.8816 42.879C44.1641 42.5647 43.4016 42.2504 42.7289 41.8013C41.8319 41.1727 41.0247 40.3644 40.1725 39.6459C39.9034 39.4214 39.5895 39.1071 39.2756 39.0622C38.9168 39.0173 38.3337 39.0622 38.1543 39.3316C37.9301 39.601 37.8852 40.1848 37.9749 40.5889C38.0646 40.9481 38.3786 41.2625 38.6925 41.487C40.3071 42.8341 41.9216 44.1364 43.6259 45.5733C43.3119 46.1122 43.0428 46.8306 42.5944 47.4144C42.1907 47.9532 41.6077 47.6838 41.204 47.3695C40.2174 46.5163 39.2756 45.6182 38.2889 44.7201C38.1992 44.6303 38.1543 44.5405 38.0646 44.4956C37.5713 44.0017 37.0331 43.7771 36.4501 44.316C35.8671 44.8099 35.867 45.4386 36.3604 45.9774C37.5265 47.2348 38.6028 48.537 39.9034 49.6596C40.6659 50.3332 40.3968 50.7822 39.9931 51.366C39.4998 52.0396 39.0065 51.5905 38.6477 51.2762C38.0198 50.7822 37.5265 50.1087 36.9883 49.5249C36.6743 49.1657 36.4052 48.6717 36.0016 48.537C35.5531 48.3574 34.9252 48.3574 34.5664 48.6268C34.118 48.8962 34.1628 49.5249 34.5216 50.0188C35.4634 51.2313 36.3604 52.3988 37.3022 53.6112C37.5265 53.8806 37.7507 54.1052 37.9749 54.4195C37.5265 55.0481 37.1228 55.6319 36.5846 56.3953C36.2258 56.081 35.8222 55.8115 35.5531 55.4523C35.0149 54.8236 34.5216 54.1052 33.9834 53.4765C33.5798 52.9376 33.0416 52.8478 32.5034 53.2969C31.9652 53.701 31.8755 54.2399 32.2343 54.8236C32.8173 55.7666 33.4452 56.7545 34.0283 57.6975C34.1628 57.922 34.2973 58.1017 34.4319 58.3711C34.7458 59.0446 34.4319 59.7182 33.8937 59.9876C33.5798 60.1673 32.907 59.8978 32.6379 59.6284C32.0101 58.9548 31.6064 58.1017 31.0682 57.3383C30.844 57.0688 30.4852 56.7545 30.1713 56.6647C29.364 56.53 28.6913 57.4281 29.0949 58.1915C29.7228 59.4039 30.4852 60.5714 31.1579 61.7838C31.427 62.2329 32.0101 62.6819 31.5167 63.1759C31.0234 63.7147 30.4404 63.3555 29.9919 62.9513C21.9191 55.9013 14.7882 47.9532 9.36147 38.5682C7.43297 35.2902 5.99781 31.7427 5.59418 27.881C5.19054 23.5701 6.17721 19.6185 8.73359 16.0711C10.2584 13.9606 12.3215 12.4338 14.6985 11.5357C18.3761 10.0988 22.0537 11.2214 24.3858 14.4096C26.404 17.1488 27.1664 20.3819 27.3458 23.7946C27.57 28.2402 26.987 32.5959 26.2694 36.9966C26.09 38.0294 25.9106 39.0173 25.8658 40.0501C25.7761 41.6666 26.6282 42.8341 28.1082 43.0587C29.4985 43.2832 30.7095 42.5198 31.0682 40.9481C31.6961 37.8946 32.1895 34.7962 32.5931 31.6978C32.8622 29.722 32.907 27.7462 32.907 25.7704C32.907 24.0641 33.2658 22.4924 34.2076 21.0106C35.9119 18.3612 37.4368 15.622 39.2756 13.1074C41.1143 10.5927 43.6259 8.84146 46.2719 7.31471C47.7968 6.46153 49.4562 5.96758 51.2053 5.96758C52.0126 5.96758 52.8647 6.32681 53.672 6.55133C53.8065 6.55133 53.8514 6.91057 53.9859 7.09019C53.8065 7.18 53.5823 7.35961 53.4029 7.31471C52.5508 7.2249 51.6986 7.09019 50.8465 6.91057C50.2186 6.77586 49.7701 7.04528 49.6356 7.67395C49.4562 8.34751 49.7253 8.79656 50.398 8.97618C52.0574 9.38032 53.7617 9.82936 55.4211 10.2335C55.6902 10.2784 55.9593 10.3233 56.2284 10.3682C56.2284 10.458 56.2732 10.5478 56.3181 10.6376C55.9144 10.8173 55.5108 11.0867 55.0623 11.1316C53.5374 11.3112 52.0574 10.8622 50.6671 10.3233C49.9047 10.009 49.1423 9.64974 48.3798 9.29051C47.7968 9.02108 47.2138 8.79656 46.6756 9.38031C46.1823 9.91917 46.272 10.5478 46.541 11.1316C46.541 11.2214 46.6307 11.3112 46.6756 11.5357C46.3168 11.5357 46.0029 11.5357 45.7338 11.5357C45.1507 11.5357 44.5677 11.4459 44.3435 12.1644C44.1192 12.8829 44.4332 13.5115 45.061 13.8259C46.8998 14.8138 48.6938 15.8915 50.6671 16.6099C52.1471 17.1488 53.8065 17.1039 55.4211 17.3284C55.7799 17.3733 56.4078 17.0141 56.4078 17.8224C56.4078 18.4959 56.4975 19.3042 55.6005 19.4838L55.4659 19.1695ZM55.9593 14.3647C53.8514 15.173 49.6356 13.9606 48.1556 12.2093C48.1556 12.2093 48.1556 12.1195 48.1556 11.9399C48.5144 12.0297 48.8283 12.0746 49.1423 12.1644C51.295 12.9727 53.4926 13.5564 55.8247 13.3768C56.0041 13.3768 56.2284 13.6013 56.4526 13.736C56.3181 13.9606 56.2284 14.2749 56.049 14.3647H55.9593Z" fill="var(--fill-0, #DB574E)"/>
</svg>
