<svg preserveAspectRatio="none" width="100%" height="100%" overflow="visible" style="display: block;" viewBox="0 0 65.285 73.5488" fill="none" xmlns="http://www.w3.org/2000/svg">
<path id="Vector" d="M64.0974 17.2428C63.7256 16.7951 63.3538 16.3474 62.9449 15.937C61.718 14.7804 60.491 13.6984 59.2641 12.5791C58.5949 11.9449 57.9628 11.2733 57.2192 10.7509C56.0667 9.96745 54.9141 9.22125 53.6872 8.54968C49.8949 6.49765 45.9538 4.81872 41.9756 3.2144C39.0013 2.02049 36.0269 0.901203 32.941 0.0430815C32.7551 0.00577182 32.5692 -0.0315378 32.3833 0.0430815C31.7141 0.22963 31.0077 0.416178 30.3385 0.640036C24.6128 2.54283 18.9615 4.85603 13.4962 7.54232C11.5628 8.51237 9.59231 9.48242 7.88205 10.8629C6.46923 12.0195 5.09359 13.288 3.75513 14.5565C2.78846 15.452 1.89615 16.422 1.00385 17.4294C0.334615 18.2502 0 19.2202 0 20.3395C0.0371795 20.7872 0.074359 21.235 0.185897 21.6827C0.408974 22.7647 0.70641 23.8093 0.892308 24.8913C1.30128 27.018 1.59872 29.1446 2.00769 31.2713C2.75128 35.2261 3.68077 39.1063 5.13077 42.8372C6.24615 45.7101 7.54744 48.5083 8.92308 51.2319C10.8936 55.0748 13.1244 58.6938 15.8756 61.9398C18.5897 65.1484 21.75 67.7601 25.2077 69.8867C27.5872 71.3418 30.1154 72.5357 32.6808 73.5058C32.8295 73.5804 33.0526 73.5431 33.2385 73.5058C36.8449 72.1626 40.1538 70.2598 43.2769 67.8347C45.2103 66.305 47.0321 64.6261 48.7051 62.7233C51.2333 59.8877 53.3526 56.6791 55.2487 53.3213C57.0333 50.1126 58.5949 46.7548 59.9705 43.3223C61.5692 39.3301 62.5731 35.1141 63.3538 30.8608C63.6885 28.9581 63.9859 27.0553 64.3577 25.1525C64.5808 23.9213 64.9154 22.7273 65.1756 21.4961C65.4731 19.8918 65.1756 18.474 64.1346 17.2801L64.0974 17.2428ZM61.5692 23.0631C61.4577 24.8167 61.0487 26.5329 60.6769 28.2492C60.1936 30.5251 59.7474 32.8009 59.1897 35.0022C57.9256 39.9271 56.1038 44.5535 53.5013 48.7695C51.159 52.6124 48.2962 55.9329 45.0244 58.8431C41.3808 62.089 37.4026 64.7753 33.3128 67.2377C33.2013 67.3124 33.0154 67.3124 32.9038 67.2377C32.9038 67.2377 32.8295 67.2377 32.8295 67.2004C32.5692 66.1931 32.2718 65.1857 32.0115 64.1784C30.5615 59.2162 29 54.2913 27.5872 49.3291C26.1 44.2177 24.7987 39.0317 23.9064 33.7337C23.2372 30.0027 23.1256 26.2345 23.6462 22.4662C24.65 15.452 27.6244 9.63166 32.3833 4.85603C32.7551 4.48293 33.1269 4.14714 33.5731 3.69943C33.3128 3.69943 33.1269 3.69943 32.9782 3.77405C31.7141 4.14714 30.45 4.48293 29.2231 4.89334C30.1897 4.40831 31.1564 3.88597 32.1231 3.40095C32.5321 3.17709 32.7923 3.17709 33.2013 3.40095C36.1756 4.93064 39.1872 6.42303 42.1615 7.91542C45.2474 9.44511 48.3333 10.9748 51.4192 12.5418C52.9064 13.288 54.2821 14.2581 55.5462 15.452C56.6244 16.4966 57.8141 17.3548 58.9295 18.3621C59.5987 18.9591 60.2308 19.6306 60.8256 20.3022C61.4949 21.0484 61.6808 22.0185 61.6064 23.0631H61.5692Z" fill="var(--fill-0, #FFC1AA)"/>
</svg>
