<svg width="90" height="85" viewBox="0 0 90 85" fill="none" xmlns="http://www.w3.org/2000/svg">
<path d="M66.6033 79.0943C56.7429 86.5139 31.2703 85.0712 19.7666 83.4224C4.97603 76.0026 -0.570431 75.3846 0.0458423 58.0721C0.662115 40.7596 19.7666 11.081 41.9524 9.84435C64.1382 8.60775 80.7776 19.7372 88.1729 30.8666C95.5681 41.9961 78.9288 69.8197 66.6033 79.0943Z" fill="white"/>
<g clip-path="url(#clip0_9162_10164)">
<path d="M70.0974 17.1999C69.7256 16.7521 69.3538 16.3044 68.9449 15.894C67.718 14.7374 66.491 13.6554 65.2641 12.5362C64.5949 11.9019 63.9628 11.2303 63.2192 10.708C62.0667 9.92448 60.9141 9.17828 59.6872 8.50671C55.8949 6.45468 51.9538 4.77575 47.9756 3.17143C45.0013 1.97752 42.0269 0.858235 38.941 0.000112716C38.7551 -0.0371969 38.5692 -0.0745066 38.3833 0.000112716C37.7141 0.186661 37.0077 0.373209 36.3385 0.597067C30.6128 2.49986 24.9615 4.81306 19.4962 7.49935C17.5628 8.4694 15.5923 9.43945 13.8821 10.8199C12.4692 11.9765 11.0936 13.245 9.75513 14.5136C8.78846 15.409 7.89615 16.379 7.00385 17.3864C6.33462 18.2072 6 19.1773 6 20.2966C6.03718 20.7443 6.07436 21.192 6.1859 21.6397C6.40897 22.7217 6.70641 23.7664 6.89231 24.8483C7.30128 26.975 7.59872 29.1016 8.00769 31.2283C8.75128 35.1831 9.68077 39.0633 11.1308 42.7943C12.2462 45.6671 13.5474 48.4653 14.9231 51.1889C16.8936 55.0318 19.1244 58.6509 21.8756 61.8968C24.5897 65.1054 27.75 67.7171 31.2077 69.8438C33.5872 71.2988 36.1154 72.4927 38.6808 73.4628C38.8295 73.5374 39.0526 73.5001 39.2385 73.4628C42.8449 72.1197 46.1538 70.2169 49.2769 67.7917C51.2103 66.262 53.0321 64.5831 54.7051 62.6803C57.2333 59.8448 59.3526 56.6362 61.2487 53.2783C63.0333 50.0697 64.5949 46.7118 65.9705 43.2793C67.5692 39.2872 68.5731 35.0712 69.3538 30.8179C69.6885 28.9151 69.9859 27.0123 70.3577 25.1095C70.5808 23.8783 70.9154 22.6844 71.1756 21.4532C71.4731 19.8488 71.1756 18.4311 70.1346 17.2372L70.0974 17.1999ZM67.5692 23.0202C67.4577 24.7737 67.0487 26.49 66.6769 28.2062C66.1936 30.4821 65.7474 32.758 65.1897 34.9592C63.9256 39.8841 62.1038 44.5105 59.5013 48.7265C57.159 52.5694 54.2962 55.89 51.0244 58.8001C47.3808 62.0461 43.4026 64.7323 39.3128 67.1948C39.2013 67.2694 39.0154 67.2694 38.9038 67.1948C38.9038 67.1948 38.8295 67.1948 38.8295 67.1575C38.5692 66.1501 38.2718 65.1427 38.0115 64.1354C36.5615 59.1732 35 54.2483 33.5872 49.2862C32.1 44.1747 30.7987 38.9887 29.9064 33.6907C29.2372 29.9598 29.1256 26.1915 29.6462 22.4232C30.65 15.409 33.6244 9.58869 38.3833 4.81306C38.7551 4.43996 39.1269 4.10417 39.5731 3.65646C39.3128 3.65646 39.1269 3.65646 38.9782 3.73108C37.7141 4.10417 36.45 4.43996 35.2231 4.85037C36.1897 4.36534 37.1564 3.84301 38.1231 3.35798C38.5321 3.13412 38.7923 3.13412 39.2013 3.35798C42.1756 4.88768 45.1872 6.38006 48.1615 7.87245C51.2474 9.40214 54.3333 10.9318 57.4192 12.4988C58.9064 13.245 60.2821 14.2151 61.5462 15.409C62.6244 16.4537 63.8141 17.3118 64.9295 18.3191C65.5987 18.9161 66.2308 19.5877 66.8256 20.2592C67.4949 21.0054 67.6808 21.9755 67.6064 23.0202H67.5692Z" fill="#FFC1AA"/>
</g>
<defs>
<clipPath id="clip0_9162_10164">
<rect width="65.25" height="73.5" fill="white" transform="translate(6)"/>
</clipPath>
</defs>
</svg>
