<svg width="1381" height="205" viewBox="0 0 1381 205" fill="none" xmlns="http://www.w3.org/2000/svg">
<path d="M1333.78 2.86621H1380.33V201.34H1332.28L1256.8 82.3101H1256.25V201.34H1209.7V2.86621H1256.52L1333.1 124.899H1333.78V2.86621Z" fill="#1C3666"/>
<path d="M1094.55 204.07C1033.94 204.07 992.448 161.754 992.448 102.103C992.448 42.452 1033.94 0 1094.55 0C1153.79 0 1196.52 41.2235 1196.52 102.103C1196.52 162.71 1153.79 204.07 1094.55 204.07ZM1094.55 160.389C1125.4 160.389 1147.65 135.137 1147.65 102.103C1147.65 68.9333 1125.4 43.6805 1094.55 43.6805C1063.02 43.6805 1041.04 69.4793 1041.04 102.103C1041.04 134.727 1063.02 160.389 1094.55 160.389Z" fill="#1C3666"/>
<path d="M856.138 201.34L856.274 2.86621H985.951V44.6357H902.002V82.7196H968.342V123.807H902.002V159.843H991.684V201.34H856.138Z" fill="#1C3666"/>
<path d="M802.684 201.34L791.081 165.986H721.329L709.863 201.34H660.995L733.751 2.86621H778.523L851.551 201.34H802.684ZM734.16 126.4H778.25L756.546 59.3779H755.864L734.16 126.4Z" fill="#1C3666"/>
<path d="M609.725 2.86621H656.272V201.34H608.224L532.738 82.3101H532.192V201.34H485.645V2.86621H532.465L609.043 124.899H609.725V2.86621Z" fill="#1C3666"/>
<path d="M337.05 201.34L337.186 2.86621H466.863V44.6357H382.914V82.7196H449.254V123.807H382.914V159.843H472.596V201.34H337.05Z" fill="#1C3666"/>
<path d="M197.873 201.34V2.86621H244.829V159.843H328.095V201.34H197.873Z" fill="#1C3666"/>
<path d="M102.24 203.524V203.661C45.0455 203.661 0 167.215 0 102.649C0 44.9092 37.1284 0.136719 100.465 0.136719C128.994 0.136719 160.526 12.1489 180.728 35.6271L147.695 63.7465C137.184 53.5088 121.486 44.0902 100.329 44.0902C72.4823 44.0902 48.7311 65.521 48.7311 102.649C48.7311 134.727 68.6603 161.072 102.24 161.072C113.979 161.072 124.762 158.479 136.229 152.199V129.677H98.1446V90.2278H181.138V179.5C163.392 193.423 132.953 203.524 102.24 203.524Z" fill="#1C3666"/>
</svg>
