<svg width="274" height="79" viewBox="0 0 274 79" fill="none" xmlns="http://www.w3.org/2000/svg">
<path d="M40.1648 0C41.2433 0.81756 42.3131 1.65251 43.4089 2.45268C55.2809 11.1153 67.153 19.7693 79.0163 28.4319C79.138 28.5189 79.2598 28.6233 79.4163 28.7537C74.3631 44.3309 69.3186 59.8993 64.2654 75.459H43.6959C43.5655 73.1368 42.3826 71.78 40.0169 71.493V69.5969C40.2605 69.5969 40.5301 69.5448 40.7475 69.623C41.1389 69.7622 41.6694 69.8927 41.8521 70.1971C42.774 71.6756 44.2352 72.2323 45.9138 72.8411C45.6355 72.4497 45.4354 72.241 45.3137 71.9887C44.9745 71.2929 44.5831 70.6058 44.3657 69.8753C44.1569 69.1882 44.7483 68.1358 45.3224 67.8922C45.8442 67.6661 46.4443 67.9183 46.9836 68.7011C47.3837 69.2838 47.749 69.91 48.0534 70.545C48.4187 71.2929 48.7144 72.0757 49.0536 72.902C49.1753 72.7541 49.2623 72.6497 49.3319 72.5454C50.2973 70.919 50.0277 69.1795 48.6013 67.5791C48.41 67.3704 48.1664 66.9268 48.236 66.8311C48.4534 66.5702 48.8013 66.3354 49.1319 66.2658C49.9581 66.1006 50.7322 66.3963 51.2453 67.0138C51.9672 67.8748 52.7065 68.7794 53.1501 69.797C53.9154 71.5278 55.1679 72.5802 56.8813 73.1977C57.2814 73.3455 57.6988 73.4325 58.2381 73.5891C57.4988 72.0757 56.6203 70.8929 55.6201 69.7709C54.9852 69.0664 54.4721 68.2488 53.9676 67.4487C53.8372 67.2486 53.8285 66.8224 53.9589 66.6485C54.0807 66.492 54.4982 66.4398 54.733 66.518C55.5158 66.7703 56.2812 67.0747 57.0291 67.4052C59.4557 68.475 61.1691 67.9444 63.126 65.4743C62.9347 65.5091 62.7694 65.5091 62.6477 65.5787C61.0213 66.5093 59.4383 66.0919 57.8206 65.5265C56.3942 65.0308 54.9417 64.5698 53.4719 64.2306C50.1929 63.4739 47.1401 64.0132 44.4352 66.1093C43.5916 66.7616 42.7827 67.4661 41.9652 68.1532C41.365 68.6576 40.8171 68.5532 40.4518 67.8488C40.3648 67.6835 40.2866 67.5182 40.1996 67.3617C40.1387 67.3704 40.0778 67.3878 40.0256 67.3965V69.623C39.669 69.6491 39.2864 69.5969 38.9645 69.71C38.6427 69.8231 38.2861 70.0492 38.1035 70.3275C37.3729 71.4495 35.5465 72.6063 34.1201 72.7541C34.5202 72.1105 34.955 71.493 35.2942 70.832C35.6769 70.084 35.7552 69.3012 35.2594 68.5445C34.6941 67.6922 33.9896 67.553 33.3721 68.3619C32.7285 69.1969 32.224 70.1536 31.7196 71.0929C31.4065 71.6669 31.2151 72.3105 30.9629 72.9368C29.78 71.7452 29.7626 69.6317 30.8846 68.1184C31.0847 67.8488 31.3021 67.5965 31.5369 67.353C31.8935 66.9964 31.7978 66.6224 31.4065 66.5093C30.902 66.3615 30.241 66.2136 29.8235 66.4224C29.1103 66.7703 28.4406 67.3182 27.9275 67.927C27.4056 68.5445 27.0317 69.3099 26.7098 70.0666C25.7618 72.2497 23.9006 73.0846 21.8045 73.6239C21.7349 73.563 21.674 73.5108 21.6044 73.4586C22.3524 72.3975 23.083 71.3277 23.8571 70.2927C24.4398 69.51 25.1008 68.7794 25.6922 67.9966C25.8749 67.7531 25.988 67.44 26.0662 67.153C26.188 66.7007 25.9532 66.405 25.5009 66.518C24.8312 66.6746 24.1963 66.9355 23.544 67.1617C22.8569 67.4052 22.1785 67.7096 21.474 67.8922C20.3346 68.1793 19.3083 67.8401 18.4125 67.1182C17.795 66.6224 17.2383 66.0658 16.7339 65.3874C17.047 65.483 17.3862 65.5178 17.6645 65.6744C18.7952 66.3006 19.9345 66.1962 21.1 65.8223C22.7351 65.3004 24.3528 64.7264 26.0054 64.2915C30.1975 63.1782 33.8417 64.2915 36.9815 67.2051C37.2772 67.4748 37.5556 67.7792 37.8948 67.9792C38.2079 68.1706 38.6688 68.4402 38.9298 68.3445C39.269 68.2141 39.4777 67.7531 39.8343 67.3182C36.9815 66.5441 36.2596 64.535 36.2335 62.0476H11.4371C12.8287 66.3354 14.2029 70.5798 15.6032 74.9024H16.4034C22.8047 74.9024 29.206 74.9024 35.6073 74.9024C35.9378 74.9024 36.451 74.7284 36.3031 75.459H15.1509C10.1064 59.8993 5.06191 44.3309 0 28.745C1.78298 27.4578 3.52246 26.2054 5.25326 24.9617C16.7078 16.7252 28.1275 8.5148 39.5473 0.30441C39.669 0.217436 39.7821 0.104369 39.8952 0H40.1648ZM40.043 6.15779C38.6862 7.25367 38.5297 8.68875 38.8602 10.2717C38.9819 10.8544 39.1124 11.4545 39.1298 12.046C39.1385 12.3069 38.9471 12.6809 38.7297 12.8026C38.5558 12.8983 38.1644 12.7418 37.9556 12.5939C37.7034 12.4026 37.5295 12.0894 37.3294 11.8198C36.7989 11.0892 36.1988 10.463 35.0681 10.3413C35.0681 10.8805 35.042 11.3676 35.0681 11.8459C35.1812 13.4028 35.7813 14.4291 37.4773 14.2725C37.5643 14.2638 37.6599 14.2812 37.7469 14.2899C38.5384 14.3769 38.9211 14.7161 39.0167 15.4119C39.1124 16.1077 38.5645 17.6036 38.1557 17.7689C38.1122 17.7863 38.0687 17.7863 38.0252 17.795C36.164 18.169 34.6941 17.4906 34.2331 15.7859C33.7461 13.9855 31.363 12.4808 29.38 12.5852C29.38 12.7505 29.3626 12.9244 29.38 13.0983C29.5365 14.8378 30.4584 15.9685 32.0675 16.586C32.4328 16.7252 32.8154 16.8817 33.1373 17.1079C33.5199 17.3775 33.6417 17.795 33.3808 18.2298C32.9459 18.9604 31.5543 19.0996 30.9629 18.4821C29.3539 16.76 27.2926 16.7513 25.1443 16.8904C25.8053 18.6212 28.1101 20.1694 29.9714 20.2042C31.6413 20.2389 33.3112 20.2563 34.9811 20.352C35.5464 20.3868 36.1205 20.5521 36.651 20.7695C37.2598 21.0217 37.7034 21.5436 37.6164 22.2307C37.4947 23.257 37.4077 24.3354 37.025 25.2835C36.164 27.3796 33.4156 28.1275 31.5543 26.849C31.2586 26.649 30.9716 26.1706 30.989 25.8314C31.0847 23.2222 28.8755 21.5349 25.7618 21.6653C26.4924 23.3961 27.5535 24.8051 29.1277 25.8053C29.5191 26.0575 29.9279 26.3098 30.2497 26.6403C31.0934 27.4839 30.8672 28.3798 29.7279 28.7016C27.6144 29.3104 24.8486 27.797 24.4398 26.101C24.3267 25.6314 23.918 25.1269 23.5092 24.866C22.2133 24.0571 20.7695 24.1354 19.2996 24.3615C20.0302 26.0662 21.8915 27.2143 23.657 27.0577C24.2311 27.0056 24.5442 27.2578 24.5703 27.7709C24.5877 28.1971 24.5355 28.6755 24.3528 29.0582C23.8136 30.1888 22.9178 30.3541 21.9871 29.58C20.6042 28.4319 18.3429 28.4667 17.1601 29.6409C18.4734 31.1977 20.7347 31.8239 22.6742 31.1455C25.1965 30.2671 27.797 30.1714 30.5193 30.2671C29.1277 31.1977 28.6233 32.511 29.0321 33.9809C29.8409 33.807 30.5019 33.3808 31.0499 32.7807C31.6587 32.111 31.7892 31.3021 31.6326 30.3889C32.8328 30.3889 33.9635 30.4324 35.0246 30.9194C36.1205 31.4239 36.5206 32.4415 36.1814 33.5895C35.8596 34.6854 35.0246 35.0333 34.0331 35.216C32.2849 35.5378 30.5802 35.2855 28.8755 34.868C26.1184 34.1896 23.3613 33.5808 20.4999 34.3984C19.2735 34.7463 18.5864 34.6245 18.0037 33.1634C17.5253 31.9631 16.5512 31.189 15.1249 30.8324C15.0988 31.4326 15.0031 31.9457 15.064 32.4328C15.264 33.9113 16.3425 34.5288 17.621 34.9376C18.1081 35.0942 18.5603 35.329 19.03 35.5204C19.03 35.6247 19.03 35.7291 19.03 35.8335C18.6647 35.99 18.3168 36.2335 17.9341 36.2857C17.1253 36.3988 16.3599 36.2683 15.638 35.79C13.7507 34.5375 11.2284 34.9115 9.69765 36.6249C10.176 37.2946 10.7587 37.6773 11.672 37.8774C13.5593 38.2861 15.3945 37.9296 17.2209 37.4599C19.404 36.9033 21.5958 36.3814 23.8658 36.4249C24.4224 36.4336 24.9791 36.5554 25.5357 36.6249C23.7179 37.3294 22.2655 38.3035 21.4479 40.2779C23.1091 40.2083 24.6051 40.1213 25.901 39.182C26.3619 38.8428 26.5446 38.3557 26.5011 37.773C26.4315 36.8511 26.7011 36.4945 27.597 36.5814C29.7192 36.7815 31.6326 37.5556 33.1633 39.0602C34.2331 40.1213 34.2157 42.1565 33.2329 43.0089C32.2414 43.8612 30.7455 43.8351 30.0584 42.5131C29.6148 41.6608 28.9973 40.9302 27.9449 40.5127C27.5361 42.3218 28.6146 43.148 29.9366 43.9221C27.8927 44.0178 25.8923 44.0873 23.8919 43.9917C22.996 43.9482 22.1089 43.6264 21.2479 43.3394C20.9608 43.2437 20.639 42.8958 20.5608 42.6088C20.3694 41.8521 19.8911 41.3998 19.23 41.1302C17.421 40.3735 15.5075 40.3822 13.5158 40.4518C13.8028 41.3215 14.316 41.913 14.9596 42.4C16.0816 43.2437 17.3775 43.6003 18.7517 43.7655C19.1518 43.8177 19.5605 43.8438 19.9345 43.9656C20.5347 44.1569 20.6651 44.5483 20.2911 45.0354C19.8128 45.6529 19.2387 46.0617 18.3777 46.053C15.8119 46.0095 14.3247 47.749 12.6809 49.5841C14.7422 49.6972 16.586 49.7233 18.2559 48.7492C18.6908 48.4969 19.0735 47.9577 19.2387 47.4706C19.604 46.4096 20.2998 45.7833 21.3522 45.5398C22.8743 45.1832 24.3963 45.392 26.0749 45.505C23.657 46.4009 23.4831 48.4187 24.1006 49.8885C25.901 49.0188 27.5013 48.0447 27.3448 45.6964C28.2841 45.5833 30.9977 46.0617 32.3632 46.5487C33.4243 46.9314 34.4158 47.4098 35.1986 48.2534C36.8076 49.9842 36.4075 52.1325 34.2853 53.1153C33.9461 53.2718 33.5895 53.4458 33.2242 53.5154C31.4499 53.8546 29.6844 54.1938 27.9014 54.4634C24.8225 54.933 21.7262 55.307 18.656 55.8376C17.4993 56.0376 16.4034 56.5421 15.2814 56.9074C15.2988 56.9856 15.3249 57.0639 15.3423 57.1422C17.0905 57.0465 18.8474 56.9161 20.5955 56.8639C22.335 56.8117 24.0832 56.6899 25.8227 57.0987C25.6488 57.3509 25.4661 57.5336 25.2487 57.6553C24.779 57.9163 24.2833 58.125 23.8223 58.3859C22.9699 58.8817 22.4481 59.621 22.1785 60.7255C22.5264 60.5342 22.7177 60.4298 22.9178 60.3255C25.5096 58.9339 28.0753 57.5075 30.702 56.1855C31.5369 55.768 32.511 55.5593 33.4417 55.4027C33.7983 55.3418 34.3723 55.5767 34.5723 55.8637C34.8767 56.3246 34.7376 56.9248 34.294 57.3162C33.7809 57.7684 33.2155 58.1685 32.6589 58.5773C32.3197 58.8295 31.9457 59.0382 31.5891 59.2557C31.7978 59.3513 31.9544 59.3427 32.1023 59.3079C33.4504 59.0295 34.5549 58.2729 35.6334 57.4727C36.9467 56.4899 38.3644 55.8028 40.043 55.768V59.7601C40.4518 59.7775 40.7475 59.7949 41.0345 59.8123C42.3826 59.908 43.5742 60.3429 44.4178 61.4387C44.7222 61.8388 45.0354 61.9171 45.4876 61.9171C52.7587 61.9084 60.0297 61.9171 67.3008 61.9084C67.5356 61.9084 67.7792 61.891 68.0401 61.8736C71.6147 50.8626 75.172 39.8952 78.7292 28.9103C65.8309 19.5519 52.9935 10.1934 40.043 0.739283V6.14909V6.15779ZM37.6077 58.8208C37.5382 58.8643 37.4773 58.9078 37.4077 58.9426C36.9728 60.5429 36.6162 62.1606 37.0337 63.8392C37.4599 65.5526 38.5819 66.5615 40.3474 66.7529C40.9389 66.8138 41.539 66.7616 41.9565 66.7616C42.4783 66.2832 42.8436 65.8657 43.2872 65.5439C45.0614 64.2306 44.9658 62.1693 43.061 61.0213C42.2 60.5081 41.2607 60.4037 40.3039 60.3776C39.3385 60.3516 38.5384 59.9776 37.8861 59.2644C37.773 59.1339 37.7034 58.9687 37.6164 58.8121" fill="white"/>
<path d="M40.0254 72.1279C41.6953 72.1279 43.0869 73.5282 43.0782 75.1981C43.0782 76.8593 41.6605 78.2422 39.9819 78.2422C38.3033 78.2422 36.9291 76.8506 36.9378 75.1633C36.9465 73.4673 38.312 72.1279 40.0167 72.1279" fill="white"/>
<path d="M40.0258 55.8205C40.0258 50.0715 40.0171 44.3225 40.0171 38.5735C40.0171 28.0061 40.0171 17.4474 40.0171 6.88C40.0171 6.63647 40.0258 6.39294 40.0345 6.14941C41.0695 7.00176 41.4609 8.11504 41.3043 9.41965C41.2173 10.1502 41.0434 10.8634 40.9129 11.5853C40.826 12.0724 40.8086 12.6551 41.3304 12.7682C41.6348 12.8377 42.1654 12.4725 42.3915 12.1507C42.9568 11.3505 43.5309 10.6025 44.5311 10.3416C44.618 10.3155 44.705 10.3242 44.8529 10.3155C45.0616 11.4462 45.079 12.5333 44.4789 13.5422C44.1397 14.1076 43.5656 14.3337 42.9307 14.2815C41.313 14.1511 40.6172 14.9686 41.2521 16.769C41.5044 17.4909 41.8957 17.8301 42.6959 17.8649C44.2788 17.9258 45.1834 17.2995 45.7226 15.8123C45.9487 15.1861 46.3575 14.5772 46.8185 14.0902C47.636 13.2204 49.306 12.5768 50.5584 12.5159C50.915 14.2032 49.8713 15.8819 48.0622 16.5863C47.6534 16.7429 47.2186 16.9082 46.8881 17.1778C46.3488 17.6213 46.401 18.0823 46.9663 18.4911C47.723 19.039 48.471 18.9173 49.1755 18.3084C49.6973 17.8475 50.3236 17.4474 50.9672 17.1952C52.237 16.7081 53.5677 16.6907 54.9158 16.8821C54.307 18.5955 51.9674 20.1784 50.08 20.2306C48.1927 20.2828 46.2879 20.2915 44.4093 20.4828C42.809 20.6481 42.2436 21.4569 42.4524 23.0572C42.5567 23.8835 42.7568 24.7358 43.1134 25.4838C44.0353 27.3973 46.6532 28.0409 48.4014 26.8406C48.6884 26.6406 48.9755 26.2231 48.9928 25.8926C49.1668 23.4834 50.1148 22.3267 52.5066 21.7787C53.0633 21.6483 53.6373 21.5961 54.3331 21.483C53.8634 22.8398 53.1589 23.8748 52.2544 24.7619C51.8108 25.1968 51.2629 25.5186 50.7758 25.9013C50.3583 26.2318 49.9061 26.5362 49.5669 26.9363C49.0624 27.5451 49.1755 28.1452 49.8974 28.4671C50.4018 28.6932 51.0107 28.7802 51.5673 28.7715C53.3764 28.7367 54.8984 27.5799 55.5681 25.9448C55.7508 25.5012 56.1248 25.0751 56.5161 24.788C57.4207 24.1444 59.6298 23.9879 60.717 24.388C60.1952 25.9274 58.0469 27.2929 56.4466 27.1189C55.7247 27.0407 55.4637 27.2494 55.429 27.9713C55.3768 28.841 55.9943 29.8239 56.8292 30.0326C57.0815 30.0935 57.4902 29.9543 57.699 29.7717C59.2558 28.3975 61.2302 28.3018 62.9609 29.6064C61.9607 30.6849 60.7605 31.3459 59.3167 31.4329C58.6296 31.4764 57.8903 31.3372 57.2293 31.1285C54.8984 30.3805 52.5153 30.2152 50.0974 30.2674C50.0191 30.2674 49.9322 30.2935 49.7408 30.337C51.0802 31.2763 51.2542 32.5549 51.0802 33.9551C49.419 33.8595 48.4536 32.6331 48.2797 30.3892C47.0011 30.4675 45.7052 30.4153 44.5832 31.1894C43.8875 31.659 43.6613 32.3722 43.7918 33.1811C43.9135 33.9725 44.2614 34.6335 45.0703 34.9119C46.6532 35.4598 48.2623 35.4337 49.8887 35.1032C51.8978 34.7031 53.8982 34.2161 55.9334 34.0247C57.2293 33.9117 58.5774 34.2509 59.8907 34.4335C61.0127 34.5901 61.3519 34.4335 61.8216 33.3985C62.4043 32.0852 63.3436 31.1807 64.7439 30.798C65.344 32.0243 64.9874 33.529 63.8655 34.2596C63.3523 34.5987 62.7348 34.7727 62.1695 35.0162C61.7955 35.1815 61.4215 35.3467 61.0475 35.512C61.0475 35.599 61.0301 35.6946 61.0301 35.7816C61.3867 35.9382 61.7346 36.1904 62.1086 36.2426C62.8914 36.3556 63.648 36.2165 64.3351 35.7468C66.179 34.4857 68.8317 34.8684 70.3799 36.6253C69.9537 37.3732 69.2231 37.6863 68.4403 37.8777C66.5791 38.33 64.7787 37.9386 62.9522 37.5385C61.0388 37.121 59.108 36.7644 57.1771 36.4861C56.3509 36.3643 55.4898 36.5209 54.6288 36.66C56.4205 37.3558 57.8468 38.356 58.6122 40.2869C56.9858 40.2695 55.4985 40.1564 54.1765 39.2867C53.6112 38.9127 53.3764 38.356 53.4807 37.6689C53.5851 36.9732 53.4025 36.6426 52.7154 36.6687C51.8804 36.7035 51.0107 36.7992 50.2453 37.1123C49.1668 37.5559 48.1144 38.1299 47.1664 38.817C46.1923 39.5302 45.94 40.6522 46.1575 41.8263C46.3227 42.7483 47.0011 43.3571 47.9231 43.5136C48.8102 43.6702 49.3407 43.3832 49.8974 42.496C50.4192 41.6611 50.9846 40.8696 51.9761 40.513C52.5588 41.6785 52.15 42.4612 50.167 43.8963C52.9763 44.0442 55.6725 44.366 58.3252 43.5136C58.9166 43.3223 59.308 43.0005 59.5428 42.3308C59.7168 41.835 60.2647 41.3393 60.7692 41.1305C61.6215 40.7826 62.5609 40.5826 63.4741 40.4869C64.4569 40.3825 65.4571 40.4608 66.5008 40.4608C66.2573 41.348 65.7093 41.9481 65.0396 42.4525C63.9525 43.2614 62.7 43.618 61.378 43.7919C60.9344 43.8528 60.4822 43.8876 60.0734 44.0268C59.4994 44.2181 59.395 44.5921 59.7603 45.0531C60.2473 45.6619 60.8388 46.0272 61.6911 46.062C62.4478 46.0968 63.2393 46.2707 63.9264 46.5838C65.3093 47.2187 66.3355 48.3059 67.3531 49.6018C65.9703 49.7236 64.7178 49.741 63.4828 49.4453C62.8479 49.2887 62.1956 49.0539 61.6302 48.7234C61.2736 48.5147 60.917 48.1146 60.804 47.7232C60.3256 45.9837 59.0297 45.4879 57.4555 45.401C56.4118 45.3488 55.3681 45.3923 54.2722 45.4879C56.2639 46.436 56.5074 48.0015 56.0465 49.8628C54.133 49.5931 52.611 47.7319 52.6458 45.6358C51.9152 45.7315 51.202 45.8098 50.4888 45.9228C48.9668 46.1663 47.4708 46.5142 46.114 47.297C45.3225 47.7493 44.6702 48.332 44.2527 49.167C43.4526 50.776 43.844 52.2807 45.5052 52.9417C47.0011 53.5331 48.6015 53.9245 50.1931 54.1854C53.933 54.7942 57.6903 55.2291 61.4302 55.8379C62.587 56.0292 63.6828 56.5511 64.7787 57.0555C61.2649 57.0903 57.7686 56.612 54.2809 57.0295C54.2548 57.1164 54.22 57.1947 54.1939 57.2817C54.7332 57.5861 55.255 57.9253 55.8203 58.1775C56.8206 58.6298 57.4468 59.3952 57.786 60.4128C57.8121 60.491 57.8121 60.578 57.8468 60.7954C57.5598 60.6476 57.3598 60.5519 57.1598 60.4389C54.5679 59.0473 51.9935 57.6296 49.3842 56.2728C48.645 55.8901 47.8013 55.6553 46.9837 55.4552C46.4358 55.3248 45.7922 55.2639 45.4356 55.8901C45.1747 56.3511 45.4008 57.099 45.9748 57.5426C46.7837 58.1688 47.6361 58.7255 48.4623 59.4473C48.0622 59.3691 47.61 59.3778 47.2621 59.1951C46.201 58.6298 45.1486 58.0558 44.1571 57.3774C42.8959 56.5163 41.5652 55.9075 40.0258 55.8118" fill="white"/>
<path d="M101.079 51.6127C91.8054 51.6127 84.7688 45.4642 84.7688 35.2167C84.7688 25.7207 90.9515 18.6328 100.892 18.6328C105.4 18.6328 110.166 20.3237 113.513 23.9957L109.619 27.3261C107.416 25.1741 104.512 23.8249 100.857 23.8249C95.0334 23.8249 90.4903 28.1972 90.4903 35.2338C90.4903 41.7068 94.6064 46.6085 101.079 46.6085C103.658 46.6085 106.101 45.9254 108.287 44.4565V39.0083H100.379V34.0724H113.769V47.582C110.815 50.0243 106.084 51.6298 101.096 51.6298" fill="white"/>
<path d="M123.761 17.7959H118.671V51.3223H123.761V17.7959Z" fill="white"/>
<path d="M149.191 39.9647C149.191 40.7332 149.123 41.5872 149.055 41.98H132.881C133.547 45.1397 135.955 47.0525 139.217 47.0525C141.796 47.0525 143.624 45.857 144.751 44.4223L148.303 47.4624C146.407 49.8877 143.299 51.6639 138.944 51.6639C132.471 51.6639 127.586 47.1379 127.586 40.1867C127.586 33.2355 132.232 28.7607 138.414 28.7607C144.973 28.7607 149.191 33.4746 149.191 39.9476V39.9647ZM138.688 33.4063C135.904 33.4063 133.701 34.9776 132.983 37.881H144.102C143.453 35.1825 141.608 33.4063 138.705 33.4063" fill="white"/>
<path d="M165.263 28.7778C170.131 28.7778 173.427 31.5788 173.427 38.2397V51.3394H168.337V39.5548C168.337 34.858 166.578 33.3892 163.504 33.3892C160.054 33.3892 157.748 35.7974 157.748 40.1526V51.3053H152.659V29.1023H157.748V32.1424H157.817C159.712 29.9392 162.394 28.7607 165.263 28.7607V28.7778Z" fill="white"/>
<path d="M199.251 29.1194V51.3224H194.383V48.3506H194.315C192.692 50.4855 190.318 51.681 187.244 51.681C181.096 51.681 176.484 47.1892 176.484 40.3234C176.484 33.4575 181.096 28.7949 187.193 28.7949C190.011 28.7949 192.402 29.8197 194.059 31.8009H194.144V29.1365H199.234L199.251 29.1194ZM188.047 47.0526C191.497 47.0526 194.366 44.3541 194.366 40.3405C194.366 36.3268 191.719 33.4063 188.081 33.4063C184.443 33.4063 181.676 36.0707 181.676 40.3405C181.676 44.2687 184.306 47.0526 188.064 47.0526H188.047Z" fill="white"/>
<path d="M224.152 39.9647C224.152 40.7332 224.084 41.5872 224.015 41.98H207.841C208.508 45.1397 210.916 47.0525 214.178 47.0525C216.757 47.0525 218.584 45.857 219.711 44.4223L223.264 47.4624C221.368 49.8877 218.26 51.6639 213.905 51.6639C207.432 51.6639 202.547 47.1379 202.547 40.1867C202.547 33.2355 207.192 28.7607 213.375 28.7607C219.933 28.7607 224.152 33.4746 224.152 39.9476V39.9647ZM213.631 33.4063C210.847 33.4063 208.644 34.9776 207.927 37.881H219.045C218.396 35.1825 216.552 33.4063 213.648 33.4063" fill="white"/>
<path d="M237.969 51.6805C230.949 51.6805 226.304 46.7617 226.304 40.2546C226.304 33.7474 230.949 28.7773 237.969 28.7773C244.989 28.7773 249.617 33.44 249.617 40.2546C249.617 47.0691 244.767 51.6805 237.969 51.6805ZM244.425 40.2546C244.425 36.1897 241.607 33.4058 237.952 33.4058C234.058 33.4058 231.462 36.3776 231.462 40.2546C231.462 44.1315 234.126 47.0521 237.952 47.0521C241.556 47.0521 244.425 44.2511 244.425 40.2546Z" fill="white"/>
<path d="M265.706 28.7778C270.573 28.7778 273.87 31.5788 273.87 38.2397V51.3394H268.78V39.5548C268.78 34.858 267.021 33.3892 263.947 33.3892C260.497 33.3892 258.191 35.7974 258.191 40.1526V51.3053H253.101V29.1023H258.191V32.1424H258.259C260.155 29.9392 262.836 28.7607 265.706 28.7607V28.7778Z" fill="white"/>
<path d="M95.0504 73.6618L91.0368 67.7866H87.7576V73.6618H86.6133V59.1445H91.5662C94.8284 59.1445 96.2118 60.9891 96.2118 63.4485C96.2118 66.0787 94.6576 67.4279 92.4031 67.7354L96.5021 73.6789H95.0504V73.6618ZM87.7576 66.6935H91.1905C93.9573 66.6935 95.0162 65.293 95.0162 63.4314C95.0162 61.2965 93.6841 60.2376 91.5321 60.2376H87.7747V66.6935H87.7576Z" fill="white"/>
<path d="M106.784 63.7222V73.6622H105.708V71.8177H105.674C104.854 73.0474 103.556 73.7476 102.224 73.7476C99.952 73.7476 98.6028 72.3642 98.6028 69.6657V63.7222H99.6788V69.3412C99.6788 71.8519 100.686 72.7229 102.377 72.7229C104.068 72.7229 105.725 71.1345 105.725 68.6239V63.7051H106.801L106.784 63.7222Z" fill="white"/>
<path d="M118.603 58.6157V73.6625H117.561V71.7838H117.527C116.758 73.0135 115.443 73.7649 113.769 73.7649C111.088 73.7649 108.902 71.8008 108.902 68.7778C108.902 65.7548 110.883 63.6199 113.718 63.6199C115.272 63.6199 116.656 64.3714 117.476 65.6694H117.527V58.5986H118.603V58.6157ZM113.821 72.7402C115.819 72.7402 117.561 71.1518 117.561 68.7778C117.561 66.4038 116.007 64.6447 113.838 64.6447C111.669 64.6447 109.995 66.2672 109.995 68.7778C109.995 71.0152 111.549 72.7402 113.821 72.7402Z" fill="white"/>
<path d="M120.823 68.7092C120.823 65.8912 122.838 63.6367 125.878 63.6367C128.731 63.6367 130.917 65.6862 130.917 68.7092C130.917 71.7323 128.748 73.7647 125.878 73.7647C122.838 73.7647 120.823 71.5102 120.823 68.7092ZM125.861 72.7399C128.047 72.7399 129.807 71.1003 129.807 68.7092C129.807 66.3182 128.047 64.6444 125.861 64.6444C123.487 64.6444 121.916 66.4548 121.916 68.7092C121.916 70.9637 123.504 72.7399 125.861 72.7399Z" fill="white"/>
<path d="M134.315 58.6152H133.24V73.662H134.315V58.6152Z" fill="white"/>
<path d="M137.766 64.7295H136.468V63.7389H137.766V61.5357C137.766 59.4862 138.773 58.5127 140.379 58.5127C141.267 58.5127 141.933 58.7689 142.496 59.0934L142.257 60.0498C141.66 59.7253 141.096 59.5375 140.447 59.5375C139.525 59.5375 138.824 60.1011 138.824 61.6211V63.7219H141.984V64.7124H138.824V73.6449H137.748V64.7124L137.766 64.7295Z" fill="white"/>
<path d="M153.222 73.7647C151.429 73.7647 149.567 73.0816 148.167 71.5444L148.918 70.6392C150.011 71.9543 151.668 72.6204 153.239 72.6204C155.22 72.6204 156.689 71.5957 156.689 69.9902C156.689 67.9749 155.067 67.4796 153.034 66.6939C151.002 65.9083 148.747 65.1056 148.747 62.6974C148.747 60.6138 150.626 59.0254 153.051 59.0254C154.554 59.0254 156.126 59.589 157.475 60.6479L156.74 61.5873C155.579 60.6479 154.23 60.1526 153.051 60.1526C151.531 60.1526 150.011 60.9895 150.011 62.612C150.011 64.3541 151.6 64.8323 153.461 65.5667C155.852 66.5232 157.936 67.1722 157.936 69.8536C157.936 72.2447 155.852 73.7306 153.256 73.7306" fill="white"/>
<path d="M162.753 73.7649C160.942 73.7649 160.344 72.6719 160.344 70.8615V64.73H159.029V63.7395H160.344V60.2724L161.42 60.1357V63.7395H165.041V64.73H161.42V70.5882C161.42 71.9545 161.677 72.7231 162.872 72.7231C163.641 72.7231 164.324 72.3986 164.751 72.1595L165.024 73.133C164.529 73.4404 163.811 73.7649 162.753 73.7649Z" fill="white"/>
<path d="M175.118 68.4355C175.118 68.6746 175.101 68.9308 175.084 68.9649H167.091C167.193 71.2194 168.73 72.7394 170.797 72.7394C172.146 72.7394 173.205 72.1246 173.922 71.2365L174.691 71.9026C173.837 73.0127 172.539 73.7642 170.814 73.7642C168.064 73.7642 165.98 71.7147 165.98 68.7088C165.98 65.7028 168.03 63.6533 170.626 63.6533C173.222 63.6533 175.101 65.7028 175.101 68.4526L175.118 68.4355ZM167.125 67.9573H174.025C173.803 65.9932 172.556 64.661 170.711 64.661C168.867 64.661 167.415 65.959 167.125 67.9573Z" fill="white"/>
<path d="M177.064 60.7333C177.064 60.2209 177.457 59.8281 177.97 59.8281C178.482 59.8281 178.875 60.2209 178.875 60.7333C178.875 61.2457 178.482 61.6214 177.97 61.6214C177.457 61.6214 177.064 61.2286 177.064 60.7333ZM177.406 63.7222H178.482V73.6623H177.406V63.7222Z" fill="white"/>
<path d="M186.458 63.6367C188.439 63.6367 189.806 64.8152 189.806 67.787V73.6793H188.73V67.9407C188.73 65.3446 187.602 64.6786 186.219 64.6786C184.016 64.6786 182.581 66.284 182.581 68.7776V73.6964H181.505V63.7563H182.581V65.7033H182.615C183.452 64.4053 184.853 63.6709 186.475 63.6709L186.458 63.6367Z" fill="white"/>
<path d="M200.941 68.9654H192.948C193.068 71.2199 194.588 72.757 196.654 72.757C198.004 72.757 199.063 72.1422 199.78 71.2541L200.549 71.9201C199.695 73.0474 198.397 73.7818 196.672 73.7818C193.922 73.7818 191.838 71.7323 191.838 68.7263C191.838 65.7204 193.888 63.6709 196.484 63.6709C199.08 63.6709 200.958 65.7204 200.958 68.4531C200.958 68.6922 200.941 68.9484 200.924 68.9825M196.569 64.6615C194.742 64.6615 193.273 65.9595 192.982 67.9578H199.882C199.66 65.9937 198.414 64.6615 196.569 64.6615Z" fill="white"/>
<path d="M208.166 63.6362V64.8318C207.927 64.8147 207.722 64.7976 207.534 64.7976C205.501 64.7976 204.203 66.4543 204.203 68.7941V73.6617H203.127V63.7216H204.203V65.6003H204.255C204.989 64.3535 206.168 63.6191 207.619 63.6191C207.79 63.6191 207.978 63.6191 208.149 63.6191" fill="white"/>
<path d="M219.353 73.7647C217.559 73.7647 215.698 73.0816 214.297 71.5444L215.049 70.6392C216.142 71.9543 217.798 72.6204 219.37 72.6204C221.351 72.6204 222.82 71.5957 222.82 69.9902C222.82 67.9749 221.197 67.4796 219.165 66.6939C217.132 65.9083 214.878 65.1056 214.878 62.6974C214.878 60.6138 216.757 59.0254 219.182 59.0254C220.685 59.0254 222.256 59.589 223.605 60.6479L222.871 61.5873C221.709 60.6479 220.36 60.1526 219.182 60.1526C217.662 60.1526 216.142 60.9895 216.142 62.612C216.142 64.3541 217.73 64.8323 219.592 65.5667C221.983 66.5232 224.066 67.1722 224.066 69.8536C224.066 72.2447 221.983 73.7306 219.387 73.7306" fill="white"/>
<path d="M225.689 68.7092C225.689 65.7375 227.67 63.6367 230.574 63.6367C232.008 63.6367 233.46 64.2003 234.434 65.3105L233.665 65.9937C232.999 65.208 231.906 64.6615 230.608 64.6615C228.336 64.6615 226.782 66.3352 226.782 68.7092C226.782 71.0832 228.336 72.757 230.591 72.757C231.837 72.757 232.999 72.2446 233.716 71.4419L234.451 72.1592C233.614 73.0815 232.162 73.7818 230.522 73.7818C227.67 73.7818 225.689 71.7152 225.689 68.7263" fill="white"/>
<path d="M241.436 63.6365C243.537 63.6365 244.886 64.815 244.886 67.7868V73.6791H243.81V67.9405C243.81 65.3445 242.683 64.6784 241.18 64.6784C238.976 64.6784 237.542 66.2838 237.542 68.7774V73.6962H236.466V58.6494H237.542V65.7031H237.576C238.413 64.4051 239.813 63.6707 241.436 63.6707V63.6365Z" fill="white"/>
<path d="M246.901 68.7092C246.901 65.8912 248.917 63.6367 251.957 63.6367C254.809 63.6367 256.995 65.6862 256.995 68.7092C256.995 71.7323 254.826 73.7647 251.957 73.7647C248.917 73.7647 246.901 71.5102 246.901 68.7092ZM251.94 72.7399C254.126 72.7399 255.885 71.1003 255.885 68.7092C255.885 66.3182 254.126 64.6444 251.94 64.6444C249.566 64.6444 247.994 66.4548 247.994 68.7092C247.994 70.9637 249.583 72.7399 251.94 72.7399Z" fill="white"/>
<path d="M258.532 68.7092C258.532 65.8912 260.531 63.6367 263.588 63.6367C266.44 63.6367 268.626 65.6862 268.626 68.7092C268.626 71.7323 266.457 73.7647 263.588 73.7647C260.548 73.7647 258.532 71.5102 258.532 68.7092ZM263.588 72.7399C265.774 72.7399 267.533 71.1003 267.533 68.7092C267.533 66.3182 265.774 64.6444 263.588 64.6444C261.214 64.6444 259.643 66.4548 259.643 68.7092C259.643 70.9637 261.231 72.7399 263.588 72.7399Z" fill="white"/>
<path d="M272.025 58.6152H270.949V73.662H272.025V58.6152Z" fill="white"/>
</svg>
