<svg width="80" height="79" viewBox="0 0 80 79" fill="none" xmlns="http://www.w3.org/2000/svg">
<path d="M40.1648 0C41.2433 0.81756 42.3131 1.65251 43.4089 2.45268C55.2809 11.1153 67.153 19.7693 79.0163 28.4319C79.138 28.5189 79.2598 28.6233 79.4163 28.7537C74.3631 44.3309 69.3186 59.8993 64.2654 75.459H43.6959C43.5655 73.1368 42.3826 71.78 40.0169 71.493V69.5969C40.2605 69.5969 40.5301 69.5448 40.7475 69.623C41.1389 69.7622 41.6694 69.8927 41.8521 70.1971C42.774 71.6756 44.2352 72.2323 45.9138 72.8411C45.6355 72.4497 45.4354 72.241 45.3137 71.9887C44.9745 71.2929 44.5831 70.6058 44.3657 69.8753C44.1569 69.1882 44.7483 68.1358 45.3224 67.8922C45.8442 67.6661 46.4443 67.9183 46.9836 68.7011C47.3837 69.2838 47.749 69.91 48.0534 70.545C48.4187 71.2929 48.7144 72.0757 49.0536 72.902C49.1753 72.7541 49.2623 72.6497 49.3319 72.5454C50.2973 70.919 50.0277 69.1795 48.6013 67.5791C48.41 67.3704 48.1664 66.9268 48.236 66.8311C48.4534 66.5702 48.8013 66.3354 49.1319 66.2658C49.9581 66.1006 50.7322 66.3963 51.2453 67.0138C51.9672 67.8748 52.7065 68.7794 53.1501 69.797C53.9154 71.5278 55.1679 72.5802 56.8813 73.1977C57.2814 73.3455 57.6988 73.4325 58.2381 73.5891C57.4988 72.0757 56.6203 70.8929 55.6201 69.7709C54.9852 69.0664 54.4721 68.2488 53.9676 67.4487C53.8372 67.2486 53.8285 66.8224 53.9589 66.6485C54.0807 66.492 54.4982 66.4398 54.733 66.518C55.5158 66.7703 56.2812 67.0747 57.0291 67.4052C59.4557 68.475 61.1691 67.9444 63.126 65.4743C62.9347 65.5091 62.7694 65.5091 62.6477 65.5787C61.0213 66.5093 59.4383 66.0919 57.8206 65.5265C56.3942 65.0308 54.9417 64.5698 53.4719 64.2306C50.1929 63.4739 47.1401 64.0132 44.4352 66.1093C43.5916 66.7616 42.7827 67.4661 41.9652 68.1532C41.365 68.6576 40.8171 68.5532 40.4518 67.8488C40.3648 67.6835 40.2866 67.5182 40.1996 67.3617C40.1387 67.3704 40.0778 67.3878 40.0256 67.3965V69.623C39.669 69.6491 39.2864 69.5969 38.9645 69.71C38.6427 69.8231 38.2861 70.0492 38.1035 70.3275C37.3729 71.4495 35.5465 72.6063 34.1201 72.7541C34.5202 72.1105 34.955 71.493 35.2942 70.832C35.6769 70.084 35.7552 69.3012 35.2594 68.5445C34.6941 67.6922 33.9896 67.553 33.3721 68.3619C32.7285 69.1969 32.224 70.1536 31.7196 71.0929C31.4065 71.6669 31.2151 72.3105 30.9629 72.9368C29.78 71.7452 29.7626 69.6317 30.8846 68.1184C31.0847 67.8488 31.3021 67.5965 31.5369 67.353C31.8935 66.9964 31.7978 66.6224 31.4065 66.5093C30.902 66.3615 30.241 66.2136 29.8235 66.4224C29.1103 66.7703 28.4406 67.3182 27.9275 67.927C27.4056 68.5445 27.0317 69.3099 26.7098 70.0666C25.7618 72.2497 23.9006 73.0846 21.8045 73.6239C21.7349 73.563 21.674 73.5108 21.6044 73.4586C22.3524 72.3975 23.083 71.3277 23.8571 70.2927C24.4398 69.51 25.1008 68.7794 25.6922 67.9966C25.8749 67.7531 25.988 67.44 26.0662 67.153C26.188 66.7007 25.9532 66.405 25.5009 66.518C24.8312 66.6746 24.1963 66.9355 23.544 67.1617C22.8569 67.4052 22.1785 67.7096 21.474 67.8922C20.3346 68.1793 19.3083 67.8401 18.4125 67.1182C17.795 66.6224 17.2383 66.0658 16.7339 65.3874C17.047 65.483 17.3862 65.5178 17.6645 65.6744C18.7952 66.3006 19.9345 66.1962 21.1 65.8223C22.7351 65.3004 24.3528 64.7264 26.0054 64.2915C30.1975 63.1782 33.8417 64.2915 36.9815 67.2051C37.2772 67.4748 37.5556 67.7792 37.8948 67.9792C38.2079 68.1706 38.6688 68.4402 38.9298 68.3445C39.269 68.2141 39.4777 67.7531 39.8343 67.3182C36.9815 66.5441 36.2596 64.535 36.2335 62.0476H11.4371C12.8287 66.3354 14.2029 70.5798 15.6032 74.9024H16.4034C22.8047 74.9024 29.206 74.9024 35.6073 74.9024C35.9378 74.9024 36.451 74.7284 36.3031 75.459H15.1509C10.1064 59.8993 5.06191 44.3309 0 28.745C1.78298 27.4578 3.52246 26.2054 5.25326 24.9617C16.7078 16.7252 28.1275 8.5148 39.5473 0.30441C39.669 0.217436 39.7821 0.104369 39.8952 0H40.1648ZM40.043 6.15779C38.6862 7.25367 38.5297 8.68875 38.8602 10.2717C38.9819 10.8544 39.1124 11.4545 39.1298 12.046C39.1385 12.3069 38.9471 12.6809 38.7297 12.8026C38.5558 12.8983 38.1644 12.7418 37.9556 12.5939C37.7034 12.4026 37.5295 12.0894 37.3294 11.8198C36.7989 11.0892 36.1988 10.463 35.0681 10.3413C35.0681 10.8805 35.042 11.3676 35.0681 11.8459C35.1812 13.4028 35.7813 14.4291 37.4773 14.2725C37.5643 14.2638 37.6599 14.2812 37.7469 14.2899C38.5384 14.3769 38.9211 14.7161 39.0167 15.4119C39.1124 16.1077 38.5645 17.6036 38.1557 17.7689C38.1122 17.7863 38.0687 17.7863 38.0252 17.795C36.164 18.169 34.6941 17.4906 34.2331 15.7859C33.7461 13.9855 31.363 12.4808 29.38 12.5852C29.38 12.7505 29.3626 12.9244 29.38 13.0983C29.5365 14.8378 30.4584 15.9685 32.0675 16.586C32.4328 16.7252 32.8154 16.8817 33.1373 17.1079C33.5199 17.3775 33.6417 17.795 33.3808 18.2298C32.9459 18.9604 31.5543 19.0996 30.9629 18.4821C29.3539 16.76 27.2926 16.7513 25.1443 16.8904C25.8053 18.6212 28.1101 20.1694 29.9714 20.2042C31.6413 20.2389 33.3112 20.2563 34.9811 20.352C35.5464 20.3868 36.1205 20.5521 36.651 20.7695C37.2598 21.0217 37.7034 21.5436 37.6164 22.2307C37.4947 23.257 37.4077 24.3354 37.025 25.2835C36.164 27.3796 33.4156 28.1275 31.5543 26.849C31.2586 26.649 30.9716 26.1706 30.989 25.8314C31.0847 23.2222 28.8755 21.5349 25.7618 21.6653C26.4924 23.3961 27.5535 24.8051 29.1277 25.8053C29.5191 26.0575 29.9279 26.3098 30.2497 26.6403C31.0934 27.4839 30.8672 28.3798 29.7279 28.7016C27.6144 29.3104 24.8486 27.797 24.4398 26.101C24.3267 25.6314 23.918 25.1269 23.5092 24.866C22.2133 24.0571 20.7695 24.1354 19.2996 24.3615C20.0302 26.0662 21.8915 27.2143 23.657 27.0577C24.2311 27.0056 24.5442 27.2578 24.5703 27.7709C24.5877 28.1971 24.5355 28.6755 24.3528 29.0582C23.8136 30.1888 22.9178 30.3541 21.9871 29.58C20.6042 28.4319 18.3429 28.4667 17.1601 29.6409C18.4734 31.1977 20.7347 31.8239 22.6742 31.1455C25.1965 30.2671 27.797 30.1714 30.5193 30.2671C29.1277 31.1977 28.6233 32.511 29.0321 33.9809C29.8409 33.807 30.5019 33.3808 31.0499 32.7807C31.6587 32.111 31.7892 31.3021 31.6326 30.3889C32.8328 30.3889 33.9635 30.4324 35.0246 30.9194C36.1205 31.4239 36.5206 32.4415 36.1814 33.5895C35.8596 34.6854 35.0246 35.0333 34.0331 35.216C32.2849 35.5378 30.5802 35.2855 28.8755 34.868C26.1184 34.1896 23.3613 33.5808 20.4999 34.3984C19.2735 34.7463 18.5864 34.6245 18.0037 33.1634C17.5253 31.9631 16.5512 31.189 15.1249 30.8324C15.0988 31.4326 15.0031 31.9457 15.064 32.4328C15.264 33.9113 16.3425 34.5288 17.621 34.9376C18.1081 35.0942 18.5603 35.329 19.03 35.5204C19.03 35.6247 19.03 35.7291 19.03 35.8335C18.6647 35.99 18.3168 36.2335 17.9341 36.2857C17.1253 36.3988 16.3599 36.2683 15.638 35.79C13.7507 34.5375 11.2284 34.9115 9.69765 36.6249C10.176 37.2946 10.7587 37.6773 11.672 37.8774C13.5593 38.2861 15.3945 37.9296 17.2209 37.4599C19.404 36.9033 21.5958 36.3814 23.8658 36.4249C24.4224 36.4336 24.9791 36.5554 25.5357 36.6249C23.7179 37.3294 22.2655 38.3035 21.4479 40.2779C23.1091 40.2083 24.6051 40.1213 25.901 39.182C26.3619 38.8428 26.5446 38.3557 26.5011 37.773C26.4315 36.8511 26.7011 36.4945 27.597 36.5814C29.7192 36.7815 31.6326 37.5556 33.1633 39.0602C34.2331 40.1213 34.2157 42.1565 33.2329 43.0089C32.2414 43.8612 30.7455 43.8351 30.0584 42.5131C29.6148 41.6608 28.9973 40.9302 27.9449 40.5127C27.5361 42.3218 28.6146 43.148 29.9366 43.9221C27.8927 44.0178 25.8923 44.0873 23.8919 43.9917C22.996 43.9482 22.1089 43.6264 21.2479 43.3394C20.9608 43.2437 20.639 42.8958 20.5608 42.6088C20.3694 41.8521 19.8911 41.3998 19.23 41.1302C17.421 40.3735 15.5075 40.3822 13.5158 40.4518C13.8028 41.3215 14.316 41.913 14.9596 42.4C16.0816 43.2437 17.3775 43.6003 18.7517 43.7655C19.1518 43.8177 19.5605 43.8438 19.9345 43.9656C20.5347 44.1569 20.6651 44.5483 20.2911 45.0354C19.8128 45.6529 19.2387 46.0617 18.3777 46.053C15.8119 46.0095 14.3247 47.749 12.6809 49.5841C14.7422 49.6972 16.586 49.7233 18.2559 48.7492C18.6908 48.4969 19.0735 47.9577 19.2387 47.4706C19.604 46.4096 20.2998 45.7833 21.3522 45.5398C22.8743 45.1832 24.3963 45.392 26.0749 45.505C23.657 46.4009 23.4831 48.4187 24.1006 49.8885C25.901 49.0188 27.5013 48.0447 27.3448 45.6964C28.2841 45.5833 30.9977 46.0617 32.3632 46.5487C33.4243 46.9314 34.4158 47.4098 35.1986 48.2534C36.8076 49.9842 36.4075 52.1325 34.2853 53.1153C33.9461 53.2718 33.5895 53.4458 33.2242 53.5154C31.4499 53.8546 29.6844 54.1938 27.9014 54.4634C24.8225 54.933 21.7262 55.307 18.656 55.8376C17.4993 56.0376 16.4034 56.5421 15.2814 56.9074C15.2988 56.9856 15.3249 57.0639 15.3423 57.1422C17.0905 57.0465 18.8474 56.9161 20.5955 56.8639C22.335 56.8117 24.0832 56.6899 25.8227 57.0987C25.6488 57.3509 25.4661 57.5336 25.2487 57.6553C24.779 57.9163 24.2833 58.125 23.8223 58.3859C22.9699 58.8817 22.4481 59.621 22.1785 60.7255C22.5264 60.5342 22.7177 60.4298 22.9178 60.3255C25.5096 58.9339 28.0753 57.5075 30.702 56.1855C31.5369 55.768 32.511 55.5593 33.4417 55.4027C33.7983 55.3418 34.3723 55.5767 34.5723 55.8637C34.8767 56.3246 34.7376 56.9248 34.294 57.3162C33.7809 57.7684 33.2155 58.1685 32.6589 58.5773C32.3197 58.8295 31.9457 59.0382 31.5891 59.2557C31.7978 59.3513 31.9544 59.3427 32.1023 59.3079C33.4504 59.0295 34.5549 58.2729 35.6334 57.4727C36.9467 56.4899 38.3644 55.8028 40.043 55.768V59.7601C40.4518 59.7775 40.7475 59.7949 41.0345 59.8123C42.3826 59.908 43.5742 60.3429 44.4178 61.4387C44.7222 61.8388 45.0354 61.9171 45.4876 61.9171C52.7587 61.9084 60.0297 61.9171 67.3008 61.9084C67.5356 61.9084 67.7792 61.891 68.0401 61.8736C71.6147 50.8626 75.172 39.8952 78.7292 28.9103C65.8309 19.5519 52.9935 10.1934 40.043 0.739283V6.14909V6.15779ZM37.6077 58.8208C37.5382 58.8643 37.4773 58.9078 37.4077 58.9426C36.9728 60.5429 36.6162 62.1606 37.0337 63.8392C37.4599 65.5526 38.5819 66.5615 40.3474 66.7529C40.9389 66.8138 41.539 66.7616 41.9565 66.7616C42.4783 66.2832 42.8436 65.8657 43.2872 65.5439C45.0614 64.2306 44.9658 62.1693 43.061 61.0213C42.2 60.5081 41.2607 60.4037 40.3039 60.3776C39.3385 60.3516 38.5384 59.9776 37.8861 59.2644C37.773 59.1339 37.7034 58.9687 37.6164 58.8121" fill="#1C3666"/>
<path d="M40.0255 72.1279C41.6954 72.1279 43.087 73.5282 43.0783 75.1981C43.0783 76.8593 41.6606 78.2422 39.982 78.2422C38.3034 78.2422 36.9292 76.8506 36.9379 75.1633C36.9466 73.4673 38.3121 72.1279 40.0168 72.1279" fill="#1C3666"/>
<path d="M40.0257 55.8205C40.0257 50.0715 40.017 44.3225 40.017 38.5735C40.017 28.0061 40.017 17.4474 40.017 6.88C40.017 6.63647 40.0257 6.39294 40.0344 6.14941C41.0694 7.00176 41.4607 8.11504 41.3042 9.41965C41.2172 10.1502 41.0433 10.8634 40.9128 11.5853C40.8258 12.0724 40.8084 12.6551 41.3303 12.7682C41.6347 12.8377 42.1652 12.4725 42.3914 12.1507C42.9567 11.3505 43.5307 10.6025 44.5309 10.3416C44.6179 10.3155 44.7049 10.3242 44.8527 10.3155C45.0615 11.4462 45.0789 12.5333 44.4788 13.5422C44.1396 14.1076 43.5655 14.3337 42.9306 14.2815C41.3129 14.1511 40.6171 14.9686 41.252 16.769C41.5042 17.4909 41.8956 17.8301 42.6958 17.8649C44.2787 17.9258 45.1832 17.2995 45.7225 15.8123C45.9486 15.1861 46.3574 14.5772 46.8184 14.0902C47.6359 13.2204 49.3058 12.5768 50.5583 12.5159C50.9149 14.2032 49.8712 15.8819 48.0621 16.5863C47.6533 16.7429 47.2184 16.9082 46.8879 17.1778C46.3487 17.6213 46.4009 18.0823 46.9662 18.4911C47.7229 19.039 48.4709 18.9173 49.1754 18.3084C49.6972 17.8475 50.3234 17.4474 50.967 17.1952C52.2369 16.7081 53.5676 16.6907 54.9157 16.8821C54.3069 18.5955 51.9672 20.1784 50.0799 20.2306C48.1926 20.2828 46.2878 20.2915 44.4092 20.4828C42.8088 20.6481 42.2435 21.4569 42.4523 23.0572C42.5566 23.8835 42.7567 24.7358 43.1133 25.4838C44.0352 27.3973 46.6531 28.0409 48.4013 26.8406C48.6883 26.6406 48.9753 26.2231 48.9927 25.8926C49.1667 23.4834 50.1147 22.3267 52.5065 21.7787C53.0631 21.6483 53.6372 21.5961 54.333 21.483C53.8633 22.8398 53.1588 23.8748 52.2543 24.7619C51.8107 25.1968 51.2628 25.5186 50.7757 25.9013C50.3582 26.2318 49.906 26.5362 49.5668 26.9363C49.0623 27.5451 49.1754 28.1452 49.8973 28.4671C50.4017 28.6932 51.0105 28.7802 51.5672 28.7715C53.3762 28.7367 54.8983 27.5799 55.568 25.9448C55.7506 25.5012 56.1246 25.0751 56.516 24.788C57.4205 24.1444 59.6297 23.9879 60.7169 24.388C60.195 25.9274 58.0468 27.2929 56.4464 27.1189C55.7246 27.0407 55.4636 27.2494 55.4288 27.9713C55.3766 28.841 55.9942 29.8239 56.8291 30.0326C57.0813 30.0935 57.4901 29.9543 57.6989 29.7717C59.2557 28.3975 61.23 28.3018 62.9608 29.6064C61.9606 30.6849 60.7604 31.3459 59.3166 31.4329C58.6295 31.4764 57.8902 31.3372 57.2292 31.1285C54.8983 30.3805 52.5152 30.2152 50.0973 30.2674C50.019 30.2674 49.932 30.2935 49.7407 30.337C51.0801 31.2763 51.2541 32.5549 51.0801 33.9551C49.4189 33.8595 48.4535 32.6331 48.2795 30.3892C47.001 30.4675 45.7051 30.4153 44.5831 31.1894C43.8873 31.659 43.6612 32.3722 43.7917 33.1811C43.9134 33.9725 44.2613 34.6335 45.0702 34.9119C46.6531 35.4598 48.2621 35.4337 49.8886 35.1032C51.8977 34.7031 53.8981 34.2161 55.9333 34.0247C57.2292 33.9117 58.5773 34.2509 59.8906 34.4335C61.0126 34.5901 61.3518 34.4335 61.8215 33.3985C62.4042 32.0852 63.3435 31.1807 64.7438 30.798C65.3439 32.0243 64.9873 33.529 63.8654 34.2596C63.3522 34.5987 62.7347 34.7727 62.1694 35.0162C61.7954 35.1815 61.4214 35.3467 61.0474 35.512C61.0474 35.599 61.03 35.6946 61.03 35.7816C61.3866 35.9382 61.7345 36.1904 62.1085 36.2426C62.8912 36.3556 63.6479 36.2165 64.335 35.7468C66.1789 34.4857 68.8316 34.8684 70.3797 36.6253C69.9536 37.3732 69.223 37.6863 68.4402 37.8777C66.579 38.33 64.7786 37.9386 62.9521 37.5385C61.0387 37.121 59.1079 36.7644 57.177 36.4861C56.3508 36.3643 55.4897 36.5209 54.6287 36.66C56.4203 37.3558 57.8467 38.356 58.6121 40.2869C56.9857 40.2695 55.4984 40.1564 54.1764 39.2867C53.6111 38.9127 53.3762 38.356 53.4806 37.6689C53.585 36.9732 53.4023 36.6426 52.7152 36.6687C51.8803 36.7035 51.0105 36.7992 50.2452 37.1123C49.1667 37.5559 48.1143 38.1299 47.1663 38.817C46.1922 39.5302 45.9399 40.6522 46.1574 41.8263C46.3226 42.7483 47.001 43.3571 47.9229 43.5136C48.8101 43.6702 49.3406 43.3832 49.8973 42.496C50.4191 41.6611 50.9844 40.8696 51.9759 40.513C52.5587 41.6785 52.1499 42.4612 50.1669 43.8963C52.9762 44.0442 55.6724 44.366 58.3251 43.5136C58.9165 43.3223 59.3079 43.0005 59.5427 42.3308C59.7167 41.835 60.2646 41.3393 60.7691 41.1305C61.6214 40.7826 62.5607 40.5826 63.474 40.4869C64.4568 40.3825 65.457 40.4608 66.5007 40.4608C66.2572 41.348 65.7092 41.9481 65.0395 42.4525C63.9523 43.2614 62.6999 43.618 61.3779 43.7919C60.9343 43.8528 60.4821 43.8876 60.0733 44.0268C59.4992 44.2181 59.3949 44.5921 59.7602 45.0531C60.2472 45.6619 60.8386 46.0272 61.691 46.062C62.4477 46.0968 63.2391 46.2707 63.9262 46.5838C65.3091 47.2187 66.3354 48.3059 67.353 49.6018C65.9701 49.7236 64.7177 49.741 63.4827 49.4453C62.8478 49.2887 62.1954 49.0539 61.6301 48.7234C61.2735 48.5147 60.9169 48.1146 60.8039 47.7232C60.3255 45.9837 59.0296 45.4879 57.4553 45.401C56.4116 45.3488 55.368 45.3923 54.2721 45.4879C56.2638 46.436 56.5073 48.0015 56.0464 49.8628C54.1329 49.5931 52.6109 47.7319 52.6457 45.6358C51.9151 45.7315 51.2019 45.8098 50.4887 45.9228C48.9666 46.1663 47.4707 46.5142 46.1139 47.297C45.3224 47.7493 44.6701 48.332 44.2526 49.167C43.4525 50.776 43.8438 52.2807 45.5051 52.9417C47.001 53.5331 48.6013 53.9245 50.193 54.1854C53.9329 54.7942 57.6902 55.2291 61.4301 55.8379C62.5868 56.0292 63.6827 56.5511 64.7786 57.0555C61.2648 57.0903 57.7684 56.612 54.2808 57.0295C54.2547 57.1164 54.2199 57.1947 54.1938 57.2817C54.733 57.5861 55.2549 57.9253 55.8202 58.1775C56.8204 58.6298 57.4466 59.3952 57.7858 60.4128C57.8119 60.491 57.8119 60.578 57.8467 60.7954C57.5597 60.6476 57.3597 60.5519 57.1596 60.4389C54.5678 59.0473 51.9933 57.6296 49.3841 56.2728C48.6448 55.8901 47.8012 55.6553 46.9836 55.4552C46.4357 55.3248 45.7921 55.2639 45.4355 55.8901C45.1746 56.3511 45.4007 57.099 45.9747 57.5426C46.7836 58.1688 47.6359 58.7255 48.4622 59.4473C48.0621 59.3691 47.6098 59.3778 47.2619 59.1951C46.2008 58.6298 45.1485 58.0558 44.1569 57.3774C42.8958 56.5163 41.5651 55.9075 40.0257 55.8118" fill="#1C3666"/>
</svg>
