<svg width="90" height="80" viewBox="0 0 90 80" fill="none" xmlns="http://www.w3.org/2000/svg">
<path d="M75.2944 60.9891C64.6475 72.8361 41.7567 78.2659 31.6421 79.5C25.7862 79.5 13.5424 79.5 2.89555 68.3934C-7.75134 57.2868 14.0748 20.2652 18.3335 14.4475C22.5923 8.6298 40.1596 -1.41896 48.1448 0.167687C56.13 1.75433 81.6825 9.15868 87.5383 23.4385C93.3941 37.7183 88.603 46.1804 75.2944 60.9891Z" fill="white"/>
<g clip-path="url(#clip0_9162_10171)">
<path d="M70.6097 6.46616C69.04 2.8289 66.3043 0.58368 62.4024 0.0897306C59.8012 -0.224601 57.3345 0.359157 54.9127 1.39196C50.0242 3.54737 46.212 7.13973 43.0278 11.4506C42.3999 12.3037 41.7272 13.2018 41.0544 14.1448C40.7854 13.8305 40.5163 13.606 40.3369 13.3365C39.709 12.4385 39.1708 11.5404 38.5429 10.6872C36.3453 7.76839 33.5647 5.74769 29.932 5.20884C24.595 4.44546 19.9307 6.28655 16.1634 10.1034C10.3331 16.1206 8.67368 23.3951 10.4228 31.433C11.544 36.5522 14.0107 41.0875 16.8361 45.3534C22.801 54.2894 30.0217 61.9681 38.1393 68.8385C38.7672 69.3324 39.4399 69.7815 40.2023 70.0958C41.6823 70.7694 42.7587 70.4999 43.9248 69.2426C44.1939 68.9283 44.4629 68.6139 44.6872 68.2996C48.2302 63.2703 51.863 58.241 55.2715 53.1219C59.2182 47.2843 63.2546 41.5365 66.394 35.205C69.1746 29.6369 71.1479 23.7544 71.8206 17.5576C72.2243 13.7407 72.1794 9.96871 70.6546 6.42126L70.6097 6.46616ZM65.2279 19.1741C64.3309 19.3088 63.4339 19.3986 62.537 19.3986C59.577 19.3986 57.0206 18.1413 54.5988 16.6146C54.0157 16.2553 53.3878 15.8961 52.8048 15.5369C52.0424 15.0878 51.3248 15.1776 50.966 15.6716C50.6072 16.1655 50.7866 16.9738 51.4593 17.4678C52.6254 18.3209 53.8812 19.0843 55.1369 19.8028C57.6933 21.2397 60.4739 21.8684 63.3891 21.8684C63.8824 21.8684 64.3309 21.9582 64.8243 22.0031C64.8243 22.1378 64.8243 22.2725 64.8243 22.3623C64.2861 22.542 63.7479 22.8114 63.2097 22.9461C61.4606 23.3053 59.7564 23.3053 58.097 22.7216C55.3612 21.7786 52.6254 20.8356 49.8896 19.8926C49.5308 19.7579 49.2169 19.6681 48.8581 19.5334C48.2751 19.3088 47.7817 19.4436 47.4678 20.0273C47.1539 20.6111 47.3781 21.1499 47.9163 21.5092C48.4545 21.8235 48.9927 22.1378 49.5308 22.3623C51.6836 23.2604 53.8363 24.0687 55.9891 24.9668C56.2133 25.0566 56.3927 25.1913 56.6169 25.2811V25.5057C56.3479 25.5057 56.1236 25.6404 55.8994 25.5955C53.7018 25.1913 51.5042 24.7423 49.3066 24.3381C48.903 24.2483 48.4993 24.1136 48.1405 24.2034C47.7369 24.3381 47.2436 24.6525 47.0193 25.0117C46.7054 25.5057 46.8848 26.1343 47.3781 26.4486C47.8266 26.7181 48.3648 26.9426 48.903 27.0773C53.0739 28.0652 57.2448 28.8286 61.5503 28.7388C61.8642 28.7388 62.223 28.7388 62.537 28.7837C62.537 30.4451 62.3127 30.6697 60.7879 30.7595C57.3794 30.984 54.1054 30.3104 50.8763 29.5021C49.8896 29.2327 49.3963 29.5022 49.1721 30.2655C48.9478 30.984 49.0824 31.6576 49.8448 31.8821C51.1006 32.2862 52.4012 32.6006 53.7466 32.8251C56.0339 33.2292 58.366 33.5436 60.743 33.9477C60.4291 34.5764 60.16 35.2499 59.8012 35.8337C59.3527 36.5971 58.6351 36.7767 57.8279 36.7318C55.7648 36.5522 53.8812 35.7439 52.1321 34.7111C51.7733 34.4865 51.3696 34.262 50.966 34.0375C50.3381 33.6783 49.7102 33.7232 49.2169 34.3518C48.8581 34.8009 49.0375 35.7888 49.5308 36.2378C51.1454 37.6299 53.029 38.5279 55.0472 39.1117C55.72 39.2913 56.3927 39.5158 57.1103 39.6955C56.886 41.0426 56.0788 41.9407 55.2715 42.8837C55.1818 43.0184 54.823 43.0184 54.6436 42.8837C53.926 42.5693 53.1636 42.255 52.4909 41.806C51.5939 41.1773 50.7866 40.369 49.9345 39.6506C49.6654 39.426 49.3515 39.1117 49.0375 39.0668C48.6787 39.0219 48.0957 39.0668 47.9163 39.3362C47.6921 39.6057 47.6472 40.1894 47.7369 40.5936C47.8266 40.9528 48.1405 41.2671 48.4545 41.4916C50.069 42.8388 51.6836 44.141 53.3878 45.5779C53.0739 46.1168 52.8048 46.8353 52.3563 47.419C51.9527 47.9579 51.3696 47.6885 50.966 47.3741C49.9793 46.5209 49.0375 45.6228 48.0508 44.7248C47.9611 44.635 47.9163 44.5451 47.8266 44.5002C47.3333 44.0063 46.7951 43.7818 46.212 44.3206C45.629 44.8146 45.629 45.4432 46.1223 45.9821C47.2884 47.2394 48.3648 48.5416 49.6654 49.6643C50.4278 50.3378 50.1587 50.7869 49.7551 51.3706C49.2618 52.0442 48.7684 51.5951 48.4096 51.2808C47.7817 50.7869 47.2884 50.1133 46.7502 49.5295C46.4363 49.1703 46.1672 48.6764 45.7636 48.5416C45.3151 48.362 44.6872 48.362 44.3284 48.6315C43.8799 48.9009 43.9248 49.5295 44.2836 50.0235C45.2254 51.2359 46.1223 52.4034 47.0642 53.6158C47.2884 53.8853 47.5127 54.1098 47.7369 54.4241C47.2884 55.0528 46.8848 55.6365 46.3466 56.3999C45.9878 56.0856 45.5842 55.8162 45.3151 55.4569C44.7769 54.8283 44.2836 54.1098 43.7454 53.4811C43.3417 52.9423 42.8035 52.8525 42.2654 53.3015C41.7272 53.7057 41.6375 54.2445 41.9963 54.8283C42.5793 55.7713 43.2072 56.7592 43.7902 57.7022C43.9248 57.9267 44.0593 58.1063 44.1939 58.3757C44.5078 59.0493 44.1939 59.7229 43.6557 59.9923C43.3417 60.1719 42.669 59.9025 42.3999 59.633C41.772 58.9595 41.3684 58.1063 40.8302 57.3429C40.606 57.0735 40.2472 56.7592 39.9332 56.6693C39.126 56.5346 38.4532 57.4327 38.8569 58.1961C39.4847 59.4085 40.2472 60.576 40.9199 61.7885C41.189 62.2375 41.772 62.6865 41.2787 63.1805C40.7854 63.7193 40.2023 63.3601 39.7538 62.956C31.6811 55.906 24.5501 47.9579 19.1234 38.5729C17.1949 35.2948 15.7598 31.7474 15.3561 27.8856C14.9525 23.5748 15.9392 19.6232 18.4955 16.0757C20.0204 13.9652 22.0834 12.4385 24.4604 11.5404C28.138 10.1034 31.8156 11.226 34.1477 14.4143C36.1659 17.1534 36.9284 20.3865 37.1078 23.7993C37.332 28.2448 36.749 32.6006 36.0314 37.0012C35.852 38.034 35.6726 39.0219 35.6278 40.0547C35.5381 41.6713 36.3902 42.8388 37.8702 43.0633C39.2605 43.2878 40.4714 42.5244 40.8302 40.9528C41.4581 37.8993 41.9514 34.8009 42.3551 31.7025C42.6241 29.7267 42.669 27.7509 42.669 25.7751C42.669 24.0687 43.0278 22.4971 43.9696 21.0152C45.6739 18.3658 47.1987 15.6267 49.0375 13.112C50.8763 10.5974 53.3878 8.8461 56.0339 7.31935C57.5588 6.46616 59.2182 5.97221 60.9673 5.97221C61.7745 5.97221 62.6267 6.33145 63.4339 6.55597C63.5685 6.55597 63.6133 6.91521 63.7479 7.09483C63.5685 7.18464 63.3442 7.36425 63.1649 7.31935C62.3127 7.22954 61.4606 7.09483 60.6085 6.91521C59.9806 6.78049 59.5321 7.04992 59.3976 7.67858C59.2182 8.35215 59.4873 8.8012 60.16 8.98081C61.8194 9.38495 63.5236 9.834 65.183 10.2381C65.4521 10.283 65.7212 10.3279 65.9903 10.3729C65.9903 10.4627 66.0352 10.5525 66.08 10.6423C65.6764 10.8219 65.2727 11.0913 64.8243 11.1362C63.2994 11.3158 61.8194 10.8668 60.4291 10.3279C59.6667 10.0136 58.9042 9.65438 58.1418 9.29515C57.5588 9.02572 56.9757 8.8012 56.4375 9.38495C55.9442 9.92381 56.0339 10.5525 56.303 11.1362C56.303 11.226 56.3927 11.3158 56.4375 11.5404C56.0788 11.5404 55.7648 11.5404 55.4957 11.5404C54.9127 11.5404 54.3297 11.4506 54.1054 12.169C53.8812 12.8875 54.1951 13.5162 54.823 13.8305C56.6618 14.8184 58.4557 15.8961 60.4291 16.6146C61.9091 17.1534 63.5685 17.1085 65.183 17.333C65.5418 17.3779 66.1697 17.0187 66.1697 17.827C66.1697 18.5006 66.2594 19.3088 65.3624 19.4885L65.2279 19.1741ZM65.7212 14.3693C63.6133 15.1776 59.3976 13.9652 57.9176 12.2139C57.9176 12.2139 57.9176 12.1241 57.9176 11.9445C58.2763 12.0343 58.5903 12.0792 58.9042 12.169C61.057 12.9773 63.2546 13.5611 65.5867 13.3815C65.7661 13.3815 65.9903 13.606 66.2146 13.7407C66.08 13.9652 65.9903 14.2795 65.8109 14.3693H65.7212Z" fill="#DB574E"/>
</g>
<defs>
<clipPath id="clip0_9162_10171">
<rect width="62.25" height="70.5" fill="white" transform="translate(9.75)"/>
</clipPath>
</defs>
</svg>
