<svg width="95" height="96" viewBox="0 0 95 96" fill="none" xmlns="http://www.w3.org/2000/svg">
<path d="M79.0591 64.4413C67.8798 76.9589 43.8445 82.6961 33.2242 84C27.0755 84 14.2196 84 3.04032 72.2647C-8.1389 60.5294 14.7785 21.4123 19.2502 15.2653C23.7219 9.11828 42.1676 -1.49928 50.552 0.177179C58.9365 1.85364 85.7666 9.6771 91.9152 24.7652C98.0638 39.8533 93.0331 48.7944 79.0591 64.4413Z" fill="white"/>
<g clip-path="url(#clip0_9162_10150)">
<path d="M80.0076 84.2781C78.7271 81.7885 77.4812 79.1952 76.2352 76.671C73.7087 71.4152 71.0784 65.9519 67.8598 61.0073C67.3752 60.2812 66.9253 59.6934 66.4754 59.2093C66.51 59.1747 66.5446 59.1401 66.5792 59.1056C68.5866 57.1346 70.2478 55.0945 71.4937 52.9853C73.0512 50.3574 73.9164 47.6949 74.0202 45.1707C74.1933 40.7448 73.7434 34.0367 72.3244 29.0229C70.94 24.1821 67.6521 19.8598 62.8068 16.575C58.4114 13.5321 53.0816 11.6649 47.821 11.2846C44.2216 11.0425 40.6222 11.7687 37.2305 13.4975C34.2195 15.019 31.4161 17.2319 28.9589 20.0327C25.844 23.6288 22.6946 27.5707 20.9987 32.0312C20.0643 34.4516 19.649 36.9067 19.7182 39.2925C19.822 41.9204 20.5142 44.5829 21.864 47.1762C22.0716 47.5912 22.2793 48.0061 22.5215 48.421C24.2866 51.8788 26.1555 55.5786 28.8204 58.6561C28.1629 59.2093 27.4015 60.0392 26.64 61.2148C23.3868 66.1594 20.7911 71.5881 18.2646 76.8785C17.0533 79.4027 15.8073 82.0306 14.4922 84.4856C14.0769 85.2463 14.1807 86.1799 14.769 86.8369C15.3228 87.4939 16.2226 87.7359 17.0533 87.4593C21.8986 85.8341 26.6054 83.8632 31.1047 81.5465L34.3579 94.3403C34.6002 95.2393 35.3962 95.8963 36.3307 95.9308H36.3999C37.2997 95.9308 38.1303 95.343 38.4072 94.4786L47.3018 67.6463L56.0926 94.2365C56.3695 95.101 57.2001 95.6888 58.0999 95.6888H58.1692C59.1036 95.6542 59.9342 94.9972 60.1419 94.0982L63.3952 81.3045C67.8944 83.6212 72.6012 85.6267 77.4465 87.2172C78.2772 87.4939 79.177 87.2172 79.7308 86.5948C80.2845 85.9379 80.3883 85.0043 80.0076 84.2436V84.2781ZM26.467 44.825C24.5981 41.1597 24.3904 37.6674 25.8094 33.8984C27.2284 30.1986 30.0318 26.7062 32.8351 23.4559C37.9919 17.5431 43.2871 16.4367 46.4712 16.4367C49.6553 16.4367 47.1288 16.4367 47.4056 16.4367C51.7664 16.7479 56.1964 18.3039 59.865 20.7934C63.6374 23.3522 66.2677 26.7754 67.3406 30.4061C68.4135 34.2096 69.0365 40.1915 68.8634 44.9287C68.7942 46.7613 67.929 50.5649 62.9798 55.3366C62.3915 55.9244 61.7339 56.4431 61.0763 56.9272C59.9688 57.0655 58.7921 57.4804 57.5116 58.172H57.4424C55.9195 59.071 54.5698 59.7625 53.4623 60.3158C52.424 60.5578 51.3511 60.7307 50.2436 60.8344C46.2289 61.2148 42.0758 60.6616 38.5803 59.2784C38.0957 59.0364 37.6112 58.7598 37.0575 58.4486H36.9882C36.5037 58.1374 36.0192 57.8953 35.5346 57.7225C31.7968 55.1983 29.4434 50.5303 27.1592 46.0352C26.9515 45.6203 26.7093 45.1707 26.5016 44.7558L26.467 44.825ZM36.6768 86.2837L34.5656 77.8813C34.3925 77.2243 33.9426 76.7056 33.3543 76.4636C33.0774 76.3598 32.8005 76.2907 32.5236 76.2907C32.2468 76.2907 31.7968 76.3944 31.4854 76.5673C28.0244 78.5037 24.425 80.198 20.6872 81.6848C21.1718 80.6821 21.6563 79.7139 22.1062 78.7111C24.5635 73.5591 27.1246 68.2341 30.2048 63.5661C30.8624 62.5288 31.4507 61.9064 32.0045 61.6297C32.6967 62.1484 33.4235 62.6325 34.2195 63.0474C36.5383 64.2576 39.0994 65.1567 41.7989 65.6753C42.3527 65.9174 42.8372 66.1248 43.3217 66.2632L36.6768 86.3182V86.2837ZM63.0491 76.3253C62.4607 76.0141 61.7685 75.9795 61.1802 76.2215C60.5918 76.4982 60.1073 77.0168 59.9688 77.6392L57.8577 86.0416L51.2127 65.9865C55.6427 65.4679 59.7266 64.0502 63.1529 61.8372C63.5336 62.183 63.9143 62.6671 64.3296 63.324C67.4098 68.0266 69.9709 73.3516 72.4282 78.4691C72.9127 79.4373 73.3626 80.44 73.8472 81.4428C70.1094 79.9559 66.51 78.2616 63.0491 76.3253Z" fill="#00A9AC"/>
<path d="M36.2616 48.7669C35.8463 49.5276 35.9848 50.4612 36.6077 51.049C37.2307 51.6368 38.1652 51.706 38.892 51.2565L48.1326 45.2745L52.7703 52.605C53.1164 53.1583 53.7394 53.4694 54.3623 53.4694C54.9853 53.4694 54.743 53.4695 54.9507 53.3657C55.7467 53.0891 56.3005 52.2938 56.2312 51.4294L55.366 41.1598L63.5684 37.5637C64.3298 37.2525 64.7797 36.4572 64.6759 35.6273C64.5721 34.7975 63.9491 34.1405 63.1531 34.0022L53.2548 32.2387L49.7939 24.4242C49.4824 23.698 48.7556 23.2831 47.9942 23.3177C47.2328 23.3523 46.5406 23.8709 46.333 24.6316L44.2564 31.236L34.0466 32.5499C33.2506 32.6537 32.6277 33.2415 32.4546 34.0368C32.2816 34.8321 32.6623 35.6273 33.3545 36.0077L40.9685 40.3991L36.2963 48.6977L36.2616 48.7669Z" fill="#00A9AC"/>
</g>
<defs>
<clipPath id="clip0_9162_10150">
<rect width="66" height="84.75" fill="white" transform="translate(14.25 11.25)"/>
</clipPath>
</defs>
</svg>
