<svg width="399" height="401" viewBox="0 0 399 401" fill="none" xmlns="http://www.w3.org/2000/svg">
<path d="M203.09 0C206.107 2.47946e-05 208.557 0.565374 210.82 0.56543C213.271 0.753995 215.346 0.754727 217.609 1.13184C219.871 1.3204 222.323 1.50863 225.151 1.88574C227.791 2.26288 230.998 2.64034 234.958 3.20605H232.884C234.958 3.77176 236.278 4.52594 238.164 5.46875C240.049 6.4115 242.501 7.16562 246.461 8.1084C250.421 6.22293 255.701 7.54269 262.111 10.3711C265.317 11.6911 268.711 13.5773 272.482 15.2744C276.254 17.1601 280.215 18.8566 284.552 20.5537C283.232 17.7259 291.339 22.8164 291.34 21.1201C298.883 26.2113 306.049 29.9823 313.025 34.5078C320.191 38.8449 327.169 43.9368 334.146 51.291L333.203 50.7256C336.22 55.4399 346.402 64.3023 350.362 67.1309C347.653 66.0476 353.078 72.9204 350.721 71.8428C352.832 73.0592 356.187 76.9675 359.037 80.708C360.546 82.5936 361.866 84.4798 362.808 85.9883C363.751 87.4967 364.316 88.4395 364.316 88.4395C364.506 90.3252 366.768 93.7198 369.22 97.6797C370.351 99.5648 371.671 101.827 372.803 103.902C373.934 105.976 374.876 108.239 375.442 110.124C377.704 112.953 379.78 115.782 382.043 118.8L379.024 115.971C380.76 119.575 380.983 121.38 380.431 121.46C378.026 116.63 375.264 112.299 371.992 108.103C372.746 106.406 370.673 102.822 368.222 99.0508C365.582 95.468 362.753 91.5079 361.81 89.4336H362.188C357.85 85.2852 354.267 80.0054 350.685 74.7256C346.913 69.6342 343.142 64.5426 338.051 61.1484C338.428 61.1484 339.182 61.1481 340.502 62.0908C334.091 56.2451 325.415 49.4567 325.981 47.9482C317.873 41.5369 307.501 34.3708 297.318 28.9023C287.137 23.434 277.142 19.6628 270.543 18.5312H271.484C267.714 17.7771 265.263 17.2113 263 16.2686C261.868 15.8914 260.548 15.3254 259.228 14.9482C257.72 14.5711 256.022 14.1945 253.947 13.8174C253.57 13.4403 253.005 13.2511 253.193 13.0625C251.119 13.0625 248.668 12.4972 245.84 12.1201C243.2 11.5544 240.371 10.9885 237.543 10.4229C231.886 9.29143 226.416 8.34863 223.022 8.34863L222.646 7.2168C217.177 6.83966 211.709 6.46289 206.429 6.46289C208.503 6.4629 210.577 6.65128 212.463 6.83984C211.332 8.3484 208.314 7.7826 203.977 7.02832C201.903 6.6512 199.451 6.46298 196.812 6.27441C194.172 6.27441 191.342 6.27405 188.325 7.02832C182.856 7.02845 177.388 9.48038 172.108 11.7432C169.468 12.8746 166.828 14.194 164.188 14.9482C161.549 15.891 158.909 16.6452 156.081 17.0225C151.178 19.6624 160.04 13.6288 152.498 16.6455C151.743 15.1371 155.891 14.7601 153.629 14.0059C146.275 16.8344 140.428 15.8912 131.565 20.6055L130.812 19.6631C129.492 20.6058 127.984 21.3601 126.664 21.9258C125.344 22.6801 123.835 23.4343 122.515 24C119.687 25.1314 117.046 26.2631 114.406 27.3945C109.126 29.4688 104.6 31.7309 101.395 34.748C96.1146 38.7079 93.6632 39.0855 91.4004 39.8398C90.2691 40.2169 89.1373 40.5943 87.6289 41.5371C86.1205 42.4799 84.2351 43.9884 81.9727 46.6279L76.6924 48.7021C71.9782 52.4735 74.8064 53.0402 69.3379 56.8115C68.9608 55.6802 62.7387 62.091 64.8125 58.5088C61.7956 60.7715 59.1554 63.5994 56.5156 66.4277C54.0643 69.4447 51.424 72.6507 49.1611 76.0449C44.2584 82.8333 39.3556 90.1877 32.9443 97.9189C32.7557 100.37 31.0584 103.577 29.5498 106.594C28.0414 109.8 26.7217 112.628 26.7217 114.514C26.156 114.514 24.0809 119.039 22.3838 122.245C20.8752 125.45 19.7445 127.336 21.0645 121.68C21.253 120.737 22.0064 119.228 22.3838 119.416L21.8184 117.72C15.03 127.337 15.0299 137.52 11.8242 148.268C13.1442 145.062 14.2754 140.914 14.2754 143.931C13.3326 147.325 12.2015 150.531 11.4473 153.925L10.8818 151.474L8.80664 159.017C8.24098 161.467 7.67601 164.107 7.11035 166.747L8.80664 164.861C8.24098 166.747 7.86446 168.256 7.29883 169.576C6.92171 170.896 6.35566 172.216 5.97852 173.536C5.22424 176.176 4.65881 179.005 5.41309 183.342C6.16739 187.301 7.67583 176.365 7.4873 184.284C5.79019 194.278 4.47021 209.741 5.60156 222.752C6.92127 221.433 7.29855 224.828 8.05273 228.409L6.92188 228.976C8.99599 235.764 8.42987 237.084 8.05273 238.404C7.48703 239.724 7.11031 241.232 9.37305 247.832C10.1273 248.398 10.8815 249.153 11.6357 249.719C17.4811 260.843 10.8814 257.073 18.6123 268.952C16.5384 263.862 20.3097 265.747 22.1953 271.97L20.498 270.839C22.0065 274.233 22.9498 275.176 23.7041 277.438C22.1955 275.74 21.6297 277.061 24.0811 281.964L21.2529 279.323C23.3271 282.152 25.4013 284.98 27.6641 287.62C28.2298 289.506 29.1724 291.58 30.3037 293.655C31.4351 295.729 32.5668 297.803 33.8867 299.689C36.1496 303.649 38.4129 306.855 38.6016 308.74C38.6064 308.748 39.1705 309.69 40.1094 311.004C41.0521 312.324 42.3725 314.209 43.6924 316.283C46.4132 319.911 49.8328 323.712 51.7676 324.836C49.0671 323.441 54.5639 330.581 51.9893 329.294C55.7607 331.934 65.7555 340.61 68.584 345.135L67.8291 344.569C74.6177 351.734 81.4068 356.638 88.1953 360.975C94.9837 365.312 101.961 369.083 109.127 373.985C109.127 372.289 116.857 377.191 115.727 374.552C119.875 376.249 123.835 377.758 127.418 379.644C131.001 381.152 134.395 383.037 137.412 384.357C143.635 386.997 148.915 388.505 152.686 386.62C156.645 387.562 158.908 388.317 160.605 389.071C162.302 389.825 163.622 390.768 165.697 391.146H163.812C167.583 391.712 170.6 392.089 173.429 392.466C176.069 392.843 178.52 393.032 180.595 393.221C182.858 393.598 184.932 393.597 187.006 393.785C189.269 393.785 191.532 394.163 194.359 394.352C200.016 393.975 200.96 391.523 210.954 391.712C207.749 392.843 211.897 392.654 215.669 392.277C213.217 392.654 212.652 393.031 217.554 393.408C218.309 393.031 219.252 392.655 220.193 392.466C220.193 392.466 220.382 392.465 220.193 392.654C226.416 391.711 225.286 391.335 222.457 391.712C222.457 391.712 222.456 391.335 221.325 391.146C224.53 391.523 229.057 390.958 232.829 390.392C236.018 389.913 238.668 389.435 239.752 389.868C237.662 390.259 235.598 390.959 233.638 391.659C230.998 392.602 228.169 393.735 225.529 395.055C220.061 397.317 214.404 399.768 208.747 399.769C205.73 400.523 202.9 400.522 200.072 400.522C197.243 400.334 194.792 400.146 192.529 399.769C188.193 399.015 184.987 398.448 183.855 399.956C185.929 400.145 188.004 400.335 190.078 400.335C184.421 400.335 178.953 399.956 173.296 399.579L172.919 398.448C169.524 398.448 163.867 397.505 158.021 396.374C155.004 395.808 152.176 395.243 149.347 394.677C146.519 394.3 143.879 393.734 141.804 393.734C141.992 393.545 141.427 393.356 141.05 392.979C138.787 392.603 137.09 392.226 135.582 391.849C134.073 391.472 132.942 390.905 131.622 390.528C129.17 389.585 126.719 389.02 122.759 388.266H123.89C117.102 387.323 106.729 383.362 96.1699 377.705C85.6101 372.048 75.05 364.694 66.5645 357.905C67.1297 356.208 58.0792 349.231 51.4795 343.197C52.9879 344.328 53.7421 344.328 54.1191 344.328C49.0279 340.745 44.8788 335.654 41.1074 330.374C37.3361 325.094 33.7531 319.626 29.2275 315.288H29.6055C28.6625 313.026 25.6448 309.067 23.0049 305.295C20.5535 301.335 18.4791 297.563 19.2334 295.866C10.3707 284.363 4.9025 271.729 0.56543 251.363L1.31934 252.118C0.824364 248.323 0.473821 244.672 0.267578 241.293L0.188477 240.615C-8.12439e-05 236.843 0 233.449 0 230.243C0.188562 227.038 0.376953 224.209 0.376953 221.569C0.565517 218.93 0.942284 216.667 1.13086 214.593C1.508 211.576 2.07394 209.124 2.63965 207.238C2.63965 205.165 2.63965 210.255 2.63965 201.204C2.63967 192.152 3.39399 183.29 4.52539 174.615C4.33684 168.392 4.71332 161.038 5.84473 152.364C9.80467 143.878 12.2567 136.148 16.5938 123.137L14.1426 125.021C18.4796 117.857 20.554 110.879 23.9482 104.279C24.7022 100.131 19.4223 108.616 22.6279 100.696C24.5134 97.3022 25.8336 95.2282 26.7764 93.7197C27.7192 92.2112 28.2849 91.268 28.8506 90.5137C29.7934 88.8166 31.1139 87.1193 35.6396 80.708C35.6396 82.0279 30.7371 88.816 32.999 87.6855C33.1876 86.9312 34.885 83.9133 36.3936 81.4619C37.7135 79.3878 38.6564 77.5022 38.4678 76.9365L39.5996 77.502C41.1081 74.8623 43.5595 73.9193 46.0107 70.9023C46.9536 69.2053 47.3306 67.6967 44.3135 70.9023C46.5763 67.5081 49.5933 63.5476 52.6104 59.9648C55.816 56.382 58.8336 53.1767 61.6621 51.4795C67.5076 46.1998 66.7537 49.0286 69.2051 48.4629C70.9023 46.7658 73.1642 43.9367 72.7871 43.5596L73.7305 43.1826C74.2962 42.2398 74.8619 41.2963 75.6162 40.3535C82.7818 36.3936 88.6278 31.6798 94.8506 27.5312C96.359 26.5885 97.8677 25.4565 99.376 24.5137C100.885 23.571 102.582 22.6283 104.09 21.874C107.296 20.177 110.502 18.8568 113.896 17.9141C112.388 18.6683 110.124 19.6109 108.238 20.5537C106.352 21.6852 105.033 22.6286 105.222 23.1943C108.428 21.1202 112.009 19.6111 115.404 17.9141C111.256 20.1768 108.239 22.6278 110.313 22.6279C117.478 19.0451 124.079 15.4625 131.433 12.4453C138.599 9.23968 146.707 6.59975 156.136 4.33691C156.702 5.27976 159.719 4.71415 163.679 4.14844C167.45 3.58273 172.164 3.01739 175.558 3.39453C174.427 3.20596 174.427 2.82812 174.427 2.82812C171.41 3.01669 170.279 2.64009 176.689 1.69727C176.504 1.88226 176.683 1.88568 176.689 1.88574C177.82 1.69717 178.764 1.31952 179.518 0.942383C184.61 1.31952 183.855 1.69708 181.403 2.07422C185.175 1.69708 189.323 1.50823 186.117 2.63965C196.3 3.01679 197.244 0.377135 203.09 0ZM384.683 129.548C392.602 141.805 385.814 137.845 391.848 149.348C392.603 150.102 393.356 150.668 394.11 151.422C396.373 158.21 395.997 159.53 395.431 161.038C394.865 162.547 394.488 163.868 396.562 170.845L395.431 171.41C396.185 174.992 396.562 178.765 397.882 177.256C399.202 190.833 397.882 206.673 395.997 217.045C395.808 225.341 397.316 213.839 398.07 217.986C398.824 222.512 398.26 225.53 397.505 228.17C397.128 229.49 396.75 230.81 396.185 232.318C395.808 233.638 395.242 235.336 394.677 237.222L396.374 235.336C395.808 237.976 395.431 240.616 394.677 243.256L392.603 250.986L392.037 248.535C391.094 252.118 389.963 255.512 389.02 258.906C389.02 262.112 390.151 257.587 391.471 254.381C388.077 265.507 388.264 275.877 381.1 285.872L380.533 283.986C380.91 284.363 381.664 282.667 381.854 281.724C383.174 276.067 382.23 277.952 380.533 281.157C378.836 284.363 376.762 289.077 376.196 289.077C376.196 290.774 374.688 293.981 373.18 297.187C371.483 300.391 369.786 303.786 369.597 306.237C362.808 314.346 357.905 321.888 352.813 328.866C350.173 332.26 347.723 335.655 345.083 338.672C342.254 341.689 339.613 344.706 336.408 346.969C338.671 343.575 332.071 349.986 331.693 348.854C326.037 352.814 328.866 353.381 323.963 357.341L318.495 359.414C316.043 362.242 314.156 363.751 312.648 364.694C311.139 365.637 309.819 366.015 308.688 366.392C306.237 367.146 303.785 367.523 298.317 371.672C294.922 374.689 290.209 377.14 284.929 379.215C282.289 380.158 279.461 381.477 276.632 382.608C275.123 383.174 273.803 383.929 272.295 384.683C270.786 385.438 269.466 386.192 267.958 387.135L267.015 386.003C257.964 390.717 252.118 389.774 244.387 392.791C241.935 392.036 246.271 391.472 245.518 389.963C241.039 391.82 242.257 390.45 243.083 389.519C251.06 387.558 257.897 385.147 264.131 382.282C271.297 379.265 277.708 375.871 284.497 372.288C286.57 372.288 283.553 374.741 279.594 376.814C282.988 375.118 286.194 373.609 289.399 371.724C289.587 372.289 288.267 373.232 286.57 374.175C284.685 375.118 282.422 376.061 280.914 376.814C284.12 375.871 287.325 374.74 290.342 373.043C291.851 372.288 293.358 371.345 294.867 370.403C296.376 369.46 297.885 368.518 299.205 367.386C305.239 363.426 310.896 358.712 317.874 355.129C318.628 354.187 319.194 353.244 319.759 352.301L320.514 351.924C320.136 351.547 322.399 348.717 324.096 347.208C326.547 346.643 325.605 349.471 331.45 344.381C334.09 342.872 337.108 339.666 340.125 336.271C342.953 332.69 345.97 328.918 348.232 325.713C345.216 328.729 345.782 327.41 346.536 325.713C348.988 322.884 351.439 321.941 352.759 319.301L353.89 319.866C353.702 319.3 354.645 317.603 355.965 315.529C357.473 313.077 359.169 310.249 359.358 309.494C361.621 308.363 356.719 314.963 356.907 316.283C361.432 310.06 362.565 308.363 363.507 306.855C364.073 306.101 364.45 305.158 365.393 303.838C366.336 302.33 367.656 300.444 369.542 297.05C372.559 289.319 367.467 297.615 368.222 293.467C371.616 287.056 373.501 280.455 377.649 273.289L375.387 275.176C379.725 262.542 381.987 254.998 385.759 246.701C386.89 238.404 387.267 231.238 387.079 225.204C388.21 216.718 388.964 208.232 388.964 199.559V193.714C389.53 191.828 390.095 189.376 390.283 186.548C390.472 184.474 390.85 182.399 391.039 179.759C391.039 177.308 391.227 174.478 391.416 171.461C391.416 168.444 391.416 165.05 391.227 161.468L390.393 160.86C390.186 157.644 389.836 154.137 389.342 150.342L390.096 151.097C388.545 144.017 386.895 137.926 385.021 132.513C385.503 132.435 385.542 131.482 384.683 129.548Z" fill="white"/>
</svg>
