<svg width="98" height="98" viewBox="0 0 98 98" fill="none" xmlns="http://www.w3.org/2000/svg">
<path d="M2.48676 60.0045C2.56915 60.8822 2.69937 61.8461 2.8755 62.852L2.69187 62.6837C3.91093 67.3899 5.31516 70.2812 7.49959 72.874C7.34094 73.2776 7.86318 74.1361 8.47531 75.0348C9.12951 75.8877 9.8736 76.7806 10.1166 77.2988L10.0286 77.3027C11.1284 78.2682 12.0198 79.5073 12.9533 80.7005C13.8867 81.8936 14.9063 83.039 16.1303 83.8228C16.0424 83.8267 15.8664 83.8344 15.503 83.5858C17.104 84.9261 19.2863 86.4614 19.1716 86.863C21.2201 88.36 23.7581 89.9679 26.2789 91.1799C28.7996 92.3919 31.2591 93.21 32.8522 93.3608L32.5883 93.3723C33.5196 93.5079 34.0972 93.6149 34.6786 93.8098C34.9904 93.8844 35.26 94.0048 35.6157 94.0774C35.9715 94.15 36.3712 94.2207 36.9028 94.2856C36.9946 94.3697 37.1285 94.408 37.0864 94.4539C37.5703 94.4327 38.1918 94.5378 38.8554 94.597C39.521 94.7001 40.1865 94.8033 40.896 94.9045C42.2711 95.1089 43.6002 95.2712 44.392 95.2366L44.4915 95.4967C45.8148 95.5271 47.0942 95.5593 48.4138 95.5017C47.93 95.5228 47.4442 95.5 46.9584 95.4771C47.207 95.1137 47.9605 95.213 48.9798 95.3448C49.5115 95.4097 50.0852 95.4287 50.7469 95.4439C51.4067 95.4151 52.0664 95.3863 52.7625 95.1796C54.0821 95.122 55.3767 94.4926 56.6292 93.9091C57.2315 93.5743 57.8798 93.2816 58.486 93.0348C59.0921 92.788 59.7423 92.5393 60.4002 92.4665C61.5589 91.7548 59.469 93.3444 61.2397 92.5179C61.431 92.8621 60.4251 93.0383 61.0046 93.1892C62.7773 92.4067 64.1504 92.5671 66.2137 91.3753L66.4451 91.6296C66.7874 91.3944 67.0876 91.205 67.4318 91.0137C67.776 90.8224 68.0762 90.633 68.4223 90.4857C69.0706 90.193 69.7169 89.8563 70.3231 89.6094C71.5335 89.0718 72.6082 88.452 73.3692 87.7137C74.6025 86.6903 75.1705 86.5774 75.7346 86.3765C75.9947 86.277 76.2987 86.1756 76.641 85.9403C76.9833 85.705 77.4077 85.3339 77.9507 84.6492L79.2052 84.1097C80.3085 83.1361 79.6429 83.0329 80.9221 82.0516C81.0216 82.3117 82.4958 80.749 82.0026 81.5638C82.7273 81.0033 83.3123 80.2726 83.9414 79.5401C84.5264 78.8094 85.0637 77.9927 85.6449 77.1741C86.7614 75.4948 87.8282 73.6855 89.3291 71.725C89.3481 71.1513 89.7094 70.3423 90.0726 69.5773C90.3918 68.8142 90.7111 68.0511 90.6938 67.6552C90.8257 67.6494 91.2616 66.5287 91.6248 65.7637C91.988 64.9986 92.1887 64.5492 91.9384 65.8822C91.9041 66.104 91.7454 66.5076 91.6536 66.4234L91.8048 66.8575C93.3744 64.4533 93.2248 62.0361 93.9032 59.4064C93.628 60.1676 93.4101 61.2348 93.3775 60.487C93.5629 59.6857 93.7922 58.8825 93.9756 58.0371L94.1325 58.6032L94.5376 56.7787C94.6867 56.1552 94.7478 55.5356 94.8529 54.914L94.4762 55.3712C94.5889 54.9255 94.7036 54.5239 94.7781 54.2122C94.8947 53.8545 94.9693 53.5428 95.0438 53.2311C95.1928 52.6076 95.2941 51.8981 95.072 50.8501C94.8539 49.8901 94.6191 52.5886 94.5786 50.6513C94.9128 48.213 95.0594 44.5048 94.6132 41.3513C94.3207 41.7166 94.1943 40.8408 93.9819 40.0128L94.2401 39.8693C93.6852 38.263 93.7597 37.9512 93.8763 37.5936C93.9929 37.236 94.0674 36.9242 93.4704 35.3638C93.2868 35.1955 93.1051 35.0713 92.9215 34.903C91.3968 32.2814 93.0206 33.1359 91.0484 30.3576C91.6281 31.5221 90.6871 31.1666 90.1801 29.6463L90.5875 29.893C90.157 29.1185 89.9715 28.9063 89.7266 28.3441C90.0977 28.7686 90.2143 28.4109 89.5906 27.2483L90.3232 27.8773C89.7646 27.1966 89.252 26.558 88.6954 25.9212C88.5442 25.4872 88.3012 24.9689 88.0162 24.4966C87.7312 24.0243 87.4002 23.5099 87.1171 23.0816C86.505 22.1829 85.9426 21.4142 85.8794 20.9763C85.8794 20.9763 85.7379 20.7621 85.5026 20.4199C85.2673 20.0776 84.9402 19.6512 84.5691 19.2267C83.825 18.3337 82.9471 17.4026 82.4536 17.2038C83.2206 17.611 81.7362 15.913 82.4075 16.1481C81.455 15.5287 78.9896 13.5651 78.2378 12.4962L78.4635 12.6185C76.7612 10.9742 75.0819 9.85765 73.3663 8.91898C71.6928 7.9344 69.9829 7.12768 68.1717 6.0169C68.189 6.41277 66.2458 5.30775 66.5825 5.95408C65.5535 5.60239 64.6126 5.24685 63.7137 4.84541C62.8167 4.48796 62.0058 4.08268 61.2446 3.80743C59.7203 3.21295 58.4753 2.95883 57.5708 3.43901C56.6375 3.25941 56.058 3.10844 55.6086 2.90772C55.1591 2.707 54.8435 2.5445 54.3539 2.43367L54.8378 2.41255C53.9083 2.32092 53.1568 2.2656 52.5371 2.20451C51.8735 2.14535 51.2998 2.12633 50.77 2.10539C50.2384 2.04047 49.7546 2.06159 49.1808 2.04257C48.653 2.06562 48.0754 1.95863 47.3717 1.98936C46.012 2.13686 45.819 2.76225 43.4399 2.77798C44.1762 2.48142 43.2104 2.56766 42.3346 2.69404C42.9025 2.5811 43.0746 2.48545 41.8832 2.44933C41.7111 2.54498 41.495 2.64256 41.233 2.69806C41.233 2.69806 41.189 2.69998 41.2311 2.65408C39.7452 2.9393 40.013 3.01574 40.7148 2.94103C40.7148 2.94103 40.7186 3.029 40.9845 3.06146C40.1889 3.00806 39.095 3.18803 38.2211 3.35839C37.3032 3.53067 36.6052 3.69335 36.4636 3.47919C34.2874 4.10303 32.423 4.8014 30.7842 5.62212C29.0995 6.40077 27.5965 7.3037 25.9616 8.21238C25.4778 8.23351 26.1566 7.63098 27.1012 7.06091C26.3267 7.49134 25.5064 7.87971 24.7798 8.39619C24.73 8.26616 25.0283 8.03279 25.4566 7.74968C25.8869 7.51055 26.4051 7.26758 26.7493 7.07628C25.9672 7.33077 25.2329 7.67131 24.5024 8.09982C24.1582 8.29112 23.772 8.52833 23.4297 8.76362C23.0874 8.99891 22.747 9.27818 22.4048 9.51347C20.9955 10.5445 19.68 11.7037 18.0489 12.7003C17.8826 12.9279 17.7602 13.1536 17.6379 13.3793L17.4218 13.4769C17.5136 13.561 17.0146 14.2438 16.636 14.657C16.0699 14.8139 16.2171 14.1464 14.9073 15.4375C14.2648 15.8622 13.5937 16.6407 12.8825 17.509C12.2152 18.3755 11.5518 19.3299 11.0585 20.1447C11.7296 19.3662 11.657 19.7219 11.4544 20.1274C10.9133 20.8561 10.3511 21.101 10.0261 21.7321L9.75644 21.6117C9.80619 21.7417 9.60547 22.1912 9.3187 22.6885C8.99178 23.2756 8.62665 23.9967 8.59035 24.1745C8.07405 24.4615 9.14852 22.8281 9.13508 22.5202C8.14474 24.0618 7.85413 24.4711 7.65148 24.8766C7.52721 25.0583 7.40486 25.2839 7.2003 25.6454C6.99574 26.0069 6.70897 26.5042 6.30369 27.3151C5.6366 29.1951 6.78176 27.162 6.64807 28.1374C5.92356 29.7114 5.51078 31.36 4.5721 33.0756L5.1247 32.6108C4.24556 35.6899 3.75249 37.5182 2.91523 39.5379C2.73966 41.5727 2.72659 43.292 2.83395 44.7415C2.65838 46.7764 2.5727 48.8513 2.66488 50.9626C2.75706 53.0739 2.70521 51.8863 2.72633 52.3701C2.61358 52.8157 2.50659 53.3933 2.44935 54.1009C2.42649 54.5866 2.36156 55.1183 2.34446 55.736C2.37135 56.3518 2.35617 57.0135 2.34483 57.7632C2.37748 58.5109 2.41205 59.3026 2.49444 60.1804" fill="#DB574E"/>
<path d="M59.0816 43.5421C62.4957 45.3194 62.7056 50.1261 59.4594 52.1941L48.5034 59.1739C45.2572 61.2419 40.9895 59.0203 40.8216 55.175L40.255 42.197C40.0871 38.3516 44.1449 35.7666 47.559 37.5438L59.0816 43.5421Z" fill="white"/>
</svg>
