<svg preserveAspectRatio="none" width="100%" height="100%" overflow="visible" style="display: block;" viewBox="0 0 186 187" fill="none" xmlns="http://www.w3.org/2000/svg">
<path id="Vector" d="M0.0879555 111.879C0.175911 113.639 0.351822 115.574 0.615689 117.597L0.263867 117.245C2.28684 126.744 4.83755 132.637 8.97146 138.002C8.61964 138.794 9.58715 140.553 10.7306 142.4C11.962 144.159 13.3692 146.006 13.809 147.062H13.6331C15.744 149.085 17.4152 151.635 19.1743 154.098C20.9334 156.561 22.8684 158.936 25.2432 160.607C25.0673 160.607 24.7155 160.607 24.0119 160.079C27.0903 162.894 31.3122 166.148 31.0483 166.94C35.0063 170.106 39.9318 173.536 44.8573 176.175C49.7828 178.814 54.6204 180.661 57.7868 181.1H57.259C59.1061 181.452 60.2495 181.716 61.393 182.156C62.0086 182.332 62.5364 182.596 63.24 182.772C63.9437 182.947 64.7353 183.123 65.7907 183.299C65.9666 183.475 66.2305 183.563 66.1425 183.651C67.1101 183.651 68.3414 183.915 69.6608 184.091C70.9801 184.355 72.2994 184.619 73.7067 184.883C76.4333 185.41 79.072 185.85 80.6552 185.85L80.8311 186.378C83.4698 186.554 86.0205 186.73 88.6592 186.73C87.6917 186.73 86.7241 186.642 85.7566 186.554C86.2844 185.85 87.7796 186.114 89.8026 186.466C90.858 186.642 92.0015 186.73 93.3208 186.818C94.6401 186.818 95.9595 186.818 97.3668 186.466C100.005 186.466 102.644 185.322 105.195 184.267C106.426 183.651 107.746 183.123 108.977 182.684C110.208 182.244 111.528 181.804 112.847 181.716C115.222 180.397 110.912 183.387 114.518 181.892C114.87 182.596 112.847 182.86 113.99 183.211C117.597 181.804 120.323 182.244 124.545 180.045L124.985 180.573C125.688 180.133 126.304 179.781 127.008 179.429C127.711 179.077 128.327 178.726 129.031 178.462C130.35 177.934 131.669 177.318 132.901 176.879C135.364 175.911 137.562 174.768 139.146 173.36C141.696 171.425 142.84 171.249 143.983 170.898C144.511 170.722 145.127 170.546 145.83 170.106C146.534 169.666 147.413 168.963 148.557 167.643L151.108 166.676C153.394 164.829 152.075 164.565 154.714 162.718C154.89 163.245 157.968 160.255 156.913 161.838C158.408 160.783 159.639 159.375 160.959 157.968C162.19 156.561 163.333 154.978 164.565 153.394C166.94 150.14 169.226 146.622 172.393 142.84C172.481 141.696 173.272 140.113 174.064 138.618C174.768 137.123 175.471 135.627 175.471 134.836C175.735 134.836 176.703 132.637 177.494 131.142C178.286 129.646 178.726 128.767 178.11 131.406C178.022 131.845 177.67 132.637 177.494 132.461L177.758 133.341C181.1 128.679 181.012 123.841 182.596 118.652C181.98 120.147 181.452 122.258 181.452 120.763C181.892 119.18 182.42 117.597 182.86 115.925L183.123 117.069L184.091 113.463C184.443 112.231 184.619 111 184.882 109.768L184.091 110.648C184.355 109.768 184.619 108.977 184.795 108.361C185.058 107.658 185.234 107.042 185.41 106.426C185.762 105.195 186.026 103.788 185.674 101.677C185.322 99.7416 184.619 105.107 184.707 101.237C185.586 96.3992 186.202 89.011 185.586 82.6782C184.97 83.3818 184.795 81.6227 184.443 79.9516L184.97 79.6877C184.003 76.4333 184.179 75.8177 184.443 75.114C184.707 74.4104 184.882 73.7947 183.827 70.6283C183.475 70.2765 183.123 70.0126 182.772 69.6608C179.957 64.2955 183.123 66.1425 179.429 60.4254C180.485 62.8002 178.638 62.0086 177.758 58.9302L178.55 59.4579C177.758 57.8747 177.406 57.435 176.966 56.2915C177.67 57.1711 177.934 56.4674 176.791 54.0926L178.198 55.412C177.142 54.0047 176.175 52.6854 175.119 51.366C174.856 50.4865 174.416 49.431 173.888 48.4635C173.36 47.496 172.745 46.4405 172.217 45.561C171.073 43.7139 170.018 42.1307 169.93 41.2511C169.93 41.2511 169.666 40.8114 169.226 40.1077C168.787 39.4041 168.171 38.5245 167.467 37.645C166.06 35.7979 164.389 33.8629 163.421 33.4231C164.917 34.3027 162.102 30.7844 163.421 31.3122C161.574 29.9928 156.825 25.8589 155.417 23.66L155.857 23.9239C152.603 20.4936 149.348 18.1188 146.006 16.0959C142.752 13.9849 139.409 12.2258 135.891 9.85102C135.891 10.6426 132.109 8.26782 132.725 9.58715C130.702 8.79555 128.855 8.00395 127.096 7.1244C125.337 6.3328 123.753 5.45324 122.258 4.83755C119.268 3.51822 116.805 2.90253 114.958 3.78209C113.111 3.34231 111.967 2.99049 111.088 2.55071C110.208 2.11093 109.593 1.75911 108.625 1.49524H109.593C107.746 1.23138 106.25 1.05547 105.019 0.879555C103.7 0.703644 102.556 0.615689 101.501 0.527733C100.445 0.351822 99.4777 0.351822 98.3343 0.263867C97.2788 0.263867 96.1354 0 94.7281 0C92.0015 0.175911 91.5617 1.40729 86.8121 1.23138C88.3073 0.703644 86.3723 0.7916 84.6132 0.967511C85.7566 0.7916 86.1084 0.615689 83.7336 0.439778C83.3818 0.615689 82.942 0.7916 82.4143 0.879555C82.4143 0.879555 82.3264 0.879555 82.4143 0.7916C79.4238 1.23138 79.9516 1.40729 81.3589 1.31933C81.3589 1.31933 81.3589 1.49524 81.8866 1.5832C80.3034 1.40729 78.1045 1.67115 76.3454 1.93502C74.4983 2.19889 73.091 2.46275 72.8272 2.02298C68.4294 3.07844 64.6473 4.30982 61.305 5.80506C57.8747 7.21235 54.7963 8.88351 51.454 10.5547C50.4865 10.5547 51.8938 9.41124 53.8288 8.35577C52.2456 9.14737 50.5744 9.85102 49.0792 10.8185C48.9912 10.5547 49.6069 10.1149 50.4865 9.58715C51.366 9.14737 52.4215 8.7076 53.1251 8.35577C51.5419 8.79555 50.0467 9.41124 48.5514 10.2028C47.8478 10.5547 47.0562 10.9944 46.3526 11.4342C45.6489 11.874 44.9453 12.4017 44.2416 12.8415C41.3391 14.7765 38.6125 16.9754 35.2702 18.8225C34.9183 19.2623 34.6545 19.702 34.3906 20.1418L33.9508 20.3177C34.1267 20.4936 33.0713 21.813 32.2797 22.6046C31.1363 22.8684 31.4881 21.5491 28.7615 24.0119C27.4421 24.8035 26.0348 26.2987 24.5396 27.9699C23.1323 29.641 21.725 31.4881 20.6695 33.0713C22.0768 31.576 21.9009 32.2797 21.4611 33.0713C20.3177 34.4786 19.1743 34.9183 18.4707 36.1497L17.9429 35.8859C18.0309 36.1497 17.5911 37.0293 16.9754 37.9968C16.2718 39.1402 15.4802 40.5475 15.3922 40.8993C14.3367 41.427 16.6236 38.2606 16.6236 37.645C14.5127 40.6354 13.897 41.427 13.4572 42.2186C13.1933 42.5705 12.9295 43.0102 12.4897 43.7139C12.0499 44.4175 11.4342 45.385 10.5547 46.9682C9.05942 50.6624 11.5222 46.7044 11.1704 48.6394C9.58715 51.7178 8.61964 54.9722 6.59666 58.3145L7.74009 57.4349C5.71711 63.5039 4.57369 67.1101 2.72662 71.0681C2.19889 75.114 2.02298 78.5443 2.11093 81.4468C1.5832 85.4928 1.23138 89.6267 1.23138 93.8485C1.23138 98.0704 1.23138 95.6956 1.23138 96.6631C0.967511 97.5427 0.703644 98.6861 0.527733 100.093C0.439778 101.061 0.263867 102.116 0.175911 103.348C0.175911 104.579 0.0879555 105.898 0 107.394C0 108.889 0 110.472 0.0879555 112.231" fill="var(--fill-0, #DB574E)"/>
</svg>
