<svg preserveAspectRatio="none" width="100%" height="100%" overflow="visible" style="display: block;" viewBox="0 0 181 182" fill="none" xmlns="http://www.w3.org/2000/svg">
<path id="Vector" d="M179.771 72.7392C179.683 71.0681 179.507 69.221 179.244 67.198L179.595 67.5498C177.572 58.3145 175.198 52.6854 171.152 47.496C171.503 46.7044 170.536 45.0332 169.393 43.2741C168.161 41.603 166.842 39.7559 166.402 38.7884H166.578C164.555 36.8534 162.884 34.3906 161.213 31.9279C159.454 29.5531 157.694 27.1783 155.32 25.5951C155.496 25.5951 155.847 25.5951 156.463 26.0348C153.473 23.3082 149.427 20.1418 149.691 19.4382C145.908 16.4477 141.071 13.1054 136.321 10.5547C131.572 8.00395 126.91 6.24484 123.832 5.71711H124.271C122.512 5.36529 121.369 5.10142 120.313 4.66164C119.786 4.48573 119.17 4.22186 118.554 4.04595C117.851 3.87004 117.059 3.69413 116.092 3.51822C115.916 3.34231 115.652 3.25435 115.74 3.1664C114.772 3.1664 113.629 2.90253 112.309 2.72662C111.078 2.46275 109.759 2.19889 108.439 1.93502C105.801 1.40729 103.25 0.967511 101.667 0.967511L101.491 0.439778C98.9402 0.263867 96.3895 0.0879555 93.9267 0.0879555C94.8942 0.0879555 95.8617 0.175911 96.7413 0.263867C96.2136 0.967511 94.8063 0.703644 92.7833 0.351822C91.8158 0.175911 90.6724 0.0879555 89.441 0C88.2096 0 86.8903 0 85.483 0.351822C82.9323 0.351822 80.3816 1.49524 77.9188 2.55071C76.6874 3.07844 75.4561 3.69413 74.2247 4.04595C72.9933 4.48573 71.7619 4.83755 70.4426 5.01346C68.1558 6.24484 72.2897 3.43027 68.7714 4.83755C68.4196 4.13391 70.3546 3.958 69.2992 3.60618C65.8689 4.92551 63.1423 4.48573 59.0084 6.68462L58.6566 6.24484C58.0409 6.68462 57.3372 7.03644 56.7215 7.30031C56.1058 7.65213 55.4022 8.00395 54.7865 8.26782C53.4672 8.79555 52.2358 9.32329 51.0044 9.85102C48.5417 10.8185 46.4307 11.874 44.9355 13.2813C42.4727 15.1283 41.3293 15.3043 40.2739 15.6561C39.7461 15.832 39.2184 16.0079 38.5147 16.4477C37.8111 16.8875 36.9315 17.5911 35.8761 18.8225L33.4133 19.79C31.2144 21.5491 32.5338 21.813 29.9831 23.5721C29.8071 23.0443 26.9046 26.0348 27.8721 24.3637C26.4648 25.4191 25.2335 26.7385 24.0021 28.0578C22.8587 29.4651 21.6273 30.9603 20.5718 32.5435C18.285 35.7099 15.9981 39.1402 13.0076 42.7464C12.9197 43.8898 12.1281 45.385 11.4244 46.7923C10.7208 48.2876 10.1051 49.6069 10.1051 50.4865C9.84124 50.4865 8.87373 52.5974 8.08213 54.0926C7.37849 55.5879 6.85076 56.4674 7.46645 53.8288C7.5544 53.389 7.90622 52.6854 8.08213 52.7733L7.81827 51.9817C4.65187 56.4674 4.65187 61.217 3.15663 66.2305C3.77231 64.7353 4.30005 62.8002 4.30005 64.2075C3.86027 65.7907 3.33254 67.286 2.98071 68.8692L2.71685 67.7257L1.74934 71.244C1.48547 72.3874 1.2216 73.6188 0.957738 74.8501L1.74934 73.9706C1.48547 74.8501 1.30956 75.5538 1.04569 76.1695C0.869782 76.7852 0.605916 77.4009 0.430005 78.0165C0.0781827 79.2479 -0.185684 80.5673 0.166138 82.5902C0.51796 84.4373 1.2216 79.3359 1.13365 83.03C0.342049 87.6917 -0.273639 94.904 0.254094 100.973C0.869782 100.357 1.04569 101.94 1.39752 103.612L0.869782 103.875C1.83729 107.042 1.57343 107.658 1.39752 108.273C1.13365 108.889 0.957738 109.593 2.0132 112.671C2.36503 112.935 2.71685 113.287 3.06867 113.551C5.79529 118.74 2.71685 116.981 6.32302 122.522C5.35551 120.147 7.11462 121.027 7.99418 123.929L7.20258 123.402C7.90622 124.985 8.346 125.425 8.69782 126.48C7.99418 125.688 7.73031 126.304 8.87373 128.591L7.5544 127.36C8.52191 128.679 9.48942 129.998 10.5449 131.23C10.8088 132.109 11.2485 133.077 11.7763 134.044C12.304 135.012 12.8317 135.979 13.4474 136.859C14.5029 138.706 15.5584 140.201 15.6463 141.081C15.6463 141.081 15.9102 141.52 16.35 142.136C16.7897 142.752 17.4054 143.631 18.0211 144.599C19.3404 146.358 21.0116 148.205 21.8912 148.645C20.3959 147.765 23.1225 151.283 21.8912 150.668C23.6503 151.899 28.3119 155.945 29.6312 158.056L29.2794 157.792C32.4458 161.135 35.6122 163.421 38.7786 165.444C41.945 167.467 45.1994 169.226 48.5417 171.513C48.5417 170.722 52.1478 173.009 51.6201 171.777C53.5551 172.569 55.4022 173.272 57.0734 174.152C58.7445 174.856 60.3277 175.735 61.735 176.351C64.6375 177.582 67.1003 178.286 68.8594 177.406C70.7065 177.846 71.7619 178.198 72.5535 178.55C73.3451 178.902 73.9608 179.341 74.9283 179.517H74.0488C75.8079 179.781 77.2152 179.957 78.5345 180.133C79.7659 180.309 80.9093 180.397 81.8768 180.485C82.9323 180.661 83.8998 180.661 84.8673 180.749C85.9228 180.749 86.9782 180.925 88.2976 181.012C90.9362 180.837 91.376 179.693 96.0377 179.781C94.5424 180.309 96.4774 180.221 98.2365 180.045C97.0931 180.221 96.8293 180.397 99.1161 180.573C99.4679 180.397 99.9077 180.221 100.347 180.133C100.347 180.133 100.435 180.133 100.347 180.221C103.25 179.781 102.722 179.605 101.403 179.781C101.403 179.781 101.403 179.605 100.875 179.517C102.37 179.693 104.481 179.429 106.24 179.165C108 178.902 109.407 178.638 109.671 179.077C113.981 178.11 117.587 176.879 120.841 175.383C124.183 173.976 127.174 172.393 130.34 170.722C131.308 170.722 129.901 171.865 128.053 172.833C129.637 172.041 131.132 171.337 132.627 170.458C132.715 170.722 132.099 171.161 131.308 171.601C130.428 172.041 129.373 172.481 128.669 172.833C130.164 172.393 131.66 171.865 133.067 171.073C133.771 170.722 134.474 170.282 135.178 169.842C135.881 169.402 136.585 168.963 137.201 168.435C140.015 166.588 142.654 164.389 145.908 162.718C146.26 162.278 146.524 161.838 146.788 161.398L147.14 161.222C146.964 161.047 148.019 159.727 148.811 159.024C149.954 158.76 149.515 160.079 152.241 157.704C153.473 157.001 154.88 155.505 156.287 153.922C157.607 152.251 159.014 150.492 160.069 148.997C158.662 150.404 158.926 149.788 159.278 148.997C160.421 147.677 161.565 147.238 162.18 146.006L162.708 146.27C162.62 146.006 163.06 145.215 163.675 144.247C164.379 143.104 165.171 141.784 165.259 141.432C166.314 140.905 164.027 143.983 164.115 144.599C166.226 141.696 166.754 140.905 167.194 140.201C167.458 139.849 167.633 139.409 168.073 138.794C168.513 138.09 169.129 137.211 170.008 135.627C171.416 132.021 169.041 135.891 169.393 133.956C170.976 130.966 171.855 127.887 173.79 124.545L172.735 125.425C174.758 119.532 175.813 116.013 177.572 112.143C178.1 108.273 178.276 104.931 178.188 102.116C178.716 98.1584 179.068 94.2004 179.068 90.1544C179.068 86.1085 179.068 88.3073 179.068 87.4278C179.332 86.5482 179.595 85.4048 179.683 84.0855C179.771 83.118 179.947 82.1505 180.035 80.9191C180.035 79.7757 180.123 78.4563 180.211 77.049C180.211 75.6417 180.211 74.0585 180.123 72.3874" fill="var(--fill-0, #DB574E)"/>
</svg>
