<svg preserveAspectRatio="none" width="100%" height="100%" overflow="visible" style="display: block;" viewBox="0 0 49 42" fill="none" xmlns="http://www.w3.org/2000/svg">
<path id="Polygon 6" d="M23.7298 8.65261C23.6072 8.5482 23.7528 8.2168 23.6766 8.05411C23.3602 7.37103 23.3965 7.02926 23.1566 6.38438C22.8013 5.42803 20.9764 3.03444 22.7322 2.02063C22.7323 2.0206 22.7323 2.02058 22.7323 2.02055C22.7496 2.01061 22.7671 2.00081 22.785 1.99113C23.1248 1.80707 23.6169 1.81614 24.0141 1.63036C24.4113 1.44444 26.8404 0.00942396 27.1581 0.242453C27.6005 0.590799 27.6013 2.0388 27.7685 2.2643C27.8829 2.41837 28.2224 2.49343 28.3838 2.6818C28.9039 3.28918 28.9471 3.73917 29.9046 4.00418C29.7283 4.43307 29.552 4.86198 29.3757 5.29087C29.7079 5.52585 29.5687 6.25308 29.7041 6.43421C29.8152 6.58278 30.1206 6.53112 30.2283 6.69065C30.3504 6.86875 30.2444 7.31185 30.4812 7.62747C30.868 8.14564 31.581 7.86591 31.8569 8.15151C32.1429 8.44776 32.0971 9.19169 32.5828 9.49994C32.6869 9.51366 32.7911 9.52738 32.8952 9.5411C33.0354 9.40721 33.1757 9.27334 33.316 9.13946C33.5203 9.31797 33.2411 9.60668 33.3531 9.81451C33.4846 10.0592 33.8724 9.99878 33.9644 10.1614C34.0394 10.2948 33.8889 10.6213 34.0041 10.7839C34.1707 11.0218 34.5061 10.7551 34.6526 10.8503C34.7103 10.8887 35.4871 11.7662 35.5224 11.8206C35.7832 12.239 35.3023 12.5662 35.4548 12.9318C35.8798 13.9448 36.8451 14.6791 37.5025 15.4635C37.7962 15.8137 38.0018 16.2372 38.1459 16.6723C36.5066 16.8025 36.2881 18.735 38.0076 17.0667C37.971 17.6644 38.6912 17.6574 38.8361 18.1204C38.9292 18.4201 38.7562 18.7647 38.9821 19.1391C39.3847 19.8024 40.6019 20.0794 39.2802 21.1001C39.9882 21.7429 39.8626 22.7261 41.292 22.2798C41.4867 22.4385 41.0339 23.3948 41.0632 23.682C41.0913 23.9534 41.7066 25.8049 41.8439 26.0867C41.9813 26.3684 42.2342 26.8543 42.4769 27.0183C42.7797 27.2254 44.2075 26.668 42.9677 28.0639C43.4343 28.5853 43.5124 28.8219 43.6526 29.4764C43.678 29.5949 43.4567 29.7377 43.4902 29.7961C43.5596 29.9163 43.846 30.0236 43.9903 30.2263C44.2276 30.5596 43.8646 31.0377 44.5739 30.5757C44.831 30.7374 45.088 30.8991 45.345 31.0608C45.2508 31.224 45.1566 31.3872 45.0624 31.5503C45.2882 31.5858 45.514 31.6212 45.7397 31.6567C44.5961 32.1222 45.7265 32.6365 46.1703 32.0014C46.2114 32.5788 46.2526 33.1562 46.2937 33.7335C45.0534 34.3657 46.7263 34.8037 47.3298 34.3371C47.3586 34.3892 47.3874 34.4414 47.4163 34.4935C47.357 35.1299 47.8582 35.3935 47.9613 36.0681C47.9845 36.2201 47.995 36.3387 47.9921 36.4368C49.0056 38.473 47.9878 40.5167 45.7176 40.3764C45.4308 40.1993 45.4329 40.0064 45.2832 39.5112C45.1336 39.5478 44.984 39.5844 44.8344 39.621C44.0496 41.3741 44.1883 38.3389 42.8443 39.6837C42.4149 38.5819 41.3564 39.1606 40.6546 39.4947C40.5729 39.5335 40.5715 39.7474 40.4628 39.8133C40.1968 39.9719 39.5183 39.697 39.5415 40.3868C39.3066 40.1872 39.0718 39.9876 38.8369 39.788C38.6449 39.9135 38.4529 40.0389 38.2609 40.1643C38.2619 40.3797 38.2628 40.595 38.2638 40.8103C37.8772 40.0764 37.2698 40.3585 36.9701 40.183C36.9105 40.1474 36.8976 39.8504 36.7122 39.7694C36.4956 39.6732 36.0919 39.7611 35.8337 39.6683C35.7333 39.9973 35.633 40.3264 35.5326 40.6554C35.071 40.8339 34.9087 39.9654 34.6376 39.8979C34.5888 39.8862 33.6983 39.9486 33.6503 39.9671C33.2575 40.1141 33.3688 40.854 32.2327 40.6955C32.0304 40.6668 31.8668 40.4108 31.684 40.4005C31.3609 40.382 30.3876 40.9626 30.3111 41.4992C29.9193 40.8276 28.8711 41.1021 28.5623 40.9081C28.4691 40.8484 28.4481 40.4207 28.1617 40.3297C27.9295 40.2554 27.3314 40.5979 27.0369 40.5406C26.7243 40.4782 26.6127 40.1189 26.4726 40.0935C26.3403 40.0698 26.2183 40.3599 26.038 40.3582C25.4751 40.3481 24.9653 39.8812 24.5204 39.8726C23.8769 39.8591 23.3085 40.7179 22.7702 41.0993C22.6365 41.0436 22.5052 40.8592 22.3651 40.8576C20.632 40.8306 18.677 40.6723 16.9387 40.4884C16.1317 40.404 14.1249 39.2382 14.6606 41.1833C14.3801 41.5239 12.341 40.7397 11.9532 40.7279C11.5654 40.7162 11.258 41.065 10.9532 41.0701C10.0335 41.0853 9.38578 40.834 8.26622 41.1377C7.97706 41.2171 7.66724 41.6303 7.49601 41.6255C7.28976 41.6188 7.06778 41.2191 6.80058 41.1937C6.16365 41.1364 4.97667 41.2678 4.36561 41.1987C4.25404 41.1852 4.21486 40.8343 4.05529 40.7246C3.78778 40.5401 3.50634 40.442 3.28238 40.4794C0.923179 40.3335 -0.387263 38.3555 0.918673 36.3853C1.02395 36.104 0.87348 35.7912 0.285865 35.533C1.23491 35.1612 1.10086 34.2331 1.43912 33.5761C2.15661 32.1883 3.80448 29.8571 4.07658 28.4443C4.24803 27.5534 3.80192 27.3212 4.80848 26.4449C5.03184 26.2504 5.28362 26.0737 5.55288 25.8367C6.18493 25.2819 7.35416 25.1132 6.68904 24.0282C7.3826 23.4071 7.55671 22.6941 8.71332 22.6039C8.55332 22.4222 8.39331 22.2405 8.23331 22.0587C8.28262 21.962 8.33193 21.8652 8.38125 21.7684C8.58766 21.8485 8.79407 21.9287 9.00049 22.0088C9.44 21.3653 9.15402 20.062 9.48854 19.4957C10.0486 18.5458 11.7713 16.2609 12.5498 15.503C12.9632 15.1007 12.5722 14.8405 13.5654 15.0469C13.5695 14.9059 13.5735 14.7648 13.5775 14.6238C13.4337 14.451 13.2899 14.2783 13.1461 14.1055C13.4949 13.4845 14.201 12.9168 14.5373 12.3275C15.1496 11.2535 15.5751 9.35547 16.526 8.47095C16.765 8.24944 17.3362 8.12995 17.4844 7.86349C17.7004 7.47589 17.1291 7.02156 17.399 6.52722C17.8652 5.67588 19.495 4.53015 19.8981 3.70379C20.0182 3.45859 19.8491 3.21422 19.9183 3.03698C20.206 2.29231 20.5488 1.74244 20.5675 0.879917C21.5726 0.522512 22.3108 1.02972 23.2169 1.26226C23.9012 1.43709 25.5584 1.71856 26.1157 1.94444C26.5072 2.10315 26.8645 2.56084 27.3042 2.72035C27.1363 3.74686 26.5812 3.8984 25.6251 4.25865C24.918 5.53509 24.2108 6.81154 23.5037 8.08798C23.2196 8.07724 22.9355 8.06649 22.6514 8.05575C22.6509 8.05547 22.6504 8.0552 22.65 8.05492C22.1186 8.39509 22.5605 8.92448 22.5367 9.25965C22.3089 12.4686 18.5081 16.8491 16.7783 19.5279C16.406 20.1054 15.5831 22.2082 14.994 22.4119C14.841 22.4643 14.4883 22.2998 14.4088 22.4037C14.029 23.5226 13.6492 24.6415 13.2694 25.7604C11.5562 27.523 10.7552 29.9054 9.63492 32.0314C8.3659 34.4399 7.11077 36.8434 5.83994 39.2266L3.28238 34.7968C7.02954 34.6704 10.7581 34.5897 14.4726 34.6437C15.7076 34.6622 17.2749 34.3718 18.484 34.5591C18.9886 34.6367 19.1988 35.2593 19.8617 34.7953C19.8687 34.963 19.8756 35.1307 19.8826 35.2985C20.4611 35.096 20.8308 34.7143 21.4793 34.6755C22.0255 34.6435 23.4705 34.6186 23.9532 34.6827C24.2035 34.7147 24.1102 35.0281 24.3436 35.0266C24.7432 35.0215 25.5969 34.5882 26.1482 34.5882C26.6477 34.5882 27.4897 34.9492 27.8737 34.8969C29.2566 34.7113 30.7629 34.1762 32.2366 34.3196C32.6437 34.3602 33.1673 34.7665 33.2948 34.7552C33.5438 34.7316 33.618 34.3368 33.7853 34.2861C34.635 34.0296 35.9595 34.4987 36.7923 34.5173C39.5063 34.5781 42.3813 34.4058 45.0836 34.4783C45.281 34.4836 45.4936 34.4873 45.7176 34.4903L42.8946 39.3799C42.0578 37.8855 40.847 35.8364 40.3775 34.498C40.2631 34.1716 40.6829 34.0338 40.5402 33.7866C40.3819 33.5126 40.0432 33.5103 39.9488 33.394C39.2938 32.5902 37.9082 30.7809 37.6836 29.7946C37.6412 29.6066 37.8679 29.3215 37.8117 29.2266C37.7838 29.1783 37.5206 29.1848 37.4125 29.045C36.4582 27.8104 36.0112 26.7665 35.3223 25.4146C34.0013 22.8264 31.9475 20.1295 30.6249 17.373C30.3366 16.7724 30.6893 16.0428 30.6367 15.9653C30.5226 15.7946 30.0665 15.9064 29.7625 15.6025C28.7555 14.5902 28.2426 12.7399 27.3905 11.716C26.9698 11.21 26.0286 10.7243 25.5998 10.2349C25.2573 9.84401 24.8497 8.68915 24.5191 8.61911C24.319 8.57595 23.8649 8.76466 23.7298 8.65261ZM38.8891 19.7306C38.1686 20.0417 39.2068 20.5443 39.3902 20.025C39.4315 19.9081 39.0761 19.6497 38.8891 19.7306ZM20.0458 39.4925C20.0545 39.7152 20.0632 39.9378 20.072 40.1605C20.1973 40.0678 20.3226 39.9752 20.4479 39.8825C20.3774 39.7487 20.307 39.6148 20.2366 39.481C20.173 39.4848 20.1094 39.4887 20.0458 39.4925Z" fill="var(--stroke-0, white)"/>
</svg>
