<svg width="125" height="142" viewBox="0 0 125 142" fill="none" xmlns="http://www.w3.org/2000/svg">
<path d="M34.4275 17.0305C31.4275 19.3305 28.7275 25.8305 27.3275 29.4305C17.3275 55.9305 13.4275 84.2305 10.0275 112.13C9.32752 117.43 7.32752 124.23 7.02752 129.23C6.72752 134.23 10.2275 140.63 5.42753 141.63C0.627532 142.63 -0.172476 131.73 0.0275237 128.23C1.02752 111.33 5.12753 87.4305 8.32753 70.5305C11.2275 55.1305 16.3275 33.9305 22.5275 19.7305C28.7275 5.5305 27.7275 10.4305 33.9275 7.1305C60.8275 -6.9695 96.6275 -0.169502 111.528 27.6305C120.228 43.9305 124.528 79.5305 124.028 98.1305C124.028 99.8305 123.128 101.43 123.028 103.13C122.728 107.73 125.828 127.33 123.028 129.23C120.228 131.13 116.728 127.03 116.228 123.93C114.928 116.63 115.928 104.03 115.928 96.1305C115.928 88.2305 117.128 91.5305 117.028 89.2305C116.628 76.7305 111.528 47.7305 106.828 36.3305C101.028 22.3305 88.0275 9.5305 72.4275 7.7305C61.2275 6.4305 43.3275 10.1305 34.3275 17.0305H34.4275Z" fill="#E9E1D4"/>
<path d="M19.3274 138.43C17.6274 136.73 18.2274 131.73 18.0274 129.23C16.6274 111.03 21.9274 70.0298 26.6274 51.6298C33.1274 25.9298 44.9274 9.62981 74.4274 16.9298C89.3274 20.6298 100.827 39.7298 104.727 53.6298C106.927 61.4298 106.327 68.4298 107.227 76.1298C108.027 82.9298 109.827 90.4298 110.227 97.1298C110.627 103.83 110.727 130.23 109.727 131.73C107.627 134.93 103.127 131.23 102.427 128.03C100.527 119.33 102.927 104.03 102.227 94.2298C101.527 84.4298 100.027 80.6298 99.2274 74.2298C96.9274 56.4298 96.1274 40.0298 80.2274 28.2298C64.3274 16.4298 49.1274 21.7298 41.1274 35.0298C27.1274 58.0298 29.3274 94.1298 24.3274 120.23C23.0274 125.23 26.9274 133.63 24.8274 137.73C22.7274 141.83 21.1274 140.13 19.5274 138.53L19.3274 138.43Z" fill="#E9E1D4"/>
<path d="M34.4952 132.194C34.0307 132.635 30.9289 131.703 30.0611 130.675C27.0888 127.338 30.6797 107.139 31.4886 102.001C34.2091 85.9219 39.7232 65.6852 46.905 50.9274C54.0868 36.1696 51.9834 42.6431 53.616 41.0511C56.6558 38.0378 63.0673 36.1958 67.2279 36.7691C71.3886 37.3425 77.1858 39.9583 79.2697 40.9521C86.3309 44.6506 89.4513 57.9006 90.5625 65.2208C93.3147 84.073 90.2804 102.431 88.4347 120.952C86.5891 139.474 87.4729 132.327 85.0923 134.22C82.7116 136.113 78.9811 133.883 78.9944 130.856C80.0689 119.396 82.8958 107.672 83.7722 96.1838C84.6521 85.403 84.2325 63.541 79.9135 53.8608C75.5945 44.1806 76.6128 47.0464 70.9627 45.5612C65.3125 44.076 60.6565 43.4345 56.7802 48.8561C51.401 56.3923 44.2777 74.3884 42.1303 83.3794C39.2761 95.3014 37.4434 107.869 36.0888 119.897C35.8158 121.878 34.8333 131.938 34.3825 132.28L34.4952 132.194Z" fill="#E9E1D4"/>
<path d="M76.1274 132.732C69.5274 134.232 69.4274 128.532 69.1274 123.232C67.9274 105.932 72.4274 76.8318 64.6274 61.7318C63.3274 59.2318 61.7274 56.5318 60.6274 60.7318C57.7274 71.5318 56.5274 93.6318 56.0274 105.232C55.6274 114.932 56.8274 124.232 57.1274 133.832C48.7274 135.832 51.5274 126.832 51.1274 121.332C49.8274 103.932 49.8274 74.5318 54.5274 57.8318C59.2274 41.1318 67.9274 51.1317 71.6274 59.9317C76.2274 71.1317 74.2274 81.9317 76.1274 93.4317V132.932V132.732Z" fill="#E9E1D4"/>
</svg>
