<svg width="23" height="30" viewBox="0 0 23 30" fill="none" xmlns="http://www.w3.org/2000/svg">
<path d="M11.25 9.13477C14.3262 9.13477 16.8652 11.6738 16.8652 14.75C16.8652 17.875 14.3262 20.3652 11.25 20.3652C8.125 20.3652 5.63477 17.875 5.63477 14.75C5.63477 11.6738 8.125 9.13477 11.25 9.13477ZM11.25 18.4121C13.252 18.4121 14.8633 16.8008 14.8633 14.75C14.8633 12.748 13.252 11.1367 11.25 11.1367C9.19922 11.1367 7.58789 12.748 7.58789 14.75C7.58789 16.8008 9.24805 18.4121 11.25 18.4121ZM18.3789 8.93945C18.3789 8.20703 17.793 7.62109 17.0605 7.62109C16.3281 7.62109 15.7422 8.20703 15.7422 8.93945C15.7422 9.67188 16.3281 10.2578 17.0605 10.2578C17.793 10.2578 18.3789 9.67188 18.3789 8.93945ZM22.0898 10.2578C22.1875 12.0645 22.1875 17.4844 22.0898 19.291C21.9922 21.0488 21.6016 22.5625 20.332 23.8809C19.0625 25.1504 17.5 25.541 15.7422 25.6387C13.9355 25.7363 8.51562 25.7363 6.70898 25.6387C4.95117 25.541 3.4375 25.1504 2.11914 23.8809C0.849609 22.5625 0.458984 21.0488 0.361328 19.291C0.263672 17.4844 0.263672 12.0645 0.361328 10.2578C0.458984 8.5 0.849609 6.9375 2.11914 5.66797C3.4375 4.39844 4.95117 4.00781 6.70898 3.91016C8.51562 3.8125 13.9355 3.8125 15.7422 3.91016C17.5 4.00781 19.0625 4.39844 20.332 5.66797C21.6016 6.9375 21.9922 8.5 22.0898 10.2578ZM19.7461 21.1953C20.332 19.7793 20.1855 16.3613 20.1855 14.75C20.1855 13.1875 20.332 9.76953 19.7461 8.30469C19.3555 7.37695 18.623 6.5957 17.6953 6.25391C16.2305 5.66797 12.8125 5.81445 11.25 5.81445C9.63867 5.81445 6.2207 5.66797 4.80469 6.25391C3.82812 6.64453 3.0957 7.37695 2.70508 8.30469C2.11914 9.76953 2.26562 13.1875 2.26562 14.75C2.26562 16.3613 2.11914 19.7793 2.70508 21.1953C3.0957 22.1719 3.82812 22.9043 4.80469 23.2949C6.2207 23.8809 9.63867 23.7344 11.25 23.7344C12.8125 23.7344 16.2305 23.8809 17.6953 23.2949C18.623 22.9043 19.4043 22.1719 19.7461 21.1953Z" fill="#1C3666"/>
</svg>
