<svg preserveAspectRatio="none" width="100%" height="100%" overflow="visible" style="display: block;" viewBox="0 0 436.38 438.674" fill="none" xmlns="http://www.w3.org/2000/svg">
<path id="Vector" d="M0.206532 262.709C0.413064 266.84 0.826129 271.383 1.44573 276.134L0.619597 275.307C5.36984 297.613 11.3593 311.451 21.0663 324.049C20.2402 325.908 22.512 330.038 25.1969 334.376C28.0884 338.506 31.3929 342.843 32.4256 345.322H32.0125C36.9693 350.072 40.8934 356.062 45.024 361.844C49.1547 367.627 53.6984 373.204 59.2747 377.128C58.8617 377.128 58.0355 377.128 56.3833 375.889C63.6119 382.498 73.5255 390.139 72.9059 391.998C82.1998 399.433 93.7656 407.488 105.331 413.684C116.897 419.88 128.256 424.217 135.692 425.25H134.452C138.79 426.076 141.475 426.696 144.159 427.728C145.605 428.141 146.844 428.761 148.497 429.174C150.149 429.587 152.008 430 154.486 430.413C154.899 430.826 155.519 431.033 155.312 431.239C157.584 431.239 160.476 431.859 163.573 432.272C166.671 432.891 169.769 433.511 173.074 434.131C179.476 435.37 185.672 436.403 189.39 436.403L189.803 437.642C195.999 438.055 201.988 438.468 208.184 438.468C205.913 438.468 203.641 438.261 201.369 438.055C202.608 436.403 206.119 437.022 210.869 437.848C213.348 438.261 216.033 438.468 219.131 438.674C222.229 438.674 225.327 438.674 228.631 437.848C234.827 437.848 241.023 435.163 247.012 432.685C249.904 431.239 253.002 430 255.893 428.967C258.785 427.935 261.883 426.902 264.981 426.696C270.557 423.598 260.437 430.62 268.905 427.109C269.731 428.761 264.981 429.38 267.666 430.207C276.134 426.902 282.536 427.935 292.45 422.771L293.482 424.011C295.135 422.978 296.58 422.152 298.232 421.326C299.885 420.5 301.33 419.673 302.983 419.054C306.081 417.815 309.179 416.369 312.07 415.336C317.853 413.064 323.016 410.379 326.734 407.075C332.723 402.531 335.408 402.118 338.093 401.292C339.332 400.879 340.778 400.466 342.43 399.433C344.083 398.401 346.148 396.748 348.833 393.65L354.822 391.379C360.192 387.041 357.094 386.422 363.29 382.085C363.703 383.324 370.932 376.302 368.453 380.019C371.964 377.541 374.856 374.236 377.954 370.932C380.845 367.627 383.53 363.91 386.422 360.192C391.998 352.55 397.368 344.289 404.803 335.408C405.01 332.723 406.868 329.006 408.727 325.495C410.379 321.984 412.032 318.473 412.032 316.614C412.651 316.614 414.923 311.451 416.782 307.94C418.641 304.428 419.673 302.363 418.228 308.559C418.021 309.592 417.195 311.451 416.782 311.037L417.402 313.103C425.25 302.157 425.043 290.797 428.761 278.612C427.315 282.123 426.076 287.08 426.076 283.569C427.109 279.851 428.348 276.134 429.38 272.209L430 274.894L432.272 266.427C433.098 263.535 433.511 260.644 434.131 257.752L432.272 259.817C432.891 257.752 433.511 255.893 433.924 254.448C434.544 252.795 434.957 251.35 435.37 249.904C436.196 247.013 436.816 243.708 435.989 238.751C435.163 234.208 433.511 246.806 433.718 237.719C435.783 226.359 437.229 209.011 435.783 194.14C434.337 195.793 433.924 191.662 433.098 187.738L434.337 187.118C432.065 179.476 432.478 178.031 433.098 176.378C433.718 174.726 434.131 173.28 431.652 165.845C430.826 165.019 430 164.4 429.174 163.573C422.565 150.975 430 155.312 421.326 141.888C423.804 147.464 419.467 145.605 417.402 138.377L419.26 139.616C417.402 135.898 416.575 134.866 415.543 132.181C417.195 134.246 417.815 132.594 415.13 127.017L418.434 130.115C415.956 126.811 413.684 123.713 411.206 120.615C410.586 118.549 409.553 116.071 408.314 113.799C407.075 111.527 405.629 109.049 404.39 106.984C401.705 102.646 399.227 98.9289 399.02 96.8636C399.02 96.8636 398.401 95.8309 397.368 94.1787C396.335 92.5264 394.89 90.4611 393.237 88.3958C389.933 84.0586 386.009 79.5149 383.737 78.4822C387.248 80.5476 380.639 72.2863 383.737 73.5255C379.4 70.4275 368.247 60.7205 364.942 55.5572L365.975 56.1768C358.333 48.122 350.692 42.5456 342.843 37.7954C335.202 32.8386 327.354 28.708 319.092 23.1316C319.092 24.9904 310.211 19.414 311.657 22.512C306.907 20.6532 302.57 18.7944 298.439 16.7291C294.308 14.8703 290.591 12.805 287.08 11.3593C280.058 8.26129 274.275 6.81556 269.938 8.88088C265.6 7.84822 262.915 7.02209 260.85 5.98943C258.785 4.95677 257.339 4.13064 255.067 3.51105H257.339C253.002 2.89145 249.491 2.47839 246.599 2.06532C243.501 1.65226 240.817 1.44573 238.338 1.23919C235.86 0.826129 233.588 0.826129 230.903 0.619597C228.425 0.619597 225.74 0 222.435 0C216.033 0.413064 215 3.30452 203.847 2.89145C207.358 1.65226 202.815 1.85879 198.684 2.27185C201.369 1.85879 202.195 1.44573 196.619 1.03266C195.793 1.44573 194.76 1.85879 193.521 2.06532C193.521 2.06532 193.314 2.06532 193.521 1.85879C186.499 2.89145 187.738 3.30452 191.042 3.09798C191.042 3.09798 191.042 3.51105 192.281 3.71758C188.564 3.30452 183.401 3.92411 179.27 4.54371C174.933 5.1633 171.628 5.7829 171.009 4.75024C160.682 7.22863 151.801 10.1201 143.953 13.6311C135.898 16.9356 128.67 20.8598 120.821 24.7839C118.549 24.7839 121.854 22.0989 126.398 19.6206C122.68 21.4793 118.756 23.1316 115.245 25.4035C115.038 24.7839 116.484 23.7512 118.549 22.512C120.615 21.4793 123.093 20.4467 124.745 19.6206C121.028 20.6532 117.517 22.0989 114.006 23.9577C112.354 24.7839 110.495 25.8165 108.842 26.8492C107.19 27.8818 105.538 29.121 103.886 30.1537C97.0701 34.6974 90.6676 39.8607 82.8194 44.1979C81.9933 45.2305 81.3737 46.2632 80.7541 47.2959L79.7214 47.7089C80.1345 48.122 77.6561 51.22 75.7973 53.0788C73.1124 53.6984 73.9385 50.6004 67.536 56.3833C64.438 58.2421 61.1335 61.7531 57.6225 65.6772C54.318 69.6014 51.0135 73.9385 48.5351 77.6561C51.8396 74.1451 51.4265 75.7973 50.3939 77.6561C47.7089 80.9606 45.024 81.9933 43.3718 84.8847L42.1326 84.2651C42.3391 84.8847 41.3064 86.95 39.8607 89.2219C38.2085 91.9068 36.3497 95.2113 36.1431 96.0375C33.6647 97.2767 39.0346 89.8415 39.0346 88.3958C34.0778 95.4179 32.6321 97.2767 31.5994 99.1355C30.9798 99.9616 30.3602 100.994 29.3276 102.646C28.2949 104.299 26.8492 106.571 24.7839 110.288C21.2728 118.963 27.0557 109.669 26.2296 114.212C22.512 121.441 20.2402 129.083 15.4899 136.931L18.1748 134.866C13.4246 149.116 10.7397 157.584 6.4025 166.878C5.1633 176.378 4.75024 184.433 4.95677 191.249C3.71758 200.749 2.89145 210.456 2.89145 220.37C2.89145 230.283 2.89145 224.707 2.89145 226.979C2.27185 229.044 1.65226 231.729 1.23919 235.034C1.03266 237.305 0.619597 239.784 0.413064 242.675C0.413064 245.567 0.206532 248.665 0 252.176C0 255.687 0 259.404 0.206532 263.535" fill="var(--fill-0, white)"/>
</svg>
