<svg preserveAspectRatio="none" width="100%" height="100%" overflow="visible" style="display: block;" viewBox="0 0 1182.82 2736.07" fill="none" xmlns="http://www.w3.org/2000/svg">
<path id="Vector 20" d="M663.921 0.0449995C668.921 111.045 658.921 244.045 597.922 301.045C537.954 357.082 441.406 471.229 271.92 365.045C105.92 261.045 -10.5959 425.41 1.91977 571.045C12.9199 699.045 115.069 825.545 343.92 825.545C551.922 825.545 668.332 808.97 824.332 769.47C954.059 736.623 1108.33 806.47 1160.33 916.97C1240.33 1086.97 1105.92 1389.04 605.922 1289.04C285.671 1225 143.147 1250.69 57.92 1393.04C-16.0805 1516.65 88.9197 1719.54 177.92 1767.04C280.036 1821.54 393.345 1828.54 551.922 1828.54C743.921 1828.54 1079.67 1792.07 1149.77 1976.89C1259.77 2266.89 967.77 2375.39 685.77 2346.89C543.524 2332.51 421.77 2346.89 421.77 2455.39C421.77 2531.19 467.77 2579.39 575.77 2576.89C608.436 2575.22 673.77 2580.59 673.77 2615.39C673.77 2658.89 631.77 2660.89 585.77 2664.89C539.77 2668.89 528.074 2709.89 551.922 2735.39" stroke="var(--stroke-0, #1C3666)" stroke-width="2" stroke-dasharray="10 10"/>
</svg>
