<svg width="86" height="76" viewBox="0 0 86 76" fill="none" xmlns="http://www.w3.org/2000/svg">
<path d="M22.2269 70.377C31.5942 77.4257 55.7932 76.0551 66.7218 74.4888C80.7728 67.44 86.0419 66.8529 85.4564 50.406C84.871 33.9592 66.7218 5.76441 45.6452 4.58963C24.5687 3.41486 8.76129 13.9878 1.73578 24.5608C-5.28973 35.1338 10.5177 61.5662 22.2269 70.377Z" fill="white"/>
<g clip-path="url(#clip0_9162_10157)">
<path d="M56.8518 18.3066C53.2795 14.7378 48.9795 12.8212 43.9519 12.3586C43.6211 12.3586 43.2904 12.3586 43.0258 12.2925H41.9012C41.5704 12.2925 41.2396 12.2925 40.9089 12.3586C38.5274 12.5568 36.212 13.1516 34.0951 14.3412C30.7875 16.1256 28.3398 18.7692 26.686 22.0737C25.1645 25.1138 24.4368 28.3521 24.4368 31.7227C24.4368 32.7801 24.5029 33.7714 24.6352 34.8289C24.8337 36.5472 25.3629 38.1994 26.2891 39.7195C27.149 41.1734 28.2736 42.363 29.5306 43.4205C30.5228 44.2135 31.5151 45.0066 32.4413 45.8658C33.3013 46.6588 33.9628 47.5841 34.2936 48.7076C34.3597 48.9719 34.4259 49.2363 34.492 49.4346C34.3597 49.4346 34.2936 49.4346 34.2274 49.4346C33.2351 49.6328 32.3751 50.1615 31.7798 51.0207C31.449 51.4833 31.1844 52.012 31.0521 52.5408C30.7213 53.6643 30.6552 54.7878 30.7213 55.9774C30.7213 56.7044 30.7875 57.4313 30.9859 58.1583C31.3167 59.2818 31.8459 60.2071 32.9705 60.6697C33.632 61.0002 34.3597 61.1323 35.0874 61.1323C35.2859 61.1323 35.352 61.1323 35.2859 61.3306C35.2859 61.3306 35.2859 61.3967 35.2859 61.4628C35.1536 62.4541 35.1536 63.4455 35.2859 64.4368C35.5505 65.7586 36.4105 66.4856 37.7335 66.6838C38.1966 66.6838 38.6597 66.7499 39.1227 66.7499C40.512 66.7499 41.835 66.7499 43.2242 66.7499C44.8119 66.7499 46.3334 66.7499 47.8549 66.7499C48.4503 66.7499 49.0457 66.6838 49.5749 66.3534C50.7657 65.7586 51.2949 64.7011 51.4272 63.4455C51.4272 62.7185 51.4272 61.9915 51.4272 61.3306C51.4272 61.1984 51.4272 61.1323 51.6257 61.1323C51.8241 61.1323 51.9564 61.1323 52.1549 61.0662C53.5441 60.7358 54.6687 60.0749 55.3302 58.7531C55.7271 57.9601 55.9256 57.1009 55.9256 56.1757C55.9256 55.2504 55.9256 54.2591 55.8595 53.3338C55.7933 52.012 55.1979 51.0207 54.1395 50.2937C53.5441 49.8972 52.9487 49.6328 52.2872 49.5007C52.2872 49.5007 52.1549 49.5007 52.0887 49.5007C52.0887 49.5007 52.0887 49.5007 52.0887 49.4346C52.0887 49.3024 52.1549 49.1702 52.221 49.038C52.618 47.9145 53.2795 46.9232 54.0733 45.9979C54.9995 44.9405 55.9918 43.8831 56.9841 42.8257C58.241 41.4378 59.3656 39.8516 60.1594 38.1333C61.5486 35.0271 62.0117 31.8549 61.6809 28.4843C61.284 24.5851 59.6302 21.2145 56.8518 18.4388V18.3066ZM48.5826 63.7759C48.1857 63.7759 47.8549 63.7759 47.458 63.7759C46.135 63.7759 44.8781 63.7759 43.555 63.7759C42.0996 63.7759 40.5781 63.7759 39.1227 63.7759C38.792 63.7759 38.5274 63.7759 38.1966 63.6437C37.9981 63.6437 37.8658 63.5115 37.8658 63.3133C37.7335 62.6524 37.7335 61.9915 37.8658 61.3967C37.8658 61.3306 37.9981 61.1984 38.0643 61.1984C38.4612 61.1984 38.792 61.1984 39.1889 61.1984C41.835 61.1984 44.5473 61.1984 47.1934 61.1984C47.6565 61.1984 48.1196 61.1984 48.5165 61.3967C48.8472 61.5289 49.0457 61.7271 48.9795 62.0576C48.9795 62.4541 48.9795 62.8506 48.9795 63.2472C48.9795 63.6437 48.9134 63.7098 48.5165 63.7759H48.5826ZM52.221 52.4086C52.8826 52.6068 53.2795 53.0695 53.3456 53.7304C53.4118 54.3252 53.4779 54.92 53.4779 55.4487C53.4779 55.9113 53.4779 56.3739 53.4118 56.8365C53.3456 57.5635 52.8826 57.9601 52.221 58.0922C51.5595 58.1583 50.9641 58.2244 50.3026 58.2244C48.4503 58.2244 46.6642 58.2244 44.8119 58.2244H43.4888C41.5042 58.2244 39.4535 58.2244 37.4689 58.2244C36.6089 58.2244 35.7489 58.1583 34.8889 58.0922C34.8228 58.0922 34.6905 58.0922 34.6243 58.0922C34.029 57.9601 33.6982 57.6296 33.5659 57.0348C33.3674 56.2417 33.3013 55.5148 33.3674 54.7217C33.3674 54.2591 33.3674 53.7964 33.4997 53.3999C33.632 52.6068 33.9628 52.2764 34.7566 52.1442C35.2197 52.0781 35.7489 52.012 36.212 52.012C38.3289 52.012 40.4458 52.012 42.5627 52.012C44.3488 52.012 46.2011 52.012 47.9872 52.012C49.1118 52.012 50.1703 52.1442 51.2949 52.2103C51.6257 52.2103 51.8903 52.3425 52.221 52.4086ZM57.7779 37.2081C57.1164 38.5959 56.1902 39.7856 55.1318 40.9091C54.0733 42.0987 53.0149 43.2222 52.0226 44.4118C51.0303 45.6014 50.2364 46.9232 49.7734 48.4432C49.7734 48.6415 49.6411 48.7737 49.6411 48.9719C49.6411 49.1041 49.5749 49.1041 49.4426 49.1041C48.4503 49.1041 47.5242 49.1041 46.5319 49.1041H40.115C40.0489 49.1041 39.9827 49.1041 39.9166 49.1041C39.0566 49.1041 38.1966 49.1041 37.3366 49.1041C37.2043 49.1041 37.1381 49.1041 37.1381 48.9058C36.8735 46.8571 36.0135 45.1388 34.5582 43.6848C33.632 42.6935 32.5074 41.9004 31.5151 41.0412C30.7875 40.4464 30.1259 39.8516 29.4644 39.1247C28.3398 37.8029 27.7444 36.2828 27.3475 34.6306C27.149 33.5732 27.0167 32.5157 27.0167 31.4583C27.0167 28.0878 27.7444 24.9155 29.4644 22.0737C31.8459 18.2405 35.2197 15.9935 39.652 15.2665C42.695 14.7378 45.6719 15.2665 48.5165 16.2578C50.898 17.117 53.081 18.4388 54.8672 20.2893C57.2487 22.7346 58.6379 25.5764 59.101 28.9469C59.4979 31.8549 58.9686 34.5645 57.7117 37.142L57.7779 37.2081Z" fill="#FFDD39"/>
<path d="M44.812 10.2437C45.275 9.97937 45.6058 9.64892 45.6058 8.98803C45.6058 8.32714 45.6058 7.60016 45.6058 6.93927C45.6058 5.02269 45.672 3.17219 45.7381 1.25561C45.7381 0.726895 45.3412 0.264271 44.9443 0.132093C44.5474 -8.55665e-05 44.1504 -8.55665e-05 43.6874 0.132093C43.1581 0.33036 42.8274 0.726895 42.8274 1.3217C42.8274 1.45387 42.8274 1.51996 42.8274 1.65214C42.8274 4.22962 42.6951 6.741 42.6951 9.31848C42.6951 9.51675 42.7612 9.71501 42.8935 9.84719C43.2904 10.442 44.0843 10.5742 44.812 10.2437Z" fill="#FFDD39"/>
<path d="M74.1177 30.2689C73.9192 29.7402 73.5223 29.4098 72.9269 29.4098C72.7946 29.4098 72.7285 29.4098 72.5962 29.4098C70.0162 29.4098 67.5024 29.2776 64.9224 29.2776C64.724 29.2776 64.5255 29.3437 64.3932 29.4759C63.7978 29.8724 63.6655 30.6655 63.9963 31.3924C64.2609 31.8551 64.5917 32.1855 65.2532 32.1855C65.9147 32.1855 66.6424 32.1855 67.3039 32.1855C69.2224 32.1855 71.0747 32.2516 72.9931 32.3177C73.5223 32.3177 73.9854 31.9212 74.1177 31.5246C74.25 31.1281 74.25 30.7315 74.1177 30.2689Z" fill="#FFDD39"/>
<path d="M21.1291 29.4098C20.9968 29.4098 20.9306 29.4098 20.7983 29.4098C18.2184 29.4098 15.7045 29.2776 13.1246 29.2776C12.9261 29.2776 12.7277 29.3437 12.5954 29.4759C12 29.8724 11.8677 30.6655 12.1984 31.3924C12.463 31.8551 12.7938 32.1855 13.4553 32.1855C14.1169 32.1855 14.8446 32.1855 15.5061 32.1855C17.4245 32.1855 19.2768 32.2516 21.1952 32.3177C21.7245 32.3177 22.1875 31.9212 22.3198 31.5246C22.4522 31.1281 22.4522 30.7315 22.3198 30.2689C22.1214 29.7402 21.7245 29.4098 21.1291 29.4098Z" fill="#FFDD39"/>
<path d="M67.6348 10.442C67.6348 10.3759 67.5025 10.1777 67.4363 10.0455C67.0394 9.45067 66.3779 9.3185 65.8486 9.78112C65.7163 9.84721 65.6502 9.97939 65.5179 10.0455C63.7317 11.8299 61.8795 13.6143 60.0933 15.3326C59.6964 15.6631 59.5641 16.1257 59.6303 16.6544C59.6303 17.3814 60.2256 18.1083 61.0195 17.9762C61.2841 17.9762 61.4825 17.7779 61.681 17.5796C62.2764 16.9848 62.8718 16.39 63.5333 15.7952C64.7902 14.5395 66.0471 13.3499 67.304 12.0942C67.7671 11.6316 67.8994 11.1029 67.7009 10.442H67.6348Z" fill="#FFDD39"/>
<path d="M26.2889 17.117C27.0828 17.2492 27.6782 16.5222 27.6782 15.7953C27.6782 15.2665 27.5458 14.87 27.2151 14.4735C25.429 12.6891 23.5767 10.9047 21.7905 9.18635C21.6582 9.05417 21.5921 8.98808 21.4598 8.92199C20.8644 8.45937 20.2029 8.59154 19.8721 9.18635C19.8059 9.31852 19.7398 9.4507 19.6736 9.58288C19.5413 10.2438 19.6736 10.7725 20.0706 11.2351C21.3275 12.4908 22.5844 13.6804 23.8413 14.9361C24.4367 15.5309 25.032 16.1257 25.6936 16.7205C25.892 16.9188 26.0905 17.0509 26.3551 17.117H26.2889Z" fill="#FFDD39"/>
<path d="M37.1382 19.6946C37.1382 19.6946 34.7567 20.025 33.4337 23.1312C32.1767 26.2374 30.4568 30.7976 31.2506 35.0933C31.2506 35.0933 31.2506 35.3577 31.7137 35.8864C32.4414 36.7456 33.1029 35.1594 33.2352 34.8951C33.3675 34.6307 33.169 35.1594 32.9706 33.9037C32.8383 32.7141 32.8383 32.2515 32.8383 32.2515C32.8383 32.2515 33.0367 31.128 33.2352 30.5993C33.4336 30.0706 33.566 29.7401 33.8306 28.9471C34.0952 28.154 34.0952 27.5592 34.5583 26.8322C35.0213 26.1052 34.9552 25.973 35.6167 25.3122C36.2782 24.6513 35.1536 26.0391 36.2782 24.6513C37.4028 23.2634 37.5351 23.1312 38.0644 22.2721C38.5274 21.4129 38.8582 21.479 38.792 20.4216C38.7259 19.3641 37.1382 19.6285 37.1382 19.6285V19.6946Z" fill="#FFDD39"/>
</g>
<defs>
<clipPath id="clip0_9162_10157">
<rect width="62.25" height="66.75" fill="white" transform="translate(12)"/>
</clipPath>
</defs>
</svg>
